<?xml version="1.0" standalone="no"?>
<!DOCTYPE svg PUBLIC "-//W3C//DTD SVG 1.1//EN"
	"http://www.w3.org/Graphics/SVG/1.1/DTD/svg11.dtd">
<svg version="1.1"
	viewBox="0.0 0.0 1542.8 1196.0"
	width="6in" height="4.5in"
	xmlns="http://www.w3.org/2000/svg">
<rect x="0.0" y="0.0" width="1542.8" height="1196.0" fill="white"/>
<g stroke-linecap="round"
	 stroke-linejoin="round" fill="none">
<g stroke-width="3.0" stroke="black">
<polyline points="196.8,1093.0
	198.1,179.0
	199.4,167.0
	200.7,173.0
	202.0,208.0
	203.3,266.0
	204.6,342.0
	205.9,449.0
	207.2,580.0
	208.5,699.0
	209.8,866.0
	211.1,751.0
	212.4,886.0
	213.7,747.0
	215.0,910.0
	216.3,774.0
	217.6,907.0
	218.9,782.0
	220.2,911.0
	221.5,774.0
	222.8,918.0
	224.1,779.0
	225.4,926.0
	226.7,761.0
	228.0,917.0
	229.3,765.0
	230.6,909.0
	231.9,776.0
	233.2,872.0
	234.5,777.0
	235.8,922.0
	237.1,759.0
	238.4,906.0
	239.7,760.0
	241.0,912.0
	242.3,755.0
	243.6,933.0
	244.9,751.0
	246.2,877.0
	247.5,759.0
	248.8,922.0
	250.1,774.0
	251.4,899.0
	252.7,775.0
	254.0,913.0
	255.3,778.0
	256.6,925.0
	257.9,772.0
	259.2,904.0
	260.5,775.0
	261.8,901.0
	263.1,774.0
	264.4,924.0
	265.7,781.0
	267.0,900.0
	268.3,756.0
	269.6,913.0
	270.9,760.0
	272.2,901.0
	273.5,784.0
	274.8,893.0
	276.1,750.0
	277.4,901.0
	278.7,780.0
	280.0,899.0
	281.3,769.0
	282.6,894.0
	283.9,735.0
	285.2,857.0
	286.5,725.0
	287.8,865.0
	289.1,771.0
	290.4,892.0
	291.7,749.0
	293.0,911.0
	294.3,731.0
	295.6,906.0
	296.9,734.0
	298.2,896.0
	299.5,752.0
	300.8,891.0
	302.1,755.0
	303.4,887.0
	304.7,702.0
	306.0,750.0
	307.3,687.0
	308.6,800.0
	309.9,700.0
	311.2,833.0
	312.5,723.0
	313.8,838.0
	315.1,734.0
	316.4,875.0
	317.7,757.0
	319.0,870.0
	320.3,733.0
	321.6,843.0
	322.9,722.0
	324.2,862.0
	325.5,743.0
	326.8,853.0
	328.1,735.0
	329.4,888.0
	330.7,741.0
	332.0,883.0
	333.3,753.0
	334.6,869.0
	335.9,752.0
	337.2,874.0
	338.5,755.0
	339.8,830.0
	341.1,699.0
	342.4,813.0
	343.7,694.0
	345.0,852.0
	346.3,733.0
	347.6,873.0
	348.9,734.0
	350.2,863.0
	351.5,740.0
	352.8,888.0
	354.1,752.0
	355.4,907.0
	356.7,752.0
	358.0,940.0
	359.3,772.0
	360.6,902.0
	361.9,752.0
	363.2,892.0
	364.5,759.0
	365.8,895.0
	367.1,721.0
	368.4,679.0
	369.7,671.0
	371.0,683.0
	372.3,721.0
	373.6,846.0
	374.9,712.0
	376.2,650.0
	377.5,630.0
	378.8,637.0
	380.1,656.0
	381.4,698.0
	382.7,754.0
	384.0,873.0
	385.3,662.0
	386.6,863.0
	387.9,649.0
	389.2,840.0
	390.5,687.0
	391.8,861.0
	393.1,750.0
	394.4,903.0
	395.7,711.0
	397.0,811.0
	398.3,702.0
	399.6,817.0
	400.9,731.0
	402.2,883.0
	403.5,763.0
	404.8,909.0
	406.1,774.0
	407.4,902.0
	408.7,762.0
	410.0,892.0
	411.3,733.0
	412.6,751.0
	413.9,682.0
	415.2,759.0
	416.5,693.0
	417.8,855.0
	419.1,761.0
	420.4,890.0
	421.7,782.0
	423.0,909.0
	424.3,779.0
	425.6,891.0
	426.9,760.0
	428.2,871.0
	429.5,770.0
	430.8,893.0
	432.1,775.0
	433.4,884.0
	434.7,759.0
	436.0,901.0
	437.3,775.0
	438.6,948.0
	439.9,782.0
	441.2,881.0
	442.5,775.0
	443.8,891.0
	445.1,786.0
	446.4,880.0
	447.7,750.0
	449.0,876.0
	450.3,726.0
	451.6,851.0
	452.9,751.0
	454.2,901.0
	455.5,780.0
	456.8,888.0
	458.1,772.0
	459.4,886.0
	460.7,780.0
	462.0,900.0
	463.3,786.0
	464.6,912.0
	465.9,776.0
	467.2,915.0
	468.5,781.0
	469.8,908.0
	471.1,785.0
	472.4,917.0
	473.7,781.0
	475.0,888.0
	476.3,784.0
	477.6,909.0
	478.9,777.0
	480.2,898.0
	481.5,779.0
	482.8,892.0
	484.1,769.0
	485.4,869.0
	486.7,760.0
	488.0,890.0
	489.3,773.0
	490.6,910.0
	491.9,764.0
	493.2,914.0
	494.5,778.0
	495.8,881.0
	497.1,771.0
	498.4,925.0
	499.7,779.0
	501.0,905.0
	502.3,779.0
	503.6,921.0
	504.9,788.0
	506.2,892.0
	507.5,785.0
	508.8,909.0
	510.1,779.0
	511.4,905.0
	512.7,765.0
	514.0,900.0
	515.3,784.0
	516.6,905.0
	517.9,775.0
	519.2,904.0
	520.5,763.0
	521.8,944.0
	523.1,791.0
	524.4,905.0
	525.7,759.0
	527.0,901.0
	528.3,775.0
	529.6,904.0
	530.9,770.0
	532.2,913.0
	533.5,757.0
	534.8,898.0
	536.1,768.0
	537.4,915.0
	538.7,763.0
	540.0,908.0
	541.3,786.0
	542.6,889.0
	543.9,769.0
	545.2,939.0
	546.5,777.0
	547.8,902.0
	549.1,776.0
	550.4,932.0
	551.7,789.0
	553.0,930.0
	554.3,787.0
	555.6,894.0
	556.9,785.0
	558.2,872.0
	559.5,776.0
	560.8,908.0
	562.1,769.0
	563.4,924.0
	564.7,774.0
	566.0,895.0
	567.3,776.0
	568.6,928.0
	569.9,788.0
	571.2,947.0
	572.5,777.0
	573.8,901.0
	575.1,779.0
	576.4,879.0
	577.7,791.0
	579.0,934.0
	580.3,774.0
	581.6,901.0
	582.9,783.0
	584.2,901.0
	585.5,779.0
	586.8,919.0
	588.1,787.0
	589.4,887.0
	590.7,780.0
	592.0,906.0
	593.3,780.0
	594.6,924.0
	595.9,772.0
	597.2,888.0
	598.5,778.0
	599.8,896.0
	601.1,776.0
	602.4,917.0
	603.7,775.0
	605.0,917.0
	606.3,765.0
	607.6,902.0
	608.9,764.0
	610.2,887.0
	611.5,775.0
	612.8,914.0
	614.1,783.0
	615.4,917.0
	616.7,767.0
	618.0,903.0
	619.3,777.0
	620.6,899.0
	621.9,782.0
	623.2,953.0
	624.5,781.0
	625.8,882.0
	627.1,773.0
	628.4,911.0
	629.7,781.0
	631.0,899.0
	632.3,763.0
	633.6,894.0
	634.9,775.0
	636.2,891.0
	637.5,770.0
	638.8,918.0
	640.1,785.0
	641.4,900.0
	642.7,774.0
	644.0,909.0
	645.3,777.0
	646.6,934.0
	647.9,770.0
	649.2,912.0
	650.5,766.0
	651.8,898.0
	653.1,766.0
	654.4,899.0
	655.7,780.0
	657.0,920.0
	658.3,764.0
	659.6,907.0
	660.9,768.0
	662.2,913.0
	663.5,761.0
	664.8,901.0
	666.1,761.0
	667.4,906.0
	668.7,779.0
	670.0,918.0
	671.3,764.0
	672.6,872.0
	673.9,770.0
	675.2,882.0
	676.5,782.0
	677.8,931.0
	679.1,762.0
	680.4,907.0
	681.7,785.0
	683.0,906.0
	684.3,770.0
	685.6,908.0
	686.9,772.0
	688.2,887.0
	689.5,780.0
	690.8,916.0
	692.1,775.0
	693.4,894.0
	694.7,763.0
	696.0,929.0
	697.3,767.0
	698.6,903.0
	699.9,767.0
	701.2,905.0
	702.5,771.0
	703.8,930.0
	705.1,767.0
	706.4,887.0
	707.7,773.0
	709.0,913.0
	710.3,785.0
	711.6,904.0
	712.9,780.0
	714.2,905.0
	715.5,777.0
	716.8,893.0
	718.1,763.0
	719.4,879.0
	720.7,770.0
	722.0,913.0
	723.3,772.0
	724.6,936.0
	725.9,767.0
	727.2,894.0
	728.5,772.0
	729.8,920.0
	731.1,781.0
	732.4,935.0
	733.7,769.0
	735.0,917.0
	736.3,778.0
	737.6,911.0
	738.9,772.0
	740.2,882.0
	741.5,775.0
	742.8,922.0
	744.1,768.0
	745.4,904.0
	746.7,785.0
	748.0,899.0
	749.3,774.0
	750.6,901.0
	751.9,767.0
	753.2,906.0
	754.5,766.0
	755.8,920.0
	757.1,774.0
	758.4,935.0
	759.7,766.0
	761.0,898.0
	762.3,779.0
	763.6,887.0
	764.9,775.0
	766.2,926.0
	767.5,762.0
	768.8,891.0
	770.1,770.0
	771.4,907.0
	772.7,786.0
	774.0,913.0
	775.3,763.0
	776.6,906.0
	777.9,776.0
	779.2,928.0
	780.5,784.0
	781.8,908.0
	783.1,786.0
	784.4,904.0
	785.7,778.0
	787.0,930.0
	788.3,786.0
	789.6,890.0
	790.9,781.0
	792.2,933.0
	793.5,770.0
	794.8,906.0
	796.1,778.0
	797.4,903.0
	798.7,779.0
	800.0,911.0
	801.3,775.0
	802.6,917.0
	803.9,767.0
	805.2,891.0
	806.5,772.0
	807.8,924.0
	809.1,780.0
	810.4,902.0
	811.7,777.0
	813.0,904.0
	814.3,783.0
	815.6,906.0
	816.9,775.0
	818.2,889.0
	819.5,781.0
	820.8,911.0
	822.1,766.0
	823.4,894.0
	824.7,770.0
	826.0,901.0
	827.3,773.0
	828.6,898.0
	829.9,776.0
	831.2,897.0
	832.5,771.0
	833.8,921.0
	835.1,770.0
	836.4,910.0
	837.7,785.0
	839.0,908.0
	840.3,772.0
	841.6,915.0
	842.9,768.0
	844.2,896.0
	845.5,775.0
	846.8,898.0
	848.1,773.0
	849.4,894.0
	850.7,781.0
	852.0,892.0
	853.3,776.0
	854.6,913.0
	855.9,770.0
	857.2,884.0
	858.5,770.0
	859.8,931.0
	861.1,782.0
	862.4,898.0
	863.7,770.0
	865.0,921.0
	866.3,778.0
	867.6,900.0
	868.9,772.0
	870.2,911.0
	871.5,772.0
	872.8,884.0
	874.1,781.0
	875.4,909.0
	876.7,770.0
	878.0,896.0
	879.3,773.0
	880.6,898.0
	881.9,764.0
	883.2,889.0
	884.5,777.0
	885.8,898.0
	887.1,774.0
	888.4,905.0
	889.7,775.0
	891.0,914.0
	892.3,771.0
	893.6,897.0
	894.9,778.0
	896.2,929.0
	897.5,766.0
	898.8,916.0
	900.1,765.0
	901.4,913.0
	902.7,777.0
	904.0,900.0
	905.3,775.0
	906.6,890.0
	907.9,779.0
	909.2,909.0
	910.5,774.0
	911.8,907.0
	913.1,776.0
	914.4,914.0
	915.7,764.0
	917.0,912.0
	918.3,783.0
	919.6,922.0
	920.9,779.0
	922.2,894.0
	923.5,753.0
	924.8,902.0
	926.1,777.0
	927.4,901.0
	928.7,761.0
	930.0,889.0
	931.3,770.0
	932.6,911.0
	933.9,773.0
	935.2,898.0
	936.5,769.0
	937.8,917.0
	939.1,765.0
	940.4,887.0
	941.7,780.0
	943.0,888.0
	944.3,771.0
	945.6,885.0
	946.9,750.0
	948.2,932.0
	949.5,765.0
	950.8,909.0
	952.1,768.0
	953.4,921.0
	954.7,771.0
	956.0,879.0
	957.3,764.0
	958.6,889.0
	959.9,768.0
	961.2,908.0
	962.5,782.0
	963.8,905.0
	965.1,760.0
	966.4,909.0
	967.7,762.0
	969.0,897.0
	970.3,763.0
	971.6,882.0
	972.9,774.0
	974.2,894.0
	975.5,782.0
	976.8,921.0
	978.1,780.0
	979.4,907.0
	980.7,787.0
	982.0,926.0
	983.3,775.0
	984.6,902.0
	985.9,747.0
	987.2,900.0
	988.5,772.0
	989.8,881.0
	991.1,768.0
	992.4,905.0
	993.7,778.0
	995.0,909.0
	996.3,763.0
	997.6,885.0
	998.9,750.0
	1000.2,904.0
	1001.5,767.0
	1002.8,906.0
	1004.1,767.0
	1005.4,892.0
	1006.7,762.0
	1008.0,928.0
	1009.3,758.0
	1010.6,899.0
	1011.9,740.0
	1013.2,894.0
	1014.5,753.0
	1015.8,793.0
	1017.1,567.0
	1018.4,517.0
	1019.7,508.0
	1021.0,874.0
	1022.3,517.0
	1023.6,589.0
	1024.9,667.0
	1026.2,839.0
	1027.5,721.0
	1028.8,891.0
	1030.1,767.0
	1031.4,896.0
	1032.7,765.0
	1034.0,896.0
	1035.3,760.0
	1036.6,887.0
	1037.9,776.0
	1039.2,892.0
	1040.5,776.0
	1041.8,900.0
	1043.1,764.0
	1044.4,916.0
	1045.7,769.0
	1047.0,910.0
	1048.3,770.0
	1049.6,931.0
	1050.9,763.0
	1052.2,901.0
	1053.5,765.0
	1054.8,897.0
	1056.1,771.0
	1057.4,898.0
	1058.7,757.0
	1060.0,888.0
	1061.3,775.0
	1062.6,906.0
	1063.9,775.0
	1065.2,911.0
	1066.5,772.0
	1067.8,928.0
	1069.1,773.0
	1070.4,927.0
	1071.7,766.0
	1073.0,916.0
	1074.3,765.0
	1075.6,888.0
	1076.9,774.0
	1078.2,898.0
	1079.5,756.0
	1080.8,871.0
	1082.1,756.0
	1083.4,933.0
	1084.7,765.0
	1086.0,899.0
	1087.3,765.0
	1088.6,883.0
	1089.9,771.0
	1091.2,889.0
	1092.5,767.0
	1093.8,896.0
	1095.1,776.0
	1096.4,903.0
	1097.7,767.0
	1099.0,903.0
	1100.3,764.0
	1101.6,899.0
	1102.9,768.0
	1104.2,892.0
	1105.5,769.0
	1106.8,898.0
	1108.1,772.0
	1109.4,940.0
	1110.7,752.0
	1112.0,894.0
	1113.3,765.0
	1114.6,889.0
	1115.9,770.0
	1117.2,890.0
	1118.5,763.0
	1119.8,926.0
	1121.1,768.0
	1122.4,909.0
	1123.7,779.0
	1125.0,907.0
	1126.3,764.0
	1127.6,903.0
	1128.9,767.0
	1130.2,917.0
	1131.5,768.0
	1132.8,891.0
	1134.1,774.0
	1135.4,894.0
	1136.7,761.0
	1138.0,884.0
	1139.3,766.0
	1140.6,886.0
	1141.9,758.0
	1143.2,914.0
	1144.5,770.0
	1145.8,895.0
	1147.1,766.0
	1148.4,892.0
	1149.7,778.0
	1151.0,890.0
	1152.3,768.0
	1153.6,922.0
	1154.9,750.0
	1156.2,875.0
	1157.5,771.0
	1158.8,923.0
	1160.1,756.0
	1161.4,893.0
	1162.7,764.0
	1164.0,922.0
	1165.3,774.0
	1166.6,923.0
	1167.9,762.0
	1169.2,888.0
	1170.5,766.0
	1171.8,908.0
	1173.1,777.0
	1174.4,887.0
	1175.7,759.0
	1177.0,893.0
	1178.3,767.0
	1179.6,904.0
	1180.9,767.0
	1182.2,899.0
	1183.5,764.0
	1184.8,895.0
	1186.1,764.0
	1187.4,894.0
	1188.7,774.0
	1190.0,886.0
	1191.3,773.0
	1192.6,911.0
	1193.9,771.0
	1195.2,883.0
	1196.5,768.0
	1197.8,905.0
	1199.1,765.0
	1200.4,891.0
	1201.7,764.0
	1203.0,909.0
	1204.3,766.0
	1205.6,899.0
	1206.9,769.0
	1208.2,888.0
	1209.5,759.0
	1210.8,890.0
	1212.1,767.0
	1213.4,901.0
	1214.7,750.0
	1216.0,876.0
	1217.3,775.0
	1218.6,877.0
	1219.9,775.0
	1221.2,879.0
	1222.5,769.0
	1223.8,924.0
	1225.1,769.0
	1226.4,893.0
	1227.7,766.0
	1229.0,886.0
	1230.3,769.0
	1231.6,930.0
	1232.9,776.0
	1234.2,895.0
	1235.5,779.0
	1236.8,891.0
	1238.1,766.0
	1239.4,895.0
	1240.7,758.0
	1242.0,904.0
	1243.3,762.0
	1244.6,921.0
	1245.9,777.0
	1247.2,907.0
	1248.5,772.0
	1249.8,888.0
	1251.1,756.0
	1252.4,869.0
	1253.7,775.0
	1255.0,936.0
	1256.3,760.0
	1257.6,898.0
	1258.9,756.0
	1260.2,885.0
	1261.5,754.0
	1262.8,898.0
	1264.1,765.0
	1265.4,880.0
	1266.7,763.0
	1268.0,901.0
	1269.3,774.0
	1270.6,921.0
	1271.9,760.0
	1273.2,935.0
	1274.5,763.0
	1275.8,892.0
	1277.1,770.0
	1278.4,908.0
	1279.7,773.0
	1281.0,916.0
	1282.3,767.0
	1283.6,886.0
	1284.9,760.0
	1286.2,896.0
	1287.5,768.0
	1288.8,894.0
	1290.1,768.0
	1291.4,898.0
	1292.7,758.0
	1294.0,927.0
	1295.3,777.0
	1296.6,907.0
	1297.9,766.0
	1299.2,910.0
	1300.5,760.0
	1301.8,895.0
	1303.1,770.0
	1304.4,895.0
	1305.7,763.0
	1307.0,914.0
	1308.3,755.0
	1309.6,878.0
	1310.9,756.0
	1312.2,900.0
	1313.5,778.0
	1314.8,908.0
	1316.1,778.0
	1317.4,919.0
	1318.7,765.0
	1320.0,885.0
	1321.3,767.0
	1322.6,892.0
	1323.9,768.0
	1325.2,869.0
	1326.5,756.0
	1327.8,900.0
	1329.1,768.0
	1330.4,908.0
	1331.7,761.0
	1333.0,891.0
	1334.3,762.0
	1335.6,922.0
	1336.9,749.0
	1338.2,908.0
	1339.5,765.0
	1340.8,916.0
	1342.1,771.0
	1343.4,932.0
	1344.7,767.0
	1346.0,903.0
	1347.3,761.0
	1348.6,917.0
	1349.9,761.0
	1351.2,898.0
	1352.5,769.0
	1353.8,897.0
	1355.1,762.0
	1356.4,923.0
	1357.7,768.0
	1359.0,919.0
	1360.3,773.0
	1361.6,866.0
	1362.9,745.0
	1364.2,914.0
	1365.5,767.0
	1366.8,900.0
	1368.1,776.0
	1369.4,895.0
	1370.7,771.0
	1372.0,892.0
	1373.3,762.0
	1374.6,897.0
	1375.9,777.0
	1377.2,893.0
	1378.5,754.0
	1379.8,891.0
	1381.1,765.0
	1382.4,886.0
	1383.7,765.0
	1385.0,883.0
	1386.3,747.0
	1387.6,923.0
	1388.9,757.0
	1390.2,892.0
	1391.5,764.0
	1392.8,906.0
	1394.1,745.0
	1395.4,893.0
	1396.7,758.0
	1398.0,910.0
	1399.3,760.0
	1400.6,929.0
	1401.9,757.0
	1403.2,871.0
	1404.5,772.0
	1405.8,910.0
	1407.1,777.0
	1408.4,897.0
	1409.7,760.0
	1411.0,897.0
	1412.3,767.0
	1413.6,907.0
	1414.9,762.0
	1416.2,918.0
	1417.5,757.0
	1418.8,937.0
	1420.1,769.0
	1421.4,924.0
	1422.7,769.0
	1424.0,911.0
	1425.3,767.0
	1426.6,883.0
	1427.9,769.0
	1429.2,891.0
	1430.5,763.0
	1431.8,936.0
	1433.1,758.0
	1434.4,888.0
	1435.7,762.0
	1437.0,909.0
	1438.3,768.0
	1439.6,896.0
	1440.9,758.0
	1442.2,890.0
	1443.5,754.0
	1444.8,888.0
	1446.1,778.0
	1447.4,903.0
	1448.7,754.0
	1450.0,894.0
	1451.3,762.0
	1452.6,891.0
	1453.9,763.0
	1455.2,883.0
	1456.5,765.0
	1457.8,897.0
	1459.1,760.0
	1460.4,890.0
	1461.7,765.0
	1463.0,882.0
	1464.3,767.0
	1465.6,877.0
	1466.9,763.0
	1468.2,888.0
	1469.5,769.0
	1470.8,867.0
	1472.1,754.0
	1473.4,899.0
	1474.7,766.0
	1476.0,905.0
	1477.3,762.0
	1478.6,876.0
	1479.9,763.0
	1481.2,876.0
	1482.5,746.0
	1483.8,912.0
	1485.1,760.0
	1486.4,878.0
	1487.7,758.0
	1489.0,893.0
	1490.3,758.0
	1491.6,908.0
	1492.9,757.0
	1494.2,889.0
	1495.5,748.0
	1496.8,889.0
	1498.1,763.0	"/>
<!-- char 0xd8 -->
<polyline points="196.8,603.0
	207.2,603.0
	196.8,603.0	"/>
<polyline points="196.8,583.0
	207.2,583.0
	196.8,583.0	"/>
<!-- char 0xd9 -->
<polyline points="841.6,1091.0
	841.6,1083.0
	841.6,1091.0	"/>
<polyline points="852.0,1091.0
	852.0,1083.0
	852.0,1091.0	"/>
<!-- char 0xd8 -->
<polyline points="1486.4,603.0
	1496.8,603.0
	1486.4,603.0	"/>
<polyline points="1486.4,583.0
	1496.8,583.0
	1486.4,583.0	"/>
<polyline points="196.8,1093.0
	1496.8,1093.0	"/>
<polyline points="1496.8,993.0
	196.8,993.0	"/>
<polyline points="196.8,893.0
	1496.8,893.0	"/>
<polyline points="1496.8,793.0
	196.8,793.0	"/>
<polyline points="196.8,693.0
	1496.8,693.0	"/>
<polyline points="1496.8,593.0
	196.8,593.0	"/>
<polyline points="196.8,493.0
	1496.8,493.0	"/>
<polyline points="1496.8,393.0
	196.8,393.0	"/>
<polyline points="196.8,293.0
	1496.8,293.0	"/>
<polyline points="1496.8,193.0
	196.8,193.0	"/>
<polyline points="196.8,93.0
	1496.8,93.0	"/>
<polyline points="1496.8,93.0
	1496.8,1093.0	"/>
<polyline points="1366.8,1093.0
	1366.8,93.0	"/>
<polyline points="1236.8,93.0
	1236.8,1093.0	"/>
<polyline points="1106.8,1093.0
	1106.8,93.0	"/>
<polyline points="976.8,93.0
	976.8,1093.0	"/>
<polyline points="846.8,1093.0
	846.8,93.0	"/>
<polyline points="716.8,93.0
	716.8,1093.0	"/>
<polyline points="586.8,1093.0
	586.8,93.0	"/>
<polyline points="456.8,93.0
	456.8,1093.0	"/>
<polyline points="326.8,1093.0
	326.8,93.0	"/>
<polyline points="196.8,93.0
	196.8,1093.0	"/>
<!-- char 0xc8 -->
<polyline points="33.1,84.0
	41.8,53.7
	33.1,84.0	"/>
<polyline points="37.5,67.2
	50.6,67.2
	46.2,84.0
	50.6,67.2	"/>
<!-- char 0xd0 -->
<polyline points="63.7,67.2
	54.9,97.4
	63.7,67.2
	76.8,67.2
	72.4,84.0
	59.3,84.0	"/>
<polyline points="72.4,84.0
	76.8,67.2	"/>
<!-- char 0x91 -->
<!-- char 0x91 -->
<!-- char 0x00 -->
<!-- char 0x52 -->
<polyline points="222.7,1144.3
	208.0,1144.3
	208.0,1162.4
	208.0,1144.3
	222.7,1144.3
	225.7,1148.9
	222.7,1153.4
	208.0,1153.4
	219.8,1153.4
	225.7,1162.4	"/>
<!-- char 0x45 -->
<polyline points="231.5,1153.4
	246.2,1153.4
	231.5,1153.4	"/>
<polyline points="231.5,1162.4
	231.5,1144.3
	249.2,1144.3
	231.5,1144.3
	231.5,1162.4
	249.2,1162.4
	231.5,1162.4	"/>
<!-- char 0x53 -->
<polyline points="272.7,1146.6
	263.9,1144.3
	255.0,1146.6
	255.0,1151.1
	266.8,1153.4
	272.7,1155.6
	272.7,1160.2
	263.9,1162.4
	255.0,1160.2	"/>
<!-- char 0x20 -->
<!-- char 0x42 -->
<polyline points="313.8,1162.4
	302.0,1162.4
	302.0,1144.3
	313.8,1144.3
	319.7,1148.9
	313.8,1153.4
	302.0,1153.4
	313.8,1153.4
	319.7,1157.9
	313.8,1162.4
	302.0,1162.4
	302.0,1144.3
	313.8,1144.3	"/>
<!-- char 0x57 -->
<polyline points="325.6,1144.3
	328.5,1162.4
	334.4,1148.9
	340.2,1162.4
	343.2,1144.3
	340.2,1162.4
	334.4,1148.9
	328.5,1162.4
	325.6,1144.3	"/>
<!-- char 0x20 -->
<!-- char 0x33 -->
<polyline points="372.6,1160.2
	378.4,1162.4
	384.3,1162.4
	387.2,1157.9
	384.3,1153.4
	378.4,1153.4	"/>
<polyline points="384.3,1153.4
	387.2,1148.9
	384.3,1144.3
	378.4,1144.3
	372.6,1146.6	"/>
<!-- char 0x20 -->
<!-- char 0x4d -->
<polyline points="419.6,1144.3
	428.4,1157.9
	437.2,1144.3
	437.2,1162.4
	437.2,1144.3
	428.4,1157.9
	419.6,1144.3
	419.6,1162.4
	419.6,1144.3	"/>
<!-- char 0x48 -->
<polyline points="460.7,1162.4
	460.7,1144.3
	460.7,1162.4	"/>
<polyline points="460.7,1153.4
	443.1,1153.4
	460.7,1153.4	"/>
<polyline points="443.1,1144.3
	443.1,1162.4
	443.1,1144.3	"/>
<!-- char 0x7a -->
<polyline points="469.5,1151.1
	481.3,1151.1
	469.5,1162.4
	481.3,1162.4
	469.5,1162.4
	481.3,1151.1
	469.5,1151.1	"/>
<!-- char 0x92 -->
<!-- char 0x00 -->
<!-- char 0x56 -->
<polyline points="663.4,1162.4
	654.6,1144.3
	663.4,1162.4
	672.2,1144.3
	663.4,1162.4	"/>
<!-- char 0x42 -->
<polyline points="689.9,1162.4
	678.1,1162.4
	678.1,1144.3
	689.9,1144.3
	695.7,1148.9
	689.9,1153.4
	678.1,1153.4
	689.9,1153.4
	695.7,1157.9
	689.9,1162.4
	678.1,1162.4
	678.1,1144.3
	689.9,1144.3	"/>
<!-- char 0x57 -->
<polyline points="701.6,1144.3
	704.6,1162.4
	710.4,1148.9
	716.3,1162.4
	719.2,1144.3
	716.3,1162.4
	710.4,1148.9
	704.6,1162.4
	701.6,1144.3	"/>
<!-- char 0x20 -->
<!-- char 0x31 -->
<polyline points="751.6,1146.6
	757.4,1144.3
	757.4,1162.4
	757.4,1144.3	"/>
<polyline points="751.6,1162.4
	763.3,1162.4	"/>
<!-- char 0x20 -->
<!-- char 0x4d -->
<polyline points="795.6,1144.3
	804.4,1157.9
	813.3,1144.3
	813.3,1162.4
	813.3,1144.3
	804.4,1157.9
	795.6,1144.3
	795.6,1162.4
	795.6,1144.3	"/>
<!-- char 0x48 -->
<polyline points="836.8,1162.4
	836.8,1144.3
	836.8,1162.4	"/>
<polyline points="836.8,1153.4
	819.1,1153.4
	836.8,1153.4	"/>
<polyline points="819.1,1144.3
	819.1,1162.4
	819.1,1144.3	"/>
<!-- char 0x7a -->
<polyline points="845.6,1151.1
	857.3,1151.1
	845.6,1162.4
	857.3,1162.4
	845.6,1162.4
	857.3,1151.1
	845.6,1151.1	"/>
<!-- char 0x92 -->
<!-- char 0x00 -->
<!-- char 0x53 -->
<polyline points="1165.8,1146.6
	1157.0,1144.3
	1148.2,1146.6
	1148.2,1151.1
	1159.9,1153.4
	1165.8,1155.6
	1165.8,1160.2
	1157.0,1162.4
	1148.2,1160.2	"/>
<!-- char 0x57 -->
<polyline points="1171.7,1144.3
	1174.6,1162.4
	1180.5,1148.9
	1186.4,1162.4
	1189.3,1144.3
	1186.4,1162.4
	1180.5,1148.9
	1174.6,1162.4
	1171.7,1144.3	"/>
<!-- char 0x50 -->
<polyline points="1195.2,1144.3
	1195.2,1162.4
	1195.2,1144.3
	1209.9,1144.3
	1212.8,1148.9
	1209.9,1153.4
	1195.2,1153.4	"/>
<!-- char 0x20 -->
<!-- char 0x32 -->
<polyline points="1242.2,1162.4
	1256.9,1162.4
	1242.2,1162.4
	1245.1,1155.6
	1254.0,1153.4
	1256.9,1148.9
	1254.0,1144.3
	1248.1,1144.3
	1242.2,1146.6	"/>
<!-- char 0x30 -->
<polyline points="1268.6,1160.2
	1277.5,1146.6	"/>
<polyline points="1280.4,1148.9
	1280.4,1157.9
	1277.5,1162.4
	1268.6,1162.4
	1265.7,1157.9
	1265.7,1148.9
	1268.6,1144.3
	1277.5,1144.3
	1280.4,1148.9	"/>
<!-- char 0x20 -->
<!-- char 0x6d -->
<polyline points="1312.7,1162.4
	1312.7,1151.1	"/>
<polyline points="1312.7,1153.4
	1318.6,1151.1
	1321.5,1155.6	"/>
<polyline points="1321.5,1162.4
	1321.5,1153.4
	1327.4,1151.1
	1330.3,1155.6
	1330.3,1162.4	"/>
<!-- char 0x73 -->
<polyline points="1350.9,1153.4
	1345.0,1151.1
	1339.2,1153.4
	1350.9,1160.2
	1339.2,1153.4	"/>
<polyline points="1350.9,1160.2
	1345.0,1162.4
	1339.2,1160.2	"/>
<!-- char 0x65 -->
<polyline points="1362.7,1155.6
	1374.4,1155.6
	1371.5,1151.1
	1365.6,1151.1
	1362.7,1155.6
	1362.7,1160.2
	1368.5,1162.4
	1374.4,1160.2	"/>
<!-- char 0x63 -->
<polyline points="1397.9,1153.4
	1392.0,1151.1
	1386.2,1153.4
	1386.2,1160.2
	1392.0,1162.4
	1397.9,1160.2	"/>
<!-- char 0x92 -->
<!-- char 0x00 -->
<!-- char 0x41 -->
<polyline points="516.5,73.1
	528.3,73.1
	516.5,73.1	"/>
<polyline points="513.6,77.6
	522.4,59.5
	531.2,77.6
	522.4,59.5
	513.6,77.6	"/>
<!-- char 0x54 -->
<polyline points="537.1,59.5
	554.7,59.5
	537.1,59.5	"/>
<polyline points="545.9,59.5
	545.9,77.6
	545.9,59.5	"/>
<!-- char 0x54 -->
<polyline points="560.6,59.5
	578.2,59.5
	560.6,59.5	"/>
<polyline points="569.4,59.5
	569.4,77.6
	569.4,59.5	"/>
<!-- char 0x45 -->
<polyline points="584.1,68.6
	598.8,68.6
	584.1,68.6	"/>
<polyline points="584.1,77.6
	584.1,59.5
	601.7,59.5
	584.1,59.5
	584.1,77.6
	601.7,77.6
	584.1,77.6	"/>
<!-- char 0x4e -->
<polyline points="607.6,77.6
	607.6,59.5
	625.2,77.6
	625.2,59.5
	625.2,77.6
	607.6,59.5
	607.6,77.6	"/>
<!-- char 0x20 -->
<!-- char 0x31 -->
<polyline points="657.5,61.8
	663.4,59.5
	663.4,77.6
	663.4,59.5	"/>
<polyline points="657.5,77.6
	669.3,77.6	"/>
<!-- char 0x30 -->
<polyline points="681.0,75.4
	689.9,61.8	"/>
<polyline points="692.8,64.1
	692.8,73.1
	689.9,77.6
	681.0,77.6
	678.1,73.1
	678.1,64.1
	681.0,59.5
	689.9,59.5
	692.8,64.1	"/>
<!-- char 0x20 -->
<!-- char 0x64 -->
<polyline points="739.8,77.6
	739.8,59.5
	739.8,77.6	"/>
<polyline points="739.8,75.4
	733.9,77.6
	728.1,75.4
	728.1,68.6
	733.9,66.3
	739.8,68.6	"/>
<!-- char 0x42 -->
<polyline points="760.4,77.6
	748.6,77.6
	748.6,59.5
	760.4,59.5
	766.3,64.1
	760.4,68.6
	748.6,68.6
	760.4,68.6
	766.3,73.1
	760.4,77.6
	748.6,77.6
	748.6,59.5
	760.4,59.5	"/>
<!-- char 0x92 -->
<!-- char 0x00 -->
<!-- char 0x52 -->
<polyline points="152.2,59.5
	137.5,59.5
	137.5,77.6
	137.5,59.5
	152.2,59.5
	155.1,64.1
	152.2,68.6
	137.5,68.6
	149.3,68.6
	155.1,77.6	"/>
<!-- char 0x45 -->
<polyline points="161.0,68.6
	175.7,68.6
	161.0,68.6	"/>
<polyline points="161.0,77.6
	161.0,59.5
	178.7,59.5
	161.0,59.5
	161.0,77.6
	178.7,77.6
	161.0,77.6	"/>
<!-- char 0x46 -->
<polyline points="184.5,68.6
	199.2,68.6
	184.5,68.6	"/>
<polyline points="184.5,77.6
	184.5,59.5
	202.2,59.5
	184.5,59.5
	184.5,77.6	"/>
<!-- char 0x20 -->
<!-- char 0x2e -->
<polyline points="237.4,75.4
	240.3,77.6	"/>
<polyline points="240.3,75.4
	237.4,77.6	"/>
<!-- char 0x30 -->
<polyline points="258.0,75.4
	266.8,61.8	"/>
<polyline points="269.7,64.1
	269.7,73.1
	266.8,77.6
	258.0,77.6
	255.0,73.1
	255.0,64.1
	258.0,59.5
	266.8,59.5
	269.7,64.1	"/>
<!-- char 0x20 -->
<!-- char 0x64 -->
<polyline points="316.7,77.6
	316.7,59.5
	316.7,77.6	"/>
<polyline points="316.7,75.4
	310.9,77.6
	305.0,75.4
	305.0,68.6
	310.9,66.3
	316.7,68.6	"/>
<!-- char 0x42 -->
<polyline points="337.3,77.6
	325.6,77.6
	325.6,59.5
	337.3,59.5
	343.2,64.1
	337.3,68.6
	325.6,68.6
	337.3,68.6
	343.2,73.1
	337.3,77.6
	325.6,77.6
	325.6,59.5
	337.3,59.5	"/>
<!-- char 0x6d -->
<polyline points="349.1,77.6
	349.1,66.3	"/>
<polyline points="349.1,68.6
	354.9,66.3
	357.9,70.8	"/>
<polyline points="357.9,77.6
	357.9,68.6
	363.7,66.3
	366.7,70.8
	366.7,77.6	"/>
<!-- char 0x92 -->
<!-- char 0x00 -->
<!-- char 0x08 -->
<!-- char 0x20 -->
<!-- char 0x31 -->
<polyline points="22.9,134.1
	28.8,131.9
	28.8,149.9
	28.8,131.9	"/>
<polyline points="22.9,149.9
	34.7,149.9	"/>
<!-- char 0x30 -->
<polyline points="46.4,147.7
	55.3,134.1	"/>
<polyline points="58.2,136.4
	58.2,145.4
	55.3,149.9
	46.4,149.9
	43.5,145.4
	43.5,136.4
	46.4,131.9
	55.3,131.9
	58.2,136.4	"/>
<!-- char 0x20 -->
<!-- char 0x64 -->
<polyline points="105.2,149.9
	105.2,131.9
	105.2,149.9	"/>
<polyline points="105.2,147.7
	99.3,149.9
	93.4,147.7
	93.4,140.9
	99.3,138.6
	105.2,140.9	"/>
<!-- char 0x42 -->
<polyline points="125.8,149.9
	114.0,149.9
	114.0,131.9
	125.8,131.9
	131.6,136.4
	125.8,140.9
	114.0,140.9
	125.8,140.9
	131.6,145.4
	125.8,149.9
	114.0,149.9
	114.0,131.9
	125.8,131.9	"/>
<!-- char 0x2f -->
<polyline points="137.5,149.9
	152.2,131.9
	137.5,149.9	"/>
<!-- char 0x91 -->
<!-- char 0x91 -->
<!-- char 0x00 -->
<!-- char 0x53 -->
<polyline points="37.6,1110.4
	28.8,1108.2
	20.0,1110.4
	20.0,1115.0
	31.8,1117.2
	37.6,1119.5
	37.6,1124.0
	28.8,1126.3
	20.0,1124.0	"/>
<!-- char 0x54 -->
<polyline points="43.5,1108.2
	61.1,1108.2
	43.5,1108.2	"/>
<polyline points="52.3,1108.2
	52.3,1126.3
	52.3,1108.2	"/>
<!-- char 0x41 -->
<polyline points="69.9,1121.7
	81.7,1121.7
	69.9,1121.7	"/>
<polyline points="67.0,1126.3
	75.8,1108.2
	84.6,1126.3
	75.8,1108.2
	67.0,1126.3	"/>
<!-- char 0x52 -->
<polyline points="105.2,1108.2
	90.5,1108.2
	90.5,1126.3
	90.5,1108.2
	105.2,1108.2
	108.1,1112.7
	105.2,1117.2
	90.5,1117.2
	102.3,1117.2
	108.1,1126.3	"/>
<!-- char 0x54 -->
<polyline points="114.0,1108.2
	131.6,1108.2
	114.0,1108.2	"/>
<polyline points="122.8,1108.2
	122.8,1126.3
	122.8,1108.2	"/>
<!-- char 0x20 -->
<!-- char 0x30 -->
<polyline points="164.0,1124.0
	172.8,1110.4	"/>
<polyline points="175.7,1112.7
	175.7,1121.7
	172.8,1126.3
	164.0,1126.3
	161.0,1121.7
	161.0,1112.7
	164.0,1108.2
	172.8,1108.2
	175.7,1112.7	"/>
<!-- char 0x20 -->
<!-- char 0x48 -->
<polyline points="225.7,1126.3
	225.7,1108.2
	225.7,1126.3	"/>
<polyline points="225.7,1117.2
	208.0,1117.2
	225.7,1117.2	"/>
<polyline points="208.0,1108.2
	208.0,1126.3
	208.0,1108.2	"/>
<!-- char 0x7a -->
<polyline points="234.5,1115.0
	246.2,1115.0
	234.5,1126.3
	246.2,1126.3
	234.5,1126.3
	246.2,1115.0
	234.5,1115.0	"/>
<!-- char 0x92 -->
<!-- char 0x00 -->
<!-- char 0x53 -->
<polyline points="1236.3,1110.4
	1227.5,1108.2
	1218.7,1110.4
	1218.7,1115.0
	1230.5,1117.2
	1236.3,1119.5
	1236.3,1124.0
	1227.5,1126.3
	1218.7,1124.0	"/>
<!-- char 0x54 -->
<polyline points="1242.2,1108.2
	1259.8,1108.2
	1242.2,1108.2	"/>
<polyline points="1251.0,1108.2
	1251.0,1126.3
	1251.0,1108.2	"/>
<!-- char 0x4f -->
<polyline points="1283.3,1124.0
	1283.3,1110.4
	1283.3,1124.0
	1274.5,1126.3
	1265.7,1124.0
	1265.7,1110.4
	1265.7,1124.0	"/>
<polyline points="1265.7,1110.4
	1274.5,1108.2
	1283.3,1110.4	"/>
<!-- char 0x50 -->
<polyline points="1289.2,1108.2
	1289.2,1126.3
	1289.2,1108.2
	1303.9,1108.2
	1306.8,1112.7
	1303.9,1117.2
	1289.2,1117.2	"/>
<!-- char 0x20 -->
<!-- char 0x31 -->
<polyline points="1339.2,1110.4
	1345.0,1108.2
	1345.0,1126.3
	1345.0,1108.2	"/>
<polyline points="1339.2,1126.3
	1350.9,1126.3	"/>
<!-- char 0x35 -->
<polyline points="1359.7,1108.2
	1374.4,1108.2
	1359.7,1108.2
	1359.7,1115.0
	1368.5,1115.0
	1374.4,1117.2
	1374.4,1121.7
	1371.5,1126.3
	1365.6,1126.3
	1359.7,1124.0	"/>
<!-- char 0x30 -->
<polyline points="1386.2,1124.0
	1395.0,1110.4	"/>
<polyline points="1397.9,1112.7
	1397.9,1121.7
	1395.0,1126.3
	1386.2,1126.3
	1383.2,1121.7
	1383.2,1112.7
	1386.2,1108.2
	1395.0,1108.2
	1397.9,1112.7	"/>
<!-- char 0x30 -->
<polyline points="1409.7,1124.0
	1418.5,1110.4	"/>
<polyline points="1421.4,1112.7
	1421.4,1121.7
	1418.5,1126.3
	1409.7,1126.3
	1406.7,1121.7
	1406.7,1112.7
	1409.7,1108.2
	1418.5,1108.2
	1421.4,1112.7	"/>
<!-- char 0x20 -->
<!-- char 0x4d -->
<polyline points="1453.7,1108.2
	1462.6,1121.7
	1471.4,1108.2
	1471.4,1126.3
	1471.4,1108.2
	1462.6,1121.7
	1453.7,1108.2
	1453.7,1126.3
	1453.7,1108.2	"/>
<!-- char 0x48 -->
<polyline points="1494.9,1126.3
	1494.9,1108.2
	1494.9,1126.3	"/>
<polyline points="1494.9,1117.2
	1477.2,1117.2
	1494.9,1117.2	"/>
<polyline points="1477.2,1108.2
	1477.2,1126.3
	1477.2,1108.2	"/>
<!-- char 0x7a -->
<polyline points="1503.7,1115.0
	1515.4,1115.0
	1503.7,1126.3
	1515.4,1126.3
	1503.7,1126.3
	1515.4,1115.0
	1503.7,1115.0	"/>
<!-- char 0x92 -->
<!-- char 0x92 -->
<!-- char 0x92 -->
<!-- char 0x92 -->
<!-- char 0x92 -->
<!-- char 0x92 -->
<!-- char 0x92 -->
<!-- char 0x92 -->
<!-- char 0x93 -->
<!-- char 0x91 -->
<!-- char 0x91 -->
<!-- char 0x91 -->
<!-- char 0x91 -->
<!-- char 0x00 -->
<!-- char 0x45 -->
<polyline points="1242.2,104.7
	1256.9,104.7
	1242.2,104.7	"/>
<polyline points="1242.2,113.8
	1242.2,95.7
	1259.8,95.7
	1242.2,95.7
	1242.2,113.8
	1259.8,113.8
	1242.2,113.8	"/>
<!-- char 0x58 -->
<polyline points="1265.7,113.8
	1283.3,95.7
	1265.7,113.8	"/>
<polyline points="1265.7,95.7
	1283.3,113.8
	1265.7,95.7	"/>
<!-- char 0x54 -->
<polyline points="1289.2,95.7
	1306.8,95.7
	1289.2,95.7	"/>
<polyline points="1298.0,95.7
	1298.0,113.8
	1298.0,95.7	"/>
<!-- char 0x20 -->
<!-- char 0x52 -->
<polyline points="1350.9,95.7
	1336.2,95.7
	1336.2,113.8
	1336.2,95.7
	1350.9,95.7
	1353.9,100.2
	1350.9,104.7
	1336.2,104.7
	1348.0,104.7
	1353.9,113.8	"/>
<!-- char 0x45 -->
<polyline points="1359.7,104.7
	1374.4,104.7
	1359.7,104.7	"/>
<polyline points="1359.7,113.8
	1359.7,95.7
	1377.4,95.7
	1359.7,95.7
	1359.7,113.8
	1377.4,113.8
	1359.7,113.8	"/>
<!-- char 0x46 -->
<polyline points="1383.2,104.7
	1397.9,104.7
	1383.2,104.7	"/>
<polyline points="1383.2,113.8
	1383.2,95.7
	1400.9,95.7
	1383.2,95.7
	1383.2,113.8	"/>
<!-- char 0x12 -->
<!-- char 0x00 -->
<!-- char 0x00 -->
<!-- char 0x00 -->
<!-- char 0x91 -->
<!-- char 0x91 -->
<!-- char 0x91 -->
<!-- char 0x93 -->
<!-- char 0x91 -->
<!-- char 0x91 -->
<!-- char 0x92 -->
<!-- char 0x44 -->
<polyline points="229.0,355.2
	229.0,380.0
	245.2,380.0
	253.2,373.8
	253.2,361.4
	245.2,355.2
	229.0,355.2
	229.0,380.0	"/>
<!-- char 0x53 -->
<polyline points="285.5,358.3
	273.4,355.2
	261.3,358.3
	261.3,364.5
	277.4,367.6
	285.5,370.7
	285.5,376.9
	273.4,380.0
	261.3,376.9	"/>
<!-- char 0x50 -->
<polyline points="293.5,355.2
	293.5,380.0
	293.5,355.2
	313.7,355.2
	317.7,361.4
	313.7,367.6
	293.5,367.6	"/>
<!-- char 0x4c -->
<polyline points="325.8,380.0
	325.8,355.2
	325.8,380.0
	345.9,380.0
	325.8,380.0	"/>
<!-- char 0x20 -->
<!-- char 0x41 -->
<polyline points="394.3,373.8
	410.4,373.8
	394.3,373.8	"/>
<polyline points="390.2,380.0
	402.3,355.2
	414.4,380.0
	402.3,355.2
	390.2,380.0	"/>
<!-- char 0x44 -->
<polyline points="422.5,355.2
	422.5,380.0
	438.6,380.0
	446.7,373.8
	446.7,361.4
	438.6,355.2
	422.5,355.2
	422.5,380.0	"/>
<!-- char 0x52 -->
<polyline points="474.9,355.2
	454.7,355.2
	454.7,380.0
	454.7,355.2
	474.9,355.2
	478.9,361.4
	474.9,367.6
	454.7,367.6
	470.8,367.6
	478.9,380.0	"/>
<!-- char 0x53 -->
<polyline points="511.1,358.3
	499.1,355.2
	487.0,358.3
	487.0,364.5
	503.1,367.6
	511.1,370.7
	511.1,376.9
	499.1,380.0
	487.0,376.9	"/>
<!-- char 0x0d -->
<!-- char 0x0a -->
<!-- char 0x20 -->
<!-- char 0x33 -->
<polyline points="229.0,426.5
	237.1,429.6
	245.2,429.6
	249.2,423.4
	245.2,417.2
	237.1,417.2	"/>
<polyline points="245.2,417.2
	249.2,411.0
	245.2,404.8
	237.1,404.8
	229.0,407.9	"/>
<!-- char 0x30 -->
<polyline points="265.3,426.5
	277.4,407.9	"/>
<polyline points="281.4,411.0
	281.4,423.4
	277.4,429.6
	265.3,429.6
	261.3,423.4
	261.3,411.0
	265.3,404.8
	277.4,404.8
	281.4,411.0	"/>
<!-- char 0x30 -->
<polyline points="297.6,426.5
	309.6,407.9	"/>
<polyline points="313.7,411.0
	313.7,423.4
	309.6,429.6
	297.6,429.6
	293.5,423.4
	293.5,411.0
	297.6,404.8
	309.6,404.8
	313.7,411.0	"/>
<!-- char 0x33 -->
<polyline points="325.8,426.5
	333.8,429.6
	341.9,429.6
	345.9,423.4
	341.9,417.2
	333.8,417.2	"/>
<polyline points="341.9,417.2
	345.9,411.0
	341.9,404.8
	333.8,404.8
	325.8,407.9	"/>
<!-- char 0x93 -->
<!-- char 0x2d -->
<polyline points="217.6,113.0
	233.2,113.0
	217.6,113.0	"/>
<!-- char 0x2e -->
<polyline points="243.6,119.0
	246.2,121.0	"/>
<polyline points="246.2,119.0
	243.6,121.0	"/>
<!-- char 0x30 -->
<polyline points="261.8,119.0
	269.6,107.0	"/>
<polyline points="272.2,109.0
	272.2,117.0
	269.6,121.0
	261.8,121.0
	259.2,117.0
	259.2,109.0
	261.8,105.0
	269.6,105.0
	272.2,109.0	"/>
<!-- char 0x38 -->
<polyline points="282.6,113.0
	290.4,113.0
	293.0,117.0
	290.4,121.0
	282.6,121.0
	280.0,117.0
	282.6,113.0
	280.0,109.0
	282.6,105.0
	290.4,105.0
	293.0,109.0
	290.4,113.0	"/>
<!-- char 0x20 -->
<!-- char 0x64 -->
<polyline points="334.6,121.0
	334.6,105.0
	334.6,121.0	"/>
<polyline points="334.6,119.0
	329.4,121.0
	324.2,119.0
	324.2,113.0
	329.4,111.0
	334.6,113.0	"/>
<!-- char 0x42 -->
<polyline points="352.8,121.0
	342.4,121.0
	342.4,105.0
	352.8,105.0
	358.0,109.0
	352.8,113.0
	342.4,113.0
	352.8,113.0
	358.0,117.0
	352.8,121.0
	342.4,121.0
	342.4,105.0
	352.8,105.0	"/>
<!-- char 0x0d -->
<!-- char 0x0a -->
<!-- char 0x20 -->
<!-- char 0x2d -->
<polyline points="217.6,145.0
	233.2,145.0
	217.6,145.0	"/>
<!-- char 0x31 -->
<polyline points="241.0,139.0
	246.2,137.0
	246.2,153.0
	246.2,137.0	"/>
<polyline points="241.0,153.0
	251.4,153.0	"/>
<!-- char 0x2e -->
<polyline points="264.4,151.0
	267.0,153.0	"/>
<polyline points="267.0,151.0
	264.4,153.0	"/>
<!-- char 0x31 -->
<polyline points="282.6,139.0
	287.8,137.0
	287.8,153.0
	287.8,137.0	"/>
<polyline points="282.6,153.0
	293.0,153.0	"/>
<!-- char 0x30 -->
<polyline points="303.4,151.0
	311.2,139.0	"/>
<polyline points="313.8,141.0
	313.8,149.0
	311.2,153.0
	303.4,153.0
	300.8,149.0
	300.8,141.0
	303.4,137.0
	311.2,137.0
	313.8,141.0	"/>
<!-- char 0x20 -->
<!-- char 0x64 -->
<polyline points="355.4,153.0
	355.4,137.0
	355.4,153.0	"/>
<polyline points="355.4,151.0
	350.2,153.0
	345.0,151.0
	345.0,145.0
	350.2,143.0
	355.4,145.0	"/>
<!-- char 0x42 -->
<polyline points="373.6,153.0
	363.2,153.0
	363.2,137.0
	373.6,137.0
	378.8,141.0
	373.6,145.0
	363.2,145.0
	373.6,145.0
	378.8,149.0
	373.6,153.0
	363.2,153.0
	363.2,137.0
	373.6,137.0	"/>
<!-- char 0x20 -->
<!-- char 0x20 -->
<!-- char 0x2d -->
<polyline points="425.6,145.0
	441.2,145.0
	425.6,145.0	"/>
<!-- char 0x39 -->
<polyline points="459.4,145.0
	449.0,145.0
	446.4,141.0
	449.0,137.0
	456.8,137.0
	459.4,141.0
	459.4,149.0
	456.8,153.0
	451.6,153.0
	446.4,151.0	"/>
<!-- char 0x20 -->
<!-- char 0x48 -->
<polyline points="503.6,153.0
	503.6,137.0
	503.6,153.0	"/>
<polyline points="503.6,145.0
	488.0,145.0
	503.6,145.0	"/>
<polyline points="488.0,137.0
	488.0,153.0
	488.0,137.0	"/>
<!-- char 0x7a -->
<polyline points="511.4,143.0
	521.8,143.0
	511.4,153.0
	521.8,153.0
	511.4,153.0
	521.8,143.0
	511.4,143.0	"/>
<!-- char 0x0d -->
<!-- char 0x0a -->
<!-- char 0x20 -->
<!-- char 0x2d -->
<polyline points="217.6,177.0
	233.2,177.0
	217.6,177.0	"/>
<!-- char 0x31 -->
<polyline points="241.0,171.0
	246.2,169.0
	246.2,185.0
	246.2,169.0	"/>
<polyline points="241.0,185.0
	251.4,185.0	"/>
<!-- char 0x2e -->
<polyline points="264.4,183.0
	267.0,185.0	"/>
<polyline points="267.0,183.0
	264.4,185.0	"/>
<!-- char 0x31 -->
<polyline points="282.6,171.0
	287.8,169.0
	287.8,185.0
	287.8,169.0	"/>
<polyline points="282.6,185.0
	293.0,185.0	"/>
<!-- char 0x31 -->
<polyline points="303.4,171.0
	308.6,169.0
	308.6,185.0
	308.6,169.0	"/>
<polyline points="303.4,185.0
	313.8,185.0	"/>
<!-- char 0x20 -->
<!-- char 0x64 -->
<polyline points="355.4,185.0
	355.4,169.0
	355.4,185.0	"/>
<polyline points="355.4,183.0
	350.2,185.0
	345.0,183.0
	345.0,177.0
	350.2,175.0
	355.4,177.0	"/>
<!-- char 0x42 -->
<polyline points="373.6,185.0
	363.2,185.0
	363.2,169.0
	373.6,169.0
	378.8,173.0
	373.6,177.0
	363.2,177.0
	373.6,177.0
	378.8,181.0
	373.6,185.0
	363.2,185.0
	363.2,169.0
	373.6,169.0	"/>
<!-- char 0x20 -->
<!-- char 0x20 -->
<!-- char 0x2d -->
<polyline points="425.6,177.0
	441.2,177.0
	425.6,177.0	"/>
<!-- char 0x31 -->
<polyline points="449.0,171.0
	454.2,169.0
	454.2,185.0
	454.2,169.0	"/>
<polyline points="449.0,185.0
	459.4,185.0	"/>
<!-- char 0x30 -->
<polyline points="469.8,183.0
	477.6,171.0	"/>
<polyline points="480.2,173.0
	480.2,181.0
	477.6,185.0
	469.8,185.0
	467.2,181.0
	467.2,173.0
	469.8,169.0
	477.6,169.0
	480.2,173.0	"/>
<!-- char 0x20 -->
<!-- char 0x48 -->
<polyline points="524.4,185.0
	524.4,169.0
	524.4,185.0	"/>
<polyline points="524.4,177.0
	508.8,177.0
	524.4,177.0	"/>
<polyline points="508.8,169.0
	508.8,185.0
	508.8,169.0	"/>
<!-- char 0x7a -->
<polyline points="532.2,175.0
	542.6,175.0
	532.2,185.0
	542.6,185.0
	532.2,185.0
	542.6,175.0
	532.2,175.0	"/>
<!-- char 0x0d -->
<!-- char 0x0a -->
<!-- char 0x20 -->
<!-- char 0x2d -->
<polyline points="217.6,209.0
	233.2,209.0
	217.6,209.0	"/>
<!-- char 0x31 -->
<polyline points="241.0,203.0
	246.2,201.0
	246.2,217.0
	246.2,201.0	"/>
<polyline points="241.0,217.0
	251.4,217.0	"/>
<!-- char 0x2e -->
<polyline points="264.4,215.0
	267.0,217.0	"/>
<polyline points="267.0,215.0
	264.4,217.0	"/>
<!-- char 0x31 -->
<polyline points="282.6,203.0
	287.8,201.0
	287.8,217.0
	287.8,201.0	"/>
<polyline points="282.6,217.0
	293.0,217.0	"/>
<!-- char 0x32 -->
<polyline points="300.8,217.0
	313.8,217.0
	300.8,217.0
	303.4,211.0
	311.2,209.0
	313.8,205.0
	311.2,201.0
	306.0,201.0
	300.8,203.0	"/>
<!-- char 0x20 -->
<!-- char 0x64 -->
<polyline points="355.4,217.0
	355.4,201.0
	355.4,217.0	"/>
<polyline points="355.4,215.0
	350.2,217.0
	345.0,215.0
	345.0,209.0
	350.2,207.0
	355.4,209.0	"/>
<!-- char 0x42 -->
<polyline points="373.6,217.0
	363.2,217.0
	363.2,201.0
	373.6,201.0
	378.8,205.0
	373.6,209.0
	363.2,209.0
	373.6,209.0
	378.8,213.0
	373.6,217.0
	363.2,217.0
	363.2,201.0
	373.6,201.0	"/>
<!-- char 0x20 -->
<!-- char 0x20 -->
<!-- char 0x2d -->
<polyline points="425.6,209.0
	441.2,209.0
	425.6,209.0	"/>
<!-- char 0x35 -->
<polyline points="446.4,201.0
	459.4,201.0
	446.4,201.0
	446.4,207.0
	454.2,207.0
	459.4,209.0
	459.4,213.0
	456.8,217.0
	451.6,217.0
	446.4,215.0	"/>
<!-- char 0x20 -->
<!-- char 0x48 -->
<polyline points="503.6,217.0
	503.6,201.0
	503.6,217.0	"/>
<polyline points="503.6,209.0
	488.0,209.0
	503.6,209.0	"/>
<polyline points="488.0,201.0
	488.0,217.0
	488.0,201.0	"/>
<!-- char 0x7a -->
<polyline points="511.4,207.0
	521.8,207.0
	511.4,217.0
	521.8,217.0
	511.4,217.0
	521.8,207.0
	511.4,207.0	"/>
<!-- char 0x0d -->
<!-- char 0x0a -->
<!-- char 0x20 -->
<!-- char 0x2d -->
<polyline points="217.6,241.0
	233.2,241.0
	217.6,241.0	"/>
<!-- char 0x31 -->
<polyline points="241.0,235.0
	246.2,233.0
	246.2,249.0
	246.2,233.0	"/>
<polyline points="241.0,249.0
	251.4,249.0	"/>
<!-- char 0x2e -->
<polyline points="264.4,247.0
	267.0,249.0	"/>
<polyline points="267.0,247.0
	264.4,249.0	"/>
<!-- char 0x31 -->
<polyline points="282.6,235.0
	287.8,233.0
	287.8,249.0
	287.8,233.0	"/>
<polyline points="282.6,249.0
	293.0,249.0	"/>
<!-- char 0x30 -->
<polyline points="303.4,247.0
	311.2,235.0	"/>
<polyline points="313.8,237.0
	313.8,245.0
	311.2,249.0
	303.4,249.0
	300.8,245.0
	300.8,237.0
	303.4,233.0
	311.2,233.0
	313.8,237.0	"/>
<!-- char 0x20 -->
<!-- char 0x64 -->
<polyline points="355.4,249.0
	355.4,233.0
	355.4,249.0	"/>
<polyline points="355.4,247.0
	350.2,249.0
	345.0,247.0
	345.0,241.0
	350.2,239.0
	355.4,241.0	"/>
<!-- char 0x42 -->
<polyline points="373.6,249.0
	363.2,249.0
	363.2,233.0
	373.6,233.0
	378.8,237.0
	373.6,241.0
	363.2,241.0
	373.6,241.0
	378.8,245.0
	373.6,249.0
	363.2,249.0
	363.2,233.0
	373.6,233.0	"/>
<!-- char 0x20 -->
<!-- char 0x20 -->
<!-- char 0x36 -->
<polyline points="425.6,241.0
	436.0,241.0
	438.6,245.0
	436.0,249.0
	428.2,249.0
	425.6,245.0
	425.6,237.0
	428.2,233.0
	433.4,233.0
	438.6,235.0	"/>
<!-- char 0x20 -->
<!-- char 0x48 -->
<polyline points="482.8,249.0
	482.8,233.0
	482.8,249.0	"/>
<polyline points="482.8,241.0
	467.2,241.0
	482.8,241.0	"/>
<polyline points="467.2,233.0
	467.2,249.0
	467.2,233.0	"/>
<!-- char 0x7a -->
<polyline points="490.6,239.0
	501.0,239.0
	490.6,249.0
	501.0,249.0
	490.6,249.0
	501.0,239.0
	490.6,239.0	"/>
<!-- char 0x0d -->
<!-- char 0x0a -->
<!-- char 0x20 -->
<!-- char 0x2d -->
<polyline points="217.6,273.0
	233.2,273.0
	217.6,273.0	"/>
<!-- char 0x31 -->
<polyline points="241.0,267.0
	246.2,265.0
	246.2,281.0
	246.2,265.0	"/>
<polyline points="241.0,281.0
	251.4,281.0	"/>
<!-- char 0x2e -->
<polyline points="264.4,279.0
	267.0,281.0	"/>
<polyline points="267.0,279.0
	264.4,281.0	"/>
<!-- char 0x31 -->
<polyline points="282.6,267.0
	287.8,265.0
	287.8,281.0
	287.8,265.0	"/>
<polyline points="282.6,281.0
	293.0,281.0	"/>
<!-- char 0x30 -->
<polyline points="303.4,279.0
	311.2,267.0	"/>
<polyline points="313.8,269.0
	313.8,277.0
	311.2,281.0
	303.4,281.0
	300.8,277.0
	300.8,269.0
	303.4,265.0
	311.2,265.0
	313.8,269.0	"/>
<!-- char 0x20 -->
<!-- char 0x64 -->
<polyline points="355.4,281.0
	355.4,265.0
	355.4,281.0	"/>
<polyline points="355.4,279.0
	350.2,281.0
	345.0,279.0
	345.0,273.0
	350.2,271.0
	355.4,273.0	"/>
<!-- char 0x42 -->
<polyline points="373.6,281.0
	363.2,281.0
	363.2,265.0
	373.6,265.0
	378.8,269.0
	373.6,273.0
	363.2,273.0
	373.6,273.0
	378.8,277.0
	373.6,281.0
	363.2,281.0
	363.2,265.0
	373.6,265.0	"/>
<!-- char 0x20 -->
<!-- char 0x20 -->
<!-- char 0x34 -->
<polyline points="436.0,281.0
	436.0,265.0
	425.6,277.0
	441.2,277.0
	425.6,277.0
	436.0,265.0
	436.0,281.0	"/>
<!-- char 0x35 -->
<polyline points="446.4,265.0
	459.4,265.0
	446.4,265.0
	446.4,271.0
	454.2,271.0
	459.4,273.0
	459.4,277.0
	456.8,281.0
	451.6,281.0
	446.4,279.0	"/>
<!-- char 0x20 -->
<!-- char 0x48 -->
<polyline points="503.6,281.0
	503.6,265.0
	503.6,281.0	"/>
<polyline points="503.6,273.0
	488.0,273.0
	503.6,273.0	"/>
<polyline points="488.0,265.0
	488.0,281.0
	488.0,265.0	"/>
<!-- char 0x7a -->
<polyline points="511.4,271.0
	521.8,271.0
	511.4,281.0
	521.8,281.0
	511.4,281.0
	521.8,271.0
	511.4,271.0	"/>
<!-- char 0x0d -->
<!-- char 0x0a -->
<!-- char 0x20 -->
<!-- char 0x2d -->
<polyline points="217.6,305.0
	233.2,305.0
	217.6,305.0	"/>
<!-- char 0x31 -->
<polyline points="241.0,299.0
	246.2,297.0
	246.2,313.0
	246.2,297.0	"/>
<polyline points="241.0,313.0
	251.4,313.0	"/>
<!-- char 0x2e -->
<polyline points="264.4,311.0
	267.0,313.0	"/>
<polyline points="267.0,311.0
	264.4,313.0	"/>
<!-- char 0x31 -->
<polyline points="282.6,299.0
	287.8,297.0
	287.8,313.0
	287.8,297.0	"/>
<polyline points="282.6,313.0
	293.0,313.0	"/>
<!-- char 0x33 -->
<polyline points="300.8,311.0
	306.0,313.0
	311.2,313.0
	313.8,309.0
	311.2,305.0
	306.0,305.0	"/>
<polyline points="311.2,305.0
	313.8,301.0
	311.2,297.0
	306.0,297.0
	300.8,299.0	"/>
<!-- char 0x20 -->
<!-- char 0x64 -->
<polyline points="355.4,313.0
	355.4,297.0
	355.4,313.0	"/>
<polyline points="355.4,311.0
	350.2,313.0
	345.0,311.0
	345.0,305.0
	350.2,303.0
	355.4,305.0	"/>
<!-- char 0x42 -->
<polyline points="373.6,313.0
	363.2,313.0
	363.2,297.0
	373.6,297.0
	378.8,301.0
	373.6,305.0
	363.2,305.0
	373.6,305.0
	378.8,309.0
	373.6,313.0
	363.2,313.0
	363.2,297.0
	373.6,297.0	"/>
<!-- char 0x20 -->
<!-- char 0x20 -->
<!-- char 0x2d -->
<polyline points="425.6,305.0
	441.2,305.0
	425.6,305.0	"/>
<!-- char 0x31 -->
<polyline points="449.0,299.0
	454.2,297.0
	454.2,313.0
	454.2,297.0	"/>
<polyline points="449.0,313.0
	459.4,313.0	"/>
<!-- char 0x37 -->
<polyline points="469.8,313.0
	480.2,297.0
	467.2,297.0
	480.2,297.0
	469.8,313.0	"/>
<!-- char 0x30 -->
<polyline points="490.6,311.0
	498.4,299.0	"/>
<polyline points="501.0,301.0
	501.0,309.0
	498.4,313.0
	490.6,313.0
	488.0,309.0
	488.0,301.0
	490.6,297.0
	498.4,297.0
	501.0,301.0	"/>
<!-- char 0x20 -->
<!-- char 0x48 -->
<polyline points="545.2,313.0
	545.2,297.0
	545.2,313.0	"/>
<polyline points="545.2,305.0
	529.6,305.0
	545.2,305.0	"/>
<polyline points="529.6,297.0
	529.6,313.0
	529.6,297.0	"/>
<!-- char 0x7a -->
<polyline points="553.0,303.0
	563.4,303.0
	553.0,313.0
	563.4,313.0
	553.0,313.0
	563.4,303.0
	553.0,303.0	"/>
<!-- char 0x0d -->
<!-- char 0x0a -->
<!-- char 0x20 -->
<!-- char 0x2d -->
<polyline points="217.6,337.0
	233.2,337.0
	217.6,337.0	"/>
<!-- char 0x31 -->
<polyline points="241.0,331.0
	246.2,329.0
	246.2,345.0
	246.2,329.0	"/>
<polyline points="241.0,345.0
	251.4,345.0	"/>
<!-- char 0x2e -->
<polyline points="264.4,343.0
	267.0,345.0	"/>
<polyline points="267.0,343.0
	264.4,345.0	"/>
<!-- char 0x31 -->
<polyline points="282.6,331.0
	287.8,329.0
	287.8,345.0
	287.8,329.0	"/>
<polyline points="282.6,345.0
	293.0,345.0	"/>
<!-- char 0x30 -->
<polyline points="303.4,343.0
	311.2,331.0	"/>
<polyline points="313.8,333.0
	313.8,341.0
	311.2,345.0
	303.4,345.0
	300.8,341.0
	300.8,333.0
	303.4,329.0
	311.2,329.0
	313.8,333.0	"/>
<!-- char 0x20 -->
<!-- char 0x64 -->
<polyline points="355.4,345.0
	355.4,329.0
	355.4,345.0	"/>
<polyline points="355.4,343.0
	350.2,345.0
	345.0,343.0
	345.0,337.0
	350.2,335.0
	355.4,337.0	"/>
<!-- char 0x42 -->
<polyline points="373.6,345.0
	363.2,345.0
	363.2,329.0
	373.6,329.0
	378.8,333.0
	373.6,337.0
	363.2,337.0
	373.6,337.0
	378.8,341.0
	373.6,345.0
	363.2,345.0
	363.2,329.0
	373.6,329.0	"/>
<!-- char 0x20 -->
<!-- char 0x20 -->
<!-- char 0x34 -->
<polyline points="436.0,345.0
	436.0,329.0
	425.6,341.0
	441.2,341.0
	425.6,341.0
	436.0,329.0
	436.0,345.0	"/>
<!-- char 0x30 -->
<polyline points="449.0,343.0
	456.8,331.0	"/>
<polyline points="459.4,333.0
	459.4,341.0
	456.8,345.0
	449.0,345.0
	446.4,341.0
	446.4,333.0
	449.0,329.0
	456.8,329.0
	459.4,333.0	"/>
<!-- char 0x30 -->
<polyline points="469.8,343.0
	477.6,331.0	"/>
<polyline points="480.2,333.0
	480.2,341.0
	477.6,345.0
	469.8,345.0
	467.2,341.0
	467.2,333.0
	469.8,329.0
	477.6,329.0
	480.2,333.0	"/>
<!-- char 0x20 -->
<!-- char 0x48 -->
<polyline points="524.4,345.0
	524.4,329.0
	524.4,345.0	"/>
<polyline points="524.4,337.0
	508.8,337.0
	524.4,337.0	"/>
<polyline points="508.8,329.0
	508.8,345.0
	508.8,329.0	"/>
<!-- char 0x7a -->
<polyline points="532.2,335.0
	542.6,335.0
	532.2,345.0
	542.6,345.0
	532.2,345.0
	542.6,335.0
	532.2,335.0	"/>
<!-- char 0x0d -->
<!-- char 0x0a -->
<!-- char 0x20 -->
<!-- char 0x2d -->
<polyline points="217.6,369.0
	233.2,369.0
	217.6,369.0	"/>
<!-- char 0x2e -->
<polyline points="243.6,375.0
	246.2,377.0	"/>
<polyline points="246.2,375.0
	243.6,377.0	"/>
<!-- char 0x38 -->
<polyline points="261.8,369.0
	269.6,369.0
	272.2,373.0
	269.6,377.0
	261.8,377.0
	259.2,373.0
	261.8,369.0
	259.2,365.0
	261.8,361.0
	269.6,361.0
	272.2,365.0
	269.6,369.0	"/>
<!-- char 0x35 -->
<polyline points="280.0,361.0
	293.0,361.0
	280.0,361.0
	280.0,367.0
	287.8,367.0
	293.0,369.0
	293.0,373.0
	290.4,377.0
	285.2,377.0
	280.0,375.0	"/>
<!-- char 0x20 -->
<!-- char 0x64 -->
<polyline points="334.6,377.0
	334.6,361.0
	334.6,377.0	"/>
<polyline points="334.6,375.0
	329.4,377.0
	324.2,375.0
	324.2,369.0
	329.4,367.0
	334.6,369.0	"/>
<!-- char 0x42 -->
<polyline points="352.8,377.0
	342.4,377.0
	342.4,361.0
	352.8,361.0
	358.0,365.0
	352.8,369.0
	342.4,369.0
	352.8,369.0
	358.0,373.0
	352.8,377.0
	342.4,377.0
	342.4,361.0
	352.8,361.0	"/>
<!-- char 0x20 -->
<!-- char 0x20 -->
<!-- char 0x33 -->
<polyline points="404.8,375.0
	410.0,377.0
	415.2,377.0
	417.8,373.0
	415.2,369.0
	410.0,369.0	"/>
<polyline points="415.2,369.0
	417.8,365.0
	415.2,361.0
	410.0,361.0
	404.8,363.0	"/>
<!-- char 0x2e -->
<polyline points="430.8,375.0
	433.4,377.0	"/>
<polyline points="433.4,375.0
	430.8,377.0	"/>
<!-- char 0x39 -->
<polyline points="459.4,369.0
	449.0,369.0
	446.4,365.0
	449.0,361.0
	456.8,361.0
	459.4,365.0
	459.4,373.0
	456.8,377.0
	451.6,377.0
	446.4,375.0	"/>
<!-- char 0x30 -->
<polyline points="469.8,375.0
	477.6,363.0	"/>
<polyline points="480.2,365.0
	480.2,373.0
	477.6,377.0
	469.8,377.0
	467.2,373.0
	467.2,365.0
	469.8,361.0
	477.6,361.0
	480.2,365.0	"/>
<!-- char 0x30 -->
<polyline points="490.6,375.0
	498.4,363.0	"/>
<polyline points="501.0,365.0
	501.0,373.0
	498.4,377.0
	490.6,377.0
	488.0,373.0
	488.0,365.0
	490.6,361.0
	498.4,361.0
	501.0,365.0	"/>
<!-- char 0x20 -->
<!-- char 0x6b -->
<polyline points="532.2,377.0
	532.2,361.0
	532.2,377.0	"/>
<polyline points="532.2,373.0
	540.0,367.0	"/>
<polyline points="537.4,371.0
	542.6,377.0	"/>
<!-- char 0x48 -->
<polyline points="566.0,377.0
	566.0,361.0
	566.0,377.0	"/>
<polyline points="566.0,369.0
	550.4,369.0
	566.0,369.0	"/>
<polyline points="550.4,361.0
	550.4,377.0
	550.4,361.0	"/>
<!-- char 0x7a -->
<polyline points="573.8,367.0
	584.2,367.0
	573.8,377.0
	584.2,377.0
	573.8,377.0
	584.2,367.0
	573.8,367.0	"/>
<!-- char 0x0d -->
<!-- char 0x0a -->
<!-- char 0x20 -->
<!-- char 0x2d -->
<polyline points="217.6,401.0
	233.2,401.0
	217.6,401.0	"/>
<!-- char 0x31 -->
<polyline points="241.0,395.0
	246.2,393.0
	246.2,409.0
	246.2,393.0	"/>
<polyline points="241.0,409.0
	251.4,409.0	"/>
<!-- char 0x2e -->
<polyline points="264.4,407.0
	267.0,409.0	"/>
<polyline points="267.0,407.0
	264.4,409.0	"/>
<!-- char 0x38 -->
<polyline points="282.6,401.0
	290.4,401.0
	293.0,405.0
	290.4,409.0
	282.6,409.0
	280.0,405.0
	282.6,401.0
	280.0,397.0
	282.6,393.0
	290.4,393.0
	293.0,397.0
	290.4,401.0	"/>
<!-- char 0x37 -->
<polyline points="303.4,409.0
	313.8,393.0
	300.8,393.0
	313.8,393.0
	303.4,409.0	"/>
<!-- char 0x20 -->
<!-- char 0x64 -->
<polyline points="355.4,409.0
	355.4,393.0
	355.4,409.0	"/>
<polyline points="355.4,407.0
	350.2,409.0
	345.0,407.0
	345.0,401.0
	350.2,399.0
	355.4,401.0	"/>
<!-- char 0x42 -->
<polyline points="373.6,409.0
	363.2,409.0
	363.2,393.0
	373.6,393.0
	378.8,397.0
	373.6,401.0
	363.2,401.0
	373.6,401.0
	378.8,405.0
	373.6,409.0
	363.2,409.0
	363.2,393.0
	373.6,393.0	"/>
<!-- char 0x20 -->
<!-- char 0x20 -->
<!-- char 0x2d -->
<polyline points="425.6,401.0
	441.2,401.0
	425.6,401.0	"/>
<!-- char 0x32 -->
<polyline points="446.4,409.0
	459.4,409.0
	446.4,409.0
	449.0,403.0
	456.8,401.0
	459.4,397.0
	456.8,393.0
	451.6,393.0
	446.4,395.0	"/>
<!-- char 0x35 -->
<polyline points="467.2,393.0
	480.2,393.0
	467.2,393.0
	467.2,399.0
	475.0,399.0
	480.2,401.0
	480.2,405.0
	477.6,409.0
	472.4,409.0
	467.2,407.0	"/>
<!-- char 0x2e -->
<polyline points="493.2,407.0
	495.8,409.0	"/>
<polyline points="495.8,407.0
	493.2,409.0	"/>
<!-- char 0x35 -->
<polyline points="508.8,393.0
	521.8,393.0
	508.8,393.0
	508.8,399.0
	516.6,399.0
	521.8,401.0
	521.8,405.0
	519.2,409.0
	514.0,409.0
	508.8,407.0	"/>
<!-- char 0x30 -->
<polyline points="532.2,407.0
	540.0,395.0	"/>
<polyline points="542.6,397.0
	542.6,405.0
	540.0,409.0
	532.2,409.0
	529.6,405.0
	529.6,397.0
	532.2,393.0
	540.0,393.0
	542.6,397.0	"/>
<!-- char 0x30 -->
<polyline points="553.0,407.0
	560.8,395.0	"/>
<polyline points="563.4,397.0
	563.4,405.0
	560.8,409.0
	553.0,409.0
	550.4,405.0
	550.4,397.0
	553.0,393.0
	560.8,393.0
	563.4,397.0	"/>
<!-- char 0x20 -->
<!-- char 0x6b -->
<polyline points="594.6,409.0
	594.6,393.0
	594.6,409.0	"/>
<polyline points="594.6,405.0
	602.4,399.0	"/>
<polyline points="599.8,403.0
	605.0,409.0	"/>
<!-- char 0x48 -->
<polyline points="628.4,409.0
	628.4,393.0
	628.4,409.0	"/>
<polyline points="628.4,401.0
	612.8,401.0
	628.4,401.0	"/>
<polyline points="612.8,393.0
	612.8,409.0
	612.8,393.0	"/>
<!-- char 0x7a -->
<polyline points="636.2,399.0
	646.6,399.0
	636.2,409.0
	646.6,409.0
	636.2,409.0
	646.6,399.0
	636.2,399.0	"/>
<!-- char 0x0d -->
<!-- char 0x0a -->
<!-- char 0x20 -->
<!-- char 0x2d -->
<polyline points="217.6,433.0
	233.2,433.0
	217.6,433.0	"/>
<!-- char 0x31 -->
<polyline points="241.0,427.0
	246.2,425.0
	246.2,441.0
	246.2,425.0	"/>
<polyline points="241.0,441.0
	251.4,441.0	"/>
<!-- char 0x2e -->
<polyline points="264.4,439.0
	267.0,441.0	"/>
<polyline points="267.0,439.0
	264.4,441.0	"/>
<!-- char 0x34 -->
<polyline points="290.4,441.0
	290.4,425.0
	280.0,437.0
	295.6,437.0
	280.0,437.0
	290.4,425.0
	290.4,441.0	"/>
<!-- char 0x31 -->
<polyline points="303.4,427.0
	308.6,425.0
	308.6,441.0
	308.6,425.0	"/>
<polyline points="303.4,441.0
	313.8,441.0	"/>
<!-- char 0x20 -->
<!-- char 0x64 -->
<polyline points="355.4,441.0
	355.4,425.0
	355.4,441.0	"/>
<polyline points="355.4,439.0
	350.2,441.0
	345.0,439.0
	345.0,433.0
	350.2,431.0
	355.4,433.0	"/>
<!-- char 0x42 -->
<polyline points="373.6,441.0
	363.2,441.0
	363.2,425.0
	373.6,425.0
	378.8,429.0
	373.6,433.0
	363.2,433.0
	373.6,433.0
	378.8,437.0
	373.6,441.0
	363.2,441.0
	363.2,425.0
	373.6,425.0	"/>
<!-- char 0x20 -->
<!-- char 0x20 -->
<!-- char 0x2d -->
<polyline points="425.6,433.0
	441.2,433.0
	425.6,433.0	"/>
<!-- char 0x32 -->
<polyline points="446.4,441.0
	459.4,441.0
	446.4,441.0
	449.0,435.0
	456.8,433.0
	459.4,429.0
	456.8,425.0
	451.6,425.0
	446.4,427.0	"/>
<!-- char 0x36 -->
<polyline points="467.2,433.0
	477.6,433.0
	480.2,437.0
	477.6,441.0
	469.8,441.0
	467.2,437.0
	467.2,429.0
	469.8,425.0
	475.0,425.0
	480.2,427.0	"/>
<!-- char 0x2e -->
<polyline points="493.2,439.0
	495.8,441.0	"/>
<polyline points="495.8,439.0
	493.2,441.0	"/>
<!-- char 0x30 -->
<polyline points="511.4,439.0
	519.2,427.0	"/>
<polyline points="521.8,429.0
	521.8,437.0
	519.2,441.0
	511.4,441.0
	508.8,437.0
	508.8,429.0
	511.4,425.0
	519.2,425.0
	521.8,429.0	"/>
<!-- char 0x30 -->
<polyline points="532.2,439.0
	540.0,427.0	"/>
<polyline points="542.6,429.0
	542.6,437.0
	540.0,441.0
	532.2,441.0
	529.6,437.0
	529.6,429.0
	532.2,425.0
	540.0,425.0
	542.6,429.0	"/>
<!-- char 0x30 -->
<polyline points="553.0,439.0
	560.8,427.0	"/>
<polyline points="563.4,429.0
	563.4,437.0
	560.8,441.0
	553.0,441.0
	550.4,437.0
	550.4,429.0
	553.0,425.0
	560.8,425.0
	563.4,429.0	"/>
<!-- char 0x20 -->
<!-- char 0x6b -->
<polyline points="594.6,441.0
	594.6,425.0
	594.6,441.0	"/>
<polyline points="594.6,437.0
	602.4,431.0	"/>
<polyline points="599.8,435.0
	605.0,441.0	"/>
<!-- char 0x48 -->
<polyline points="628.4,441.0
	628.4,425.0
	628.4,441.0	"/>
<polyline points="628.4,433.0
	612.8,433.0
	628.4,433.0	"/>
<polyline points="612.8,425.0
	612.8,441.0
	612.8,425.0	"/>
<!-- char 0x7a -->
<polyline points="636.2,431.0
	646.6,431.0
	636.2,441.0
	646.6,441.0
	636.2,441.0
	646.6,431.0
	636.2,431.0	"/>
<!-- char 0x0d -->
<!-- char 0x0a -->
<!-- char 0x20 -->
<!-- char 0x2d -->
<polyline points="217.6,465.0
	233.2,465.0
	217.6,465.0	"/>
<!-- char 0x31 -->
<polyline points="241.0,459.0
	246.2,457.0
	246.2,473.0
	246.2,457.0	"/>
<polyline points="241.0,473.0
	251.4,473.0	"/>
<!-- char 0x2e -->
<polyline points="264.4,471.0
	267.0,473.0	"/>
<polyline points="267.0,471.0
	264.4,473.0	"/>
<!-- char 0x31 -->
<polyline points="282.6,459.0
	287.8,457.0
	287.8,473.0
	287.8,457.0	"/>
<polyline points="282.6,473.0
	293.0,473.0	"/>
<!-- char 0x38 -->
<polyline points="303.4,465.0
	311.2,465.0
	313.8,469.0
	311.2,473.0
	303.4,473.0
	300.8,469.0
	303.4,465.0
	300.8,461.0
	303.4,457.0
	311.2,457.0
	313.8,461.0
	311.2,465.0	"/>
<!-- char 0x20 -->
<!-- char 0x64 -->
<polyline points="355.4,473.0
	355.4,457.0
	355.4,473.0	"/>
<polyline points="355.4,471.0
	350.2,473.0
	345.0,471.0
	345.0,465.0
	350.2,463.0
	355.4,465.0	"/>
<!-- char 0x42 -->
<polyline points="373.6,473.0
	363.2,473.0
	363.2,457.0
	373.6,457.0
	378.8,461.0
	373.6,465.0
	363.2,465.0
	373.6,465.0
	378.8,469.0
	373.6,473.0
	363.2,473.0
	363.2,457.0
	373.6,457.0	"/>
<!-- char 0x20 -->
<!-- char 0x20 -->
<!-- char 0x2d -->
<polyline points="425.6,465.0
	441.2,465.0
	425.6,465.0	"/>
<!-- char 0x33 -->
<polyline points="446.4,471.0
	451.6,473.0
	456.8,473.0
	459.4,469.0
	456.8,465.0
	451.6,465.0	"/>
<polyline points="456.8,465.0
	459.4,461.0
	456.8,457.0
	451.6,457.0
	446.4,459.0	"/>
<!-- char 0x35 -->
<polyline points="467.2,457.0
	480.2,457.0
	467.2,457.0
	467.2,463.0
	475.0,463.0
	480.2,465.0
	480.2,469.0
	477.6,473.0
	472.4,473.0
	467.2,471.0	"/>
<!-- char 0x2e -->
<polyline points="493.2,471.0
	495.8,473.0	"/>
<polyline points="495.8,471.0
	493.2,473.0	"/>
<!-- char 0x30 -->
<polyline points="511.4,471.0
	519.2,459.0	"/>
<polyline points="521.8,461.0
	521.8,469.0
	519.2,473.0
	511.4,473.0
	508.8,469.0
	508.8,461.0
	511.4,457.0
	519.2,457.0
	521.8,461.0	"/>
<!-- char 0x30 -->
<polyline points="532.2,471.0
	540.0,459.0	"/>
<polyline points="542.6,461.0
	542.6,469.0
	540.0,473.0
	532.2,473.0
	529.6,469.0
	529.6,461.0
	532.2,457.0
	540.0,457.0
	542.6,461.0	"/>
<!-- char 0x30 -->
<polyline points="553.0,471.0
	560.8,459.0	"/>
<polyline points="563.4,461.0
	563.4,469.0
	560.8,473.0
	553.0,473.0
	550.4,469.0
	550.4,461.0
	553.0,457.0
	560.8,457.0
	563.4,461.0	"/>
<!-- char 0x20 -->
<!-- char 0x6b -->
<polyline points="594.6,473.0
	594.6,457.0
	594.6,473.0	"/>
<polyline points="594.6,469.0
	602.4,463.0	"/>
<polyline points="599.8,467.0
	605.0,473.0	"/>
<!-- char 0x48 -->
<polyline points="628.4,473.0
	628.4,457.0
	628.4,473.0	"/>
<polyline points="628.4,465.0
	612.8,465.0
	628.4,465.0	"/>
<polyline points="612.8,457.0
	612.8,473.0
	612.8,457.0	"/>
<!-- char 0x7a -->
<polyline points="636.2,463.0
	646.6,463.0
	636.2,473.0
	646.6,473.0
	636.2,473.0
	646.6,463.0
	636.2,463.0	"/>
<!-- char 0x0d -->
<!-- char 0x0a -->
<!-- char 0x20 -->
<!-- char 0x2d -->
<polyline points="217.6,497.0
	233.2,497.0
	217.6,497.0	"/>
<!-- char 0x31 -->
<polyline points="241.0,491.0
	246.2,489.0
	246.2,505.0
	246.2,489.0	"/>
<polyline points="241.0,505.0
	251.4,505.0	"/>
<!-- char 0x2e -->
<polyline points="264.4,503.0
	267.0,505.0	"/>
<polyline points="267.0,503.0
	264.4,505.0	"/>
<!-- char 0x30 -->
<polyline points="282.6,503.0
	290.4,491.0	"/>
<polyline points="293.0,493.0
	293.0,501.0
	290.4,505.0
	282.6,505.0
	280.0,501.0
	280.0,493.0
	282.6,489.0
	290.4,489.0
	293.0,493.0	"/>
<!-- char 0x38 -->
<polyline points="303.4,497.0
	311.2,497.0
	313.8,501.0
	311.2,505.0
	303.4,505.0
	300.8,501.0
	303.4,497.0
	300.8,493.0
	303.4,489.0
	311.2,489.0
	313.8,493.0
	311.2,497.0	"/>
<!-- char 0x20 -->
<!-- char 0x64 -->
<polyline points="355.4,505.0
	355.4,489.0
	355.4,505.0	"/>
<polyline points="355.4,503.0
	350.2,505.0
	345.0,503.0
	345.0,497.0
	350.2,495.0
	355.4,497.0	"/>
<!-- char 0x42 -->
<polyline points="373.6,505.0
	363.2,505.0
	363.2,489.0
	373.6,489.0
	378.8,493.0
	373.6,497.0
	363.2,497.0
	373.6,497.0
	378.8,501.0
	373.6,505.0
	363.2,505.0
	363.2,489.0
	373.6,489.0	"/>
<!-- char 0x20 -->
<!-- char 0x20 -->
<!-- char 0x2d -->
<polyline points="425.6,497.0
	441.2,497.0
	425.6,497.0	"/>
<!-- char 0x32 -->
<polyline points="446.4,505.0
	459.4,505.0
	446.4,505.0
	449.0,499.0
	456.8,497.0
	459.4,493.0
	456.8,489.0
	451.6,489.0
	446.4,491.0	"/>
<!-- char 0x31 -->
<polyline points="469.8,491.0
	475.0,489.0
	475.0,505.0
	475.0,489.0	"/>
<polyline points="469.8,505.0
	480.2,505.0	"/>
<!-- char 0x30 -->
<polyline points="490.6,503.0
	498.4,491.0	"/>
<polyline points="501.0,493.0
	501.0,501.0
	498.4,505.0
	490.6,505.0
	488.0,501.0
	488.0,493.0
	490.6,489.0
	498.4,489.0
	501.0,493.0	"/>
<!-- char 0x2e -->
<polyline points="514.0,503.0
	516.6,505.0	"/>
<polyline points="516.6,503.0
	514.0,505.0	"/>
<!-- char 0x30 -->
<polyline points="532.2,503.0
	540.0,491.0	"/>
<polyline points="542.6,493.0
	542.6,501.0
	540.0,505.0
	532.2,505.0
	529.6,501.0
	529.6,493.0
	532.2,489.0
	540.0,489.0
	542.6,493.0	"/>
<!-- char 0x30 -->
<polyline points="553.0,503.0
	560.8,491.0	"/>
<polyline points="563.4,493.0
	563.4,501.0
	560.8,505.0
	553.0,505.0
	550.4,501.0
	550.4,493.0
	553.0,489.0
	560.8,489.0
	563.4,493.0	"/>
<!-- char 0x30 -->
<polyline points="573.8,503.0
	581.6,491.0	"/>
<polyline points="584.2,493.0
	584.2,501.0
	581.6,505.0
	573.8,505.0
	571.2,501.0
	571.2,493.0
	573.8,489.0
	581.6,489.0
	584.2,493.0	"/>
<!-- char 0x20 -->
<!-- char 0x6b -->
<polyline points="615.4,505.0
	615.4,489.0
	615.4,505.0	"/>
<polyline points="615.4,501.0
	623.2,495.0	"/>
<polyline points="620.6,499.0
	625.8,505.0	"/>
<!-- char 0x48 -->
<polyline points="649.2,505.0
	649.2,489.0
	649.2,505.0	"/>
<polyline points="649.2,497.0
	633.6,497.0
	649.2,497.0	"/>
<polyline points="633.6,489.0
	633.6,505.0
	633.6,489.0	"/>
<!-- char 0x7a -->
<polyline points="657.0,495.0
	667.4,495.0
	657.0,505.0
	667.4,505.0
	657.0,505.0
	667.4,495.0
	657.0,495.0	"/>
<!-- char 0x0d -->
<!-- char 0x0a -->
<!-- char 0x20 -->
<!-- char 0x2e -->
<polyline points="222.8,535.0
	225.4,537.0	"/>
<polyline points="225.4,535.0
	222.8,537.0	"/>
<!-- char 0x32 -->
<polyline points="238.4,537.0
	251.4,537.0
	238.4,537.0
	241.0,531.0
	248.8,529.0
	251.4,525.0
	248.8,521.0
	243.6,521.0
	238.4,523.0	"/>
<!-- char 0x31 -->
<polyline points="261.8,523.0
	267.0,521.0
	267.0,537.0
	267.0,521.0	"/>
<polyline points="261.8,537.0
	272.2,537.0	"/>
<!-- char 0x20 -->
<!-- char 0x64 -->
<polyline points="313.8,537.0
	313.8,521.0
	313.8,537.0	"/>
<polyline points="313.8,535.0
	308.6,537.0
	303.4,535.0
	303.4,529.0
	308.6,527.0
	313.8,529.0	"/>
<!-- char 0x42 -->
<polyline points="332.0,537.0
	321.6,537.0
	321.6,521.0
	332.0,521.0
	337.2,525.0
	332.0,529.0
	321.6,529.0
	332.0,529.0
	337.2,533.0
	332.0,537.0
	321.6,537.0
	321.6,521.0
	332.0,521.0	"/>
<!-- char 0x0d -->
<!-- char 0x0a -->
<!-- char 0x20 -->
<!-- char 0x2e -->
<polyline points="222.8,567.0
	225.4,569.0	"/>
<polyline points="225.4,567.0
	222.8,569.0	"/>
<!-- char 0x36 -->
<polyline points="238.4,561.0
	248.8,561.0
	251.4,565.0
	248.8,569.0
	241.0,569.0
	238.4,565.0
	238.4,557.0
	241.0,553.0
	246.2,553.0
	251.4,555.0	"/>
<!-- char 0x30 -->
<polyline points="261.8,567.0
	269.6,555.0	"/>
<polyline points="272.2,557.0
	272.2,565.0
	269.6,569.0
	261.8,569.0
	259.2,565.0
	259.2,557.0
	261.8,553.0
	269.6,553.0
	272.2,557.0	"/>
<!-- char 0x20 -->
<!-- char 0x64 -->
<polyline points="313.8,569.0
	313.8,553.0
	313.8,569.0	"/>
<polyline points="313.8,567.0
	308.6,569.0
	303.4,567.0
	303.4,561.0
	308.6,559.0
	313.8,561.0	"/>
<!-- char 0x42 -->
<polyline points="332.0,569.0
	321.6,569.0
	321.6,553.0
	332.0,553.0
	337.2,557.0
	332.0,561.0
	321.6,561.0
	332.0,561.0
	337.2,565.0
	332.0,569.0
	321.6,569.0
	321.6,553.0
	332.0,553.0	"/>
<!-- char 0x0d -->
<!-- char 0x0a -->
<!-- char 0x20 -->
<!-- char 0x2d -->
<polyline points="217.6,593.0
	233.2,593.0
	217.6,593.0	"/>
<!-- char 0x2e -->
<polyline points="243.6,599.0
	246.2,601.0	"/>
<polyline points="246.2,599.0
	243.6,601.0	"/>
<!-- char 0x34 -->
<polyline points="269.6,601.0
	269.6,585.0
	259.2,597.0
	274.8,597.0
	259.2,597.0
	269.6,585.0
	269.6,601.0	"/>
<!-- char 0x37 -->
<polyline points="282.6,601.0
	293.0,585.0
	280.0,585.0
	293.0,585.0
	282.6,601.0	"/>
<!-- char 0x20 -->
<!-- char 0x64 -->
<polyline points="334.6,601.0
	334.6,585.0
	334.6,601.0	"/>
<polyline points="334.6,599.0
	329.4,601.0
	324.2,599.0
	324.2,593.0
	329.4,591.0
	334.6,593.0	"/>
<!-- char 0x42 -->
<polyline points="352.8,601.0
	342.4,601.0
	342.4,585.0
	352.8,585.0
	358.0,589.0
	352.8,593.0
	342.4,593.0
	352.8,593.0
	358.0,597.0
	352.8,601.0
	342.4,601.0
	342.4,585.0
	352.8,585.0	"/>
<!-- char 0x0d -->
<!-- char 0x0a -->
<!-- char 0x20 -->
<!-- char 0x2d -->
<polyline points="217.6,625.0
	233.2,625.0
	217.6,625.0	"/>
<!-- char 0x2e -->
<polyline points="243.6,631.0
	246.2,633.0	"/>
<polyline points="246.2,631.0
	243.6,633.0	"/>
<!-- char 0x32 -->
<polyline points="259.2,633.0
	272.2,633.0
	259.2,633.0
	261.8,627.0
	269.6,625.0
	272.2,621.0
	269.6,617.0
	264.4,617.0
	259.2,619.0	"/>
<!-- char 0x34 -->
<polyline points="290.4,633.0
	290.4,617.0
	280.0,629.0
	295.6,629.0
	280.0,629.0
	290.4,617.0
	290.4,633.0	"/>
<!-- char 0x20 -->
<!-- char 0x64 -->
<polyline points="334.6,633.0
	334.6,617.0
	334.6,633.0	"/>
<polyline points="334.6,631.0
	329.4,633.0
	324.2,631.0
	324.2,625.0
	329.4,623.0
	334.6,625.0	"/>
<!-- char 0x42 -->
<polyline points="352.8,633.0
	342.4,633.0
	342.4,617.0
	352.8,617.0
	358.0,621.0
	352.8,625.0
	342.4,625.0
	352.8,625.0
	358.0,629.0
	352.8,633.0
	342.4,633.0
	342.4,617.0
	352.8,617.0	"/>
<!-- char 0x0d -->
<!-- char 0x0a -->
<!-- char 0x20 -->
<!-- char 0x2d -->
<polyline points="217.6,657.0
	233.2,657.0
	217.6,657.0	"/>
<!-- char 0x2e -->
<polyline points="243.6,663.0
	246.2,665.0	"/>
<polyline points="246.2,663.0
	243.6,665.0	"/>
<!-- char 0x33 -->
<polyline points="259.2,663.0
	264.4,665.0
	269.6,665.0
	272.2,661.0
	269.6,657.0
	264.4,657.0	"/>
<polyline points="269.6,657.0
	272.2,653.0
	269.6,649.0
	264.4,649.0
	259.2,651.0	"/>
<!-- char 0x30 -->
<polyline points="282.6,663.0
	290.4,651.0	"/>
<polyline points="293.0,653.0
	293.0,661.0
	290.4,665.0
	282.6,665.0
	280.0,661.0
	280.0,653.0
	282.6,649.0
	290.4,649.0
	293.0,653.0	"/>
<!-- char 0x20 -->
<!-- char 0x64 -->
<polyline points="334.6,665.0
	334.6,649.0
	334.6,665.0	"/>
<polyline points="334.6,663.0
	329.4,665.0
	324.2,663.0
	324.2,657.0
	329.4,655.0
	334.6,657.0	"/>
<!-- char 0x42 -->
<polyline points="352.8,665.0
	342.4,665.0
	342.4,649.0
	352.8,649.0
	358.0,653.0
	352.8,657.0
	342.4,657.0
	352.8,657.0
	358.0,661.0
	352.8,665.0
	342.4,665.0
	342.4,649.0
	352.8,649.0	"/>
<!-- char 0x0d -->
<!-- char 0x0a -->
<!-- char 0x20 -->
<!-- char 0x2e -->
<polyline points="222.8,695.0
	225.4,697.0	"/>
<polyline points="225.4,695.0
	222.8,697.0	"/>
<!-- char 0x30 -->
<polyline points="241.0,695.0
	248.8,683.0	"/>
<polyline points="251.4,685.0
	251.4,693.0
	248.8,697.0
	241.0,697.0
	238.4,693.0
	238.4,685.0
	241.0,681.0
	248.8,681.0
	251.4,685.0	"/>
<!-- char 0x37 -->
<polyline points="261.8,697.0
	272.2,681.0
	259.2,681.0
	272.2,681.0
	261.8,697.0	"/>
<!-- char 0x20 -->
<!-- char 0x64 -->
<polyline points="313.8,697.0
	313.8,681.0
	313.8,697.0	"/>
<polyline points="313.8,695.0
	308.6,697.0
	303.4,695.0
	303.4,689.0
	308.6,687.0
	313.8,689.0	"/>
<!-- char 0x42 -->
<polyline points="332.0,697.0
	321.6,697.0
	321.6,681.0
	332.0,681.0
	337.2,685.0
	332.0,689.0
	321.6,689.0
	332.0,689.0
	337.2,693.0
	332.0,697.0
	321.6,697.0
	321.6,681.0
	332.0,681.0	"/>
<!-- char 0x0d -->
<!-- char 0x0a -->
<!-- char 0x20 -->
<!-- char 0x2e -->
<polyline points="222.8,727.0
	225.4,729.0	"/>
<polyline points="225.4,727.0
	222.8,729.0	"/>
<!-- char 0x30 -->
<polyline points="241.0,727.0
	248.8,715.0	"/>
<polyline points="251.4,717.0
	251.4,725.0
	248.8,729.0
	241.0,729.0
	238.4,725.0
	238.4,717.0
	241.0,713.0
	248.8,713.0
	251.4,717.0	"/>
<!-- char 0x32 -->
<polyline points="259.2,729.0
	272.2,729.0
	259.2,729.0
	261.8,723.0
	269.6,721.0
	272.2,717.0
	269.6,713.0
	264.4,713.0
	259.2,715.0	"/>
<!-- char 0x20 -->
<!-- char 0x64 -->
<polyline points="313.8,729.0
	313.8,713.0
	313.8,729.0	"/>
<polyline points="313.8,727.0
	308.6,729.0
	303.4,727.0
	303.4,721.0
	308.6,719.0
	313.8,721.0	"/>
<!-- char 0x42 -->
<polyline points="332.0,729.0
	321.6,729.0
	321.6,713.0
	332.0,713.0
	337.2,717.0
	332.0,721.0
	321.6,721.0
	332.0,721.0
	337.2,725.0
	332.0,729.0
	321.6,729.0
	321.6,713.0
	332.0,713.0	"/>
<!-- char 0x0d -->
<!-- char 0x0a -->
<!-- char 0x20 -->
<!-- char 0x2e -->
<polyline points="222.8,759.0
	225.4,761.0	"/>
<polyline points="225.4,759.0
	222.8,761.0	"/>
<!-- char 0x30 -->
<polyline points="241.0,759.0
	248.8,747.0	"/>
<polyline points="251.4,749.0
	251.4,757.0
	248.8,761.0
	241.0,761.0
	238.4,757.0
	238.4,749.0
	241.0,745.0
	248.8,745.0
	251.4,749.0	"/>
<!-- char 0x35 -->
<polyline points="259.2,745.0
	272.2,745.0
	259.2,745.0
	259.2,751.0
	267.0,751.0
	272.2,753.0
	272.2,757.0
	269.6,761.0
	264.4,761.0
	259.2,759.0	"/>
<!-- char 0x20 -->
<!-- char 0x64 -->
<polyline points="313.8,761.0
	313.8,745.0
	313.8,761.0	"/>
<polyline points="313.8,759.0
	308.6,761.0
	303.4,759.0
	303.4,753.0
	308.6,751.0
	313.8,753.0	"/>
<!-- char 0x42 -->
<polyline points="332.0,761.0
	321.6,761.0
	321.6,745.0
	332.0,745.0
	337.2,749.0
	332.0,753.0
	321.6,753.0
	332.0,753.0
	337.2,757.0
	332.0,761.0
	321.6,761.0
	321.6,745.0
	332.0,745.0	"/>
<!-- char 0x0d -->
<!-- char 0x0a -->
<!-- char 0x20 -->
<!-- char 0x2d -->
<polyline points="217.6,785.0
	233.2,785.0
	217.6,785.0	"/>
<!-- char 0x2e -->
<polyline points="243.6,791.0
	246.2,793.0	"/>
<polyline points="246.2,791.0
	243.6,793.0	"/>
<!-- char 0x30 -->
<polyline points="261.8,791.0
	269.6,779.0	"/>
<polyline points="272.2,781.0
	272.2,789.0
	269.6,793.0
	261.8,793.0
	259.2,789.0
	259.2,781.0
	261.8,777.0
	269.6,777.0
	272.2,781.0	"/>
<!-- char 0x34 -->
<polyline points="290.4,793.0
	290.4,777.0
	280.0,789.0
	295.6,789.0
	280.0,789.0
	290.4,777.0
	290.4,793.0	"/>
<!-- char 0x20 -->
<!-- char 0x64 -->
<polyline points="334.6,793.0
	334.6,777.0
	334.6,793.0	"/>
<polyline points="334.6,791.0
	329.4,793.0
	324.2,791.0
	324.2,785.0
	329.4,783.0
	334.6,785.0	"/>
<!-- char 0x42 -->
<polyline points="352.8,793.0
	342.4,793.0
	342.4,777.0
	352.8,777.0
	358.0,781.0
	352.8,785.0
	342.4,785.0
	352.8,785.0
	358.0,789.0
	352.8,793.0
	342.4,793.0
	342.4,777.0
	352.8,777.0	"/>
<!-- char 0x0d -->
<!-- char 0x0a -->
<!-- char 0x20 -->
<!-- char 0x2e -->
<polyline points="222.8,823.0
	225.4,825.0	"/>
<polyline points="225.4,823.0
	222.8,825.0	"/>
<!-- char 0x30 -->
<polyline points="241.0,823.0
	248.8,811.0	"/>
<polyline points="251.4,813.0
	251.4,821.0
	248.8,825.0
	241.0,825.0
	238.4,821.0
	238.4,813.0
	241.0,809.0
	248.8,809.0
	251.4,813.0	"/>
<!-- char 0x38 -->
<polyline points="261.8,817.0
	269.6,817.0
	272.2,821.0
	269.6,825.0
	261.8,825.0
	259.2,821.0
	261.8,817.0
	259.2,813.0
	261.8,809.0
	269.6,809.0
	272.2,813.0
	269.6,817.0	"/>
<!-- char 0x20 -->
<!-- char 0x64 -->
<polyline points="313.8,825.0
	313.8,809.0
	313.8,825.0	"/>
<polyline points="313.8,823.0
	308.6,825.0
	303.4,823.0
	303.4,817.0
	308.6,815.0
	313.8,817.0	"/>
<!-- char 0x42 -->
<polyline points="332.0,825.0
	321.6,825.0
	321.6,809.0
	332.0,809.0
	337.2,813.0
	332.0,817.0
	321.6,817.0
	332.0,817.0
	337.2,821.0
	332.0,825.0
	321.6,825.0
	321.6,809.0
	332.0,809.0	"/>
<!-- char 0x0d -->
<!-- char 0x0a -->
<!-- char 0x20 -->
<!-- char 0x2e -->
<polyline points="222.8,855.0
	225.4,857.0	"/>
<polyline points="225.4,855.0
	222.8,857.0	"/>
<!-- char 0x30 -->
<polyline points="241.0,855.0
	248.8,843.0	"/>
<polyline points="251.4,845.0
	251.4,853.0
	248.8,857.0
	241.0,857.0
	238.4,853.0
	238.4,845.0
	241.0,841.0
	248.8,841.0
	251.4,845.0	"/>
<!-- char 0x33 -->
<polyline points="259.2,855.0
	264.4,857.0
	269.6,857.0
	272.2,853.0
	269.6,849.0
	264.4,849.0	"/>
<polyline points="269.6,849.0
	272.2,845.0
	269.6,841.0
	264.4,841.0
	259.2,843.0	"/>
<!-- char 0x20 -->
<!-- char 0x64 -->
<polyline points="313.8,857.0
	313.8,841.0
	313.8,857.0	"/>
<polyline points="313.8,855.0
	308.6,857.0
	303.4,855.0
	303.4,849.0
	308.6,847.0
	313.8,849.0	"/>
<!-- char 0x42 -->
<polyline points="332.0,857.0
	321.6,857.0
	321.6,841.0
	332.0,841.0
	337.2,845.0
	332.0,849.0
	321.6,849.0
	332.0,849.0
	337.2,853.0
	332.0,857.0
	321.6,857.0
	321.6,841.0
	332.0,841.0	"/>
<!-- char 0x0d -->
<!-- char 0x0a -->
<!-- char 0x20 -->
<!-- char 0x2e -->
<polyline points="222.8,887.0
	225.4,889.0	"/>
<polyline points="225.4,887.0
	222.8,889.0	"/>
<!-- char 0x30 -->
<polyline points="241.0,887.0
	248.8,875.0	"/>
<polyline points="251.4,877.0
	251.4,885.0
	248.8,889.0
	241.0,889.0
	238.4,885.0
	238.4,877.0
	241.0,873.0
	248.8,873.0
	251.4,877.0	"/>
<!-- char 0x32 -->
<polyline points="259.2,889.0
	272.2,889.0
	259.2,889.0
	261.8,883.0
	269.6,881.0
	272.2,877.0
	269.6,873.0
	264.4,873.0
	259.2,875.0	"/>
<!-- char 0x20 -->
<!-- char 0x64 -->
<polyline points="313.8,889.0
	313.8,873.0
	313.8,889.0	"/>
<polyline points="313.8,887.0
	308.6,889.0
	303.4,887.0
	303.4,881.0
	308.6,879.0
	313.8,881.0	"/>
<!-- char 0x42 -->
<polyline points="332.0,889.0
	321.6,889.0
	321.6,873.0
	332.0,873.0
	337.2,877.0
	332.0,881.0
	321.6,881.0
	332.0,881.0
	337.2,885.0
	332.0,889.0
	321.6,889.0
	321.6,873.0
	332.0,873.0	"/>
<!-- char 0x0d -->
<!-- char 0x0a -->
<!-- char 0x20 -->
<!-- char 0x2e -->
<polyline points="222.8,919.0
	225.4,921.0	"/>
<polyline points="225.4,919.0
	222.8,921.0	"/>
<!-- char 0x30 -->
<polyline points="241.0,919.0
	248.8,907.0	"/>
<polyline points="251.4,909.0
	251.4,917.0
	248.8,921.0
	241.0,921.0
	238.4,917.0
	238.4,909.0
	241.0,905.0
	248.8,905.0
	251.4,909.0	"/>
<!-- char 0x30 -->
<polyline points="261.8,919.0
	269.6,907.0	"/>
<polyline points="272.2,909.0
	272.2,917.0
	269.6,921.0
	261.8,921.0
	259.2,917.0
	259.2,909.0
	261.8,905.0
	269.6,905.0
	272.2,909.0	"/>
<!-- char 0x20 -->
<!-- char 0x64 -->
<polyline points="313.8,921.0
	313.8,905.0
	313.8,921.0	"/>
<polyline points="313.8,919.0
	308.6,921.0
	303.4,919.0
	303.4,913.0
	308.6,911.0
	313.8,913.0	"/>
<!-- char 0x42 -->
<polyline points="332.0,921.0
	321.6,921.0
	321.6,905.0
	332.0,905.0
	337.2,909.0
	332.0,913.0
	321.6,913.0
	332.0,913.0
	337.2,917.0
	332.0,921.0
	321.6,921.0
	321.6,905.0
	332.0,905.0	"/>
<!-- char 0x0d -->
<!-- char 0x0a -->
<!-- char 0x20 -->
<!-- char 0x2d -->
<polyline points="217.6,945.0
	233.2,945.0
	217.6,945.0	"/>
<!-- char 0x2e -->
<polyline points="243.6,951.0
	246.2,953.0	"/>
<polyline points="246.2,951.0
	243.6,953.0	"/>
<!-- char 0x30 -->
<polyline points="261.8,951.0
	269.6,939.0	"/>
<polyline points="272.2,941.0
	272.2,949.0
	269.6,953.0
	261.8,953.0
	259.2,949.0
	259.2,941.0
	261.8,937.0
	269.6,937.0
	272.2,941.0	"/>
<!-- char 0x32 -->
<polyline points="280.0,953.0
	293.0,953.0
	280.0,953.0
	282.6,947.0
	290.4,945.0
	293.0,941.0
	290.4,937.0
	285.2,937.0
	280.0,939.0	"/>
<!-- char 0x20 -->
<!-- char 0x64 -->
<polyline points="334.6,953.0
	334.6,937.0
	334.6,953.0	"/>
<polyline points="334.6,951.0
	329.4,953.0
	324.2,951.0
	324.2,945.0
	329.4,943.0
	334.6,945.0	"/>
<!-- char 0x42 -->
<polyline points="352.8,953.0
	342.4,953.0
	342.4,937.0
	352.8,937.0
	358.0,941.0
	352.8,945.0
	342.4,945.0
	352.8,945.0
	358.0,949.0
	352.8,953.0
	342.4,953.0
	342.4,937.0
	352.8,937.0	"/>
<!-- char 0x0d -->
<!-- char 0x0a -->
<!-- char 0x20 -->
<!-- char 0x2d -->
<polyline points="217.6,977.0
	233.2,977.0
	217.6,977.0	"/>
<!-- char 0x2e -->
<polyline points="243.6,983.0
	246.2,985.0	"/>
<polyline points="246.2,983.0
	243.6,985.0	"/>
<!-- char 0x30 -->
<polyline points="261.8,983.0
	269.6,971.0	"/>
<polyline points="272.2,973.0
	272.2,981.0
	269.6,985.0
	261.8,985.0
	259.2,981.0
	259.2,973.0
	261.8,969.0
	269.6,969.0
	272.2,973.0	"/>
<!-- char 0x36 -->
<polyline points="280.0,977.0
	290.4,977.0
	293.0,981.0
	290.4,985.0
	282.6,985.0
	280.0,981.0
	280.0,973.0
	282.6,969.0
	287.8,969.0
	293.0,971.0	"/>
<!-- char 0x20 -->
<!-- char 0x64 -->
<polyline points="334.6,985.0
	334.6,969.0
	334.6,985.0	"/>
<polyline points="334.6,983.0
	329.4,985.0
	324.2,983.0
	324.2,977.0
	329.4,975.0
	334.6,977.0	"/>
<!-- char 0x42 -->
<polyline points="352.8,985.0
	342.4,985.0
	342.4,969.0
	352.8,969.0
	358.0,973.0
	352.8,977.0
	342.4,977.0
	352.8,977.0
	358.0,981.0
	352.8,985.0
	342.4,985.0
	342.4,969.0
	352.8,969.0	"/>
<!-- char 0x0d -->
<!-- char 0x0a -->
<!-- char 0x20 -->
<!-- char 0x2d -->
<polyline points="217.6,1009.0
	233.2,1009.0
	217.6,1009.0	"/>
<!-- char 0x2e -->
<polyline points="243.6,1015.0
	246.2,1017.0	"/>
<polyline points="246.2,1015.0
	243.6,1017.0	"/>
<!-- char 0x31 -->
<polyline points="261.8,1003.0
	267.0,1001.0
	267.0,1017.0
	267.0,1001.0	"/>
<polyline points="261.8,1017.0
	272.2,1017.0	"/>
<!-- char 0x36 -->
<polyline points="280.0,1009.0
	290.4,1009.0
	293.0,1013.0
	290.4,1017.0
	282.6,1017.0
	280.0,1013.0
	280.0,1005.0
	282.6,1001.0
	287.8,1001.0
	293.0,1003.0	"/>
<!-- char 0x20 -->
<!-- char 0x64 -->
<polyline points="334.6,1017.0
	334.6,1001.0
	334.6,1017.0	"/>
<polyline points="334.6,1015.0
	329.4,1017.0
	324.2,1015.0
	324.2,1009.0
	329.4,1007.0
	334.6,1009.0	"/>
<!-- char 0x42 -->
<polyline points="352.8,1017.0
	342.4,1017.0
	342.4,1001.0
	352.8,1001.0
	358.0,1005.0
	352.8,1009.0
	342.4,1009.0
	352.8,1009.0
	358.0,1013.0
	352.8,1017.0
	342.4,1017.0
	342.4,1001.0
	352.8,1001.0	"/>
<!-- char 0x0d -->
<!-- char 0x0a -->
<!-- char 0x20 -->
<!-- char 0x2e -->
<polyline points="222.8,1047.0
	225.4,1049.0	"/>
<polyline points="225.4,1047.0
	222.8,1049.0	"/>
<!-- char 0x30 -->
<polyline points="241.0,1047.0
	248.8,1035.0	"/>
<polyline points="251.4,1037.0
	251.4,1045.0
	248.8,1049.0
	241.0,1049.0
	238.4,1045.0
	238.4,1037.0
	241.0,1033.0
	248.8,1033.0
	251.4,1037.0	"/>
<!-- char 0x30 -->
<polyline points="261.8,1047.0
	269.6,1035.0	"/>
<polyline points="272.2,1037.0
	272.2,1045.0
	269.6,1049.0
	261.8,1049.0
	259.2,1045.0
	259.2,1037.0
	261.8,1033.0
	269.6,1033.0
	272.2,1037.0	"/>
<!-- char 0x20 -->
<!-- char 0x64 -->
<polyline points="313.8,1049.0
	313.8,1033.0
	313.8,1049.0	"/>
<polyline points="313.8,1047.0
	308.6,1049.0
	303.4,1047.0
	303.4,1041.0
	308.6,1039.0
	313.8,1041.0	"/>
<!-- char 0x42 -->
<polyline points="332.0,1049.0
	321.6,1049.0
	321.6,1033.0
	332.0,1033.0
	337.2,1037.0
	332.0,1041.0
	321.6,1041.0
	332.0,1041.0
	337.2,1045.0
	332.0,1049.0
	321.6,1049.0
	321.6,1033.0
	332.0,1033.0	"/>
<!-- char 0x20 -->
<!-- char 0x2e -->
<polyline points="368.4,1047.0
	371.0,1049.0	"/>
<polyline points="371.0,1047.0
	368.4,1049.0	"/>
<!-- char 0x30 -->
<polyline points="386.6,1047.0
	394.4,1035.0	"/>
<polyline points="397.0,1037.0
	397.0,1045.0
	394.4,1049.0
	386.6,1049.0
	384.0,1045.0
	384.0,1037.0
	386.6,1033.0
	394.4,1033.0
	397.0,1037.0	"/>
<!-- char 0x36 -->
<polyline points="404.8,1041.0
	415.2,1041.0
	417.8,1045.0
	415.2,1049.0
	407.4,1049.0
	404.8,1045.0
	404.8,1037.0
	407.4,1033.0
	412.6,1033.0
	417.8,1035.0	"/>
<!-- char 0x20 -->
<!-- char 0x64 -->
<polyline points="459.4,1049.0
	459.4,1033.0
	459.4,1049.0	"/>
<polyline points="459.4,1047.0
	454.2,1049.0
	449.0,1047.0
	449.0,1041.0
	454.2,1039.0
	459.4,1041.0	"/>
<!-- char 0x42 -->
<polyline points="477.6,1049.0
	467.2,1049.0
	467.2,1033.0
	477.6,1033.0
	482.8,1037.0
	477.6,1041.0
	467.2,1041.0
	477.6,1041.0
	482.8,1045.0
	477.6,1049.0
	467.2,1049.0
	467.2,1033.0
	477.6,1033.0	"/>
<!-- char 0x20 -->
<!-- char 0x2e -->
<polyline points="514.0,1047.0
	516.6,1049.0	"/>
<polyline points="516.6,1047.0
	514.0,1049.0	"/>
<!-- char 0x32 -->
<polyline points="529.6,1049.0
	542.6,1049.0
	529.6,1049.0
	532.2,1043.0
	540.0,1041.0
	542.6,1037.0
	540.0,1033.0
	534.8,1033.0
	529.6,1035.0	"/>
<!-- char 0x32 -->
<polyline points="550.4,1049.0
	563.4,1049.0
	550.4,1049.0
	553.0,1043.0
	560.8,1041.0
	563.4,1037.0
	560.8,1033.0
	555.6,1033.0
	550.4,1035.0	"/>
<!-- char 0x20 -->
<!-- char 0x64 -->
<polyline points="605.0,1049.0
	605.0,1033.0
	605.0,1049.0	"/>
<polyline points="605.0,1047.0
	599.8,1049.0
	594.6,1047.0
	594.6,1041.0
	599.8,1039.0
	605.0,1041.0	"/>
<!-- char 0x42 -->
<polyline points="623.2,1049.0
	612.8,1049.0
	612.8,1033.0
	623.2,1033.0
	628.4,1037.0
	623.2,1041.0
	612.8,1041.0
	623.2,1041.0
	628.4,1045.0
	623.2,1049.0
	612.8,1049.0
	612.8,1033.0
	623.2,1033.0	"/>
<!-- char 0x20 -->
<!-- char 0x2e -->
<polyline points="659.6,1047.0
	662.2,1049.0	"/>
<polyline points="662.2,1047.0
	659.6,1049.0	"/>
<!-- char 0x33 -->
<polyline points="675.2,1047.0
	680.4,1049.0
	685.6,1049.0
	688.2,1045.0
	685.6,1041.0
	680.4,1041.0	"/>
<polyline points="685.6,1041.0
	688.2,1037.0
	685.6,1033.0
	680.4,1033.0
	675.2,1035.0	"/>
<!-- char 0x30 -->
<polyline points="698.6,1047.0
	706.4,1035.0	"/>
<polyline points="709.0,1037.0
	709.0,1045.0
	706.4,1049.0
	698.6,1049.0
	696.0,1045.0
	696.0,1037.0
	698.6,1033.0
	706.4,1033.0
	709.0,1037.0	"/>
<!-- char 0x20 -->
<!-- char 0x64 -->
<polyline points="750.6,1049.0
	750.6,1033.0
	750.6,1049.0	"/>
<polyline points="750.6,1047.0
	745.4,1049.0
	740.2,1047.0
	740.2,1041.0
	745.4,1039.0
	750.6,1041.0	"/>
<!-- char 0x42 -->
<polyline points="768.8,1049.0
	758.4,1049.0
	758.4,1033.0
	768.8,1033.0
	774.0,1037.0
	768.8,1041.0
	758.4,1041.0
	768.8,1041.0
	774.0,1045.0
	768.8,1049.0
	758.4,1049.0
	758.4,1033.0
	768.8,1033.0	"/>
<!-- char 0x20 -->
<!-- char 0x2e -->
<polyline points="805.2,1047.0
	807.8,1049.0	"/>
<polyline points="807.8,1047.0
	805.2,1049.0	"/>
<!-- char 0x32 -->
<polyline points="820.8,1049.0
	833.8,1049.0
	820.8,1049.0
	823.4,1043.0
	831.2,1041.0
	833.8,1037.0
	831.2,1033.0
	826.0,1033.0
	820.8,1035.0	"/>
<!-- char 0x38 -->
<polyline points="844.2,1041.0
	852.0,1041.0
	854.6,1045.0
	852.0,1049.0
	844.2,1049.0
	841.6,1045.0
	844.2,1041.0
	841.6,1037.0
	844.2,1033.0
	852.0,1033.0
	854.6,1037.0
	852.0,1041.0	"/>
<!-- char 0x20 -->
<!-- char 0x64 -->
<polyline points="896.2,1049.0
	896.2,1033.0
	896.2,1049.0	"/>
<polyline points="896.2,1047.0
	891.0,1049.0
	885.8,1047.0
	885.8,1041.0
	891.0,1039.0
	896.2,1041.0	"/>
<!-- char 0x42 -->
<polyline points="914.4,1049.0
	904.0,1049.0
	904.0,1033.0
	914.4,1033.0
	919.6,1037.0
	914.4,1041.0
	904.0,1041.0
	914.4,1041.0
	919.6,1045.0
	914.4,1049.0
	904.0,1049.0
	904.0,1033.0
	914.4,1033.0	"/>
<!-- char 0x20 -->
<!-- char 0x2e -->
<polyline points="950.8,1047.0
	953.4,1049.0	"/>
<polyline points="953.4,1047.0
	950.8,1049.0	"/>
<!-- char 0x33 -->
<polyline points="966.4,1047.0
	971.6,1049.0
	976.8,1049.0
	979.4,1045.0
	976.8,1041.0
	971.6,1041.0	"/>
<polyline points="976.8,1041.0
	979.4,1037.0
	976.8,1033.0
	971.6,1033.0
	966.4,1035.0	"/>
<!-- char 0x36 -->
<polyline points="987.2,1041.0
	997.6,1041.0
	1000.2,1045.0
	997.6,1049.0
	989.8,1049.0
	987.2,1045.0
	987.2,1037.0
	989.8,1033.0
	995.0,1033.0
	1000.2,1035.0	"/>
<!-- char 0x20 -->
<!-- char 0x64 -->
<polyline points="1041.8,1049.0
	1041.8,1033.0
	1041.8,1049.0	"/>
<polyline points="1041.8,1047.0
	1036.6,1049.0
	1031.4,1047.0
	1031.4,1041.0
	1036.6,1039.0
	1041.8,1041.0	"/>
<!-- char 0x42 -->
<polyline points="1060.0,1049.0
	1049.6,1049.0
	1049.6,1033.0
	1060.0,1033.0
	1065.2,1037.0
	1060.0,1041.0
	1049.6,1041.0
	1060.0,1041.0
	1065.2,1045.0
	1060.0,1049.0
	1049.6,1049.0
	1049.6,1033.0
	1060.0,1033.0	"/>
<!-- char 0x20 -->
</g>
</g>
</svg>
