<?xml version="1.0" standalone="no"?>
<!DOCTYPE svg PUBLIC "-//W3C//DTD SVG 1.1//EN"
	"http://www.w3.org/Graphics/SVG/1.1/DTD/svg11.dtd">
<svg version="1.1"
	viewBox="0.0 0.0 1542.8 1196.0"
	width="6in" height="4.5in"
	xmlns="http://www.w3.org/2000/svg">
<rect x="0.0" y="0.0" width="1542.8" height="1196.0" fill="white"/>
<g stroke-linecap="round"
	 stroke-linejoin="round" fill="none">
<g stroke-width="3.0" stroke="black">
<polyline points="196.8,1093.0
	1526.7,1093.0
	1526.7,70.0
	196.8,70.0
	196.8,1093.0	"/>
<polyline points="196.8,1093.0
	1496.8,1093.0
	1496.8,93.0
	196.8,93.0
	196.8,1093.0	"/>
<polyline points="820.8,593.0
	872.8,593.0
	820.8,593.0	"/>
<polyline points="846.8,613.0
	846.8,573.0
	846.8,613.0	"/>
<polyline points="20.0,1176.0
	1522.8,1176.0
	1522.8,20.0
	20.0,20.0
	20.0,1176.0	"/>
<polyline points="181.6,1104.8
	211.0,1082.2	"/>
<polyline points="211.0,1104.8
	181.6,1082.2	"/>
<polyline points="832.4,604.2
	861.7,581.6	"/>
<polyline points="861.7,604.2
	832.4,581.6	"/>
<polyline points="1481.7,104.7
	1511.0,82.1	"/>
<polyline points="1511.0,104.7
	1481.7,82.1	"/>
<polyline points="196.8,1093.0
	1526.7,1093.0
	1526.7,70.0
	196.8,70.0
	196.8,1093.0	"/>
<polyline points="1506.5,101.0
	1546.9,39.0	"/>
<polyline points="1546.9,101.0
	1506.5,39.0	"/>
<polyline points="827.5,623.3
	867.8,561.3	"/>
<polyline points="867.8,623.3
	827.5,561.3	"/>
<polyline points="1476.3,124.2
	1516.6,62.2	"/>
<polyline points="1516.6,124.2
	1476.3,62.2	"/>
<polyline points="20.0,1176.0
	1527.0,1176.0
	1527.0,70.5
	20.0,70.5
	20.0,1176.0	"/>
<polyline points="175.1,1110.5
	218.7,1076.9	"/>
<polyline points="218.7,1110.5
	175.1,1076.9	"/>
<polyline points="804.1,609.8
	891.4,576.2	"/>
<polyline points="891.4,609.8
	804.1,576.2	"/>
<polyline points="1452.7,109.2
	1540.1,75.6	"/>
<polyline points="1540.1,109.2
	1452.7,75.6	"/>
<!-- char 0x20 -->
<!-- char 0x20 -->
<!-- char 0x20 -->
<!-- char 0x20 -->
<!-- char 0x20 -->
<!-- char 0x20 -->
<!-- char 0x20 -->
<!-- char 0x20 -->
<!-- char 0x30 -->
<polyline points="458.8,277.7
	470.8,259.1	"/>
<polyline points="474.9,262.2
	474.9,274.6
	470.8,280.8
	458.8,280.8
	454.7,274.6
	454.7,262.2
	458.8,256.0
	470.8,256.0
	474.9,262.2	"/>
<!-- char 0x20 -->
<!-- char 0x40 -->
<polyline points="535.3,280.8
	527.3,280.8
	519.2,274.6
	519.2,262.2
	527.3,256.0
	535.3,256.0
	543.4,262.2
	543.4,271.5
	539.4,277.7
	535.3,262.2
	527.3,265.3
	527.3,274.6
	535.3,274.6	"/>
<!-- char 0x20 -->
<!-- char 0x50 -->
<polyline points="583.7,256.0
	583.7,280.8
	583.7,256.0
	603.8,256.0
	607.9,262.2
	603.8,268.4
	583.7,268.4	"/>
<!-- char 0x20 -->
<!-- char 0x60 -->
<polyline points="660.2,252.9
	664.3,259.1	"/>
<!-- char 0x20 -->
<!-- char 0x70 -->
<polyline points="716.7,290.1
	716.7,265.3
	716.7,290.1	"/>
<polyline points="716.7,277.7
	724.7,280.8
	732.8,277.7
	732.8,268.4
	724.7,265.3
	716.7,268.4	"/>
<!-- char 0x20 -->
<!-- char 0x20 -->
<!-- char 0x20 -->
<!-- char 0x20 -->
<!-- char 0x20 -->
<!-- char 0x20 -->
</g><g stroke-width="3.0" stroke="blue">
<!-- char 0x80 -->
<polyline points="938.3,299.4
	950.4,265.3
	942.4,268.4	"/>
<!-- char 0x20 -->
</g><g stroke-width="3.0" stroke="black">
</g><g stroke-width="3.0" stroke="blue">
<!-- char 0x90 -->
<polyline points="1002.8,299.4
	1018.9,259.1
	1006.8,256.0	"/>
<!-- char 0x20 -->
</g><g stroke-width="3.0" stroke="black">
<!-- char 0xa0 -->
<polyline points="1067.3,280.8
	1079.4,256.0
	1091.5,280.8
	1079.4,256.0
	1067.3,280.8	"/>
<!-- char 0x20 -->
<!-- char 0xb0 -->
<polyline points="1131.8,280.8
	1131.8,287.0
	1139.8,290.1
	1147.9,287.0
	1147.9,280.8
	1139.8,277.7
	1131.8,280.8	"/>
<!-- char 0x20 -->
<!-- char 0xc0 -->
<polyline points="1196.2,280.8
	1220.4,280.8
	1196.2,280.8
	1220.4,256.0
	1196.2,280.8	"/>
<!-- char 0x20 -->
<!-- char 0xd0 -->
<polyline points="1268.8,268.4
	1260.7,296.3
	1268.8,268.4
	1280.9,268.4
	1276.8,283.9
	1264.8,283.9	"/>
<polyline points="1276.8,283.9
	1280.9,268.4	"/>
<!-- char 0x20 -->
<!-- char 0xe0 -->
<polyline points="1325.2,268.4
	1333.3,265.3
	1333.3,274.6
	1337.3,280.8
	1345.4,280.8
	1349.4,274.6
	1349.4,265.3	"/>
<polyline points="1341.3,290.1
	1341.3,259.1	"/>
<!-- char 0x20 -->
<!-- char 0xf0 -->
<polyline points="1397.7,280.8
	1397.7,265.3	"/>
<polyline points="1389.7,268.4
	1397.7,265.3
	1413.9,265.3	"/>
<polyline points="1405.8,265.3
	1405.8,280.8	"/>
<!-- char 0x20 -->
<!-- char 0x0a -->
<!-- char 0x0d -->
<!-- char 0x20 -->
<!-- char 0x20 -->
</g><g stroke-width="3.0" stroke="blue">
<!-- char 0x01 -->
<polyline points="261.3,349.0
	269.3,305.6
	265.3,327.3	"/>
<polyline points="277.4,327.3
	281.4,305.6
	277.4,327.3	"/>
<!-- char 0x20 -->
</g><g stroke-width="3.0" stroke="black">
<!-- char 0x20 -->
<!-- char 0x20 -->
<!-- char 0x21 -->
<polyline points="402.2,330.3
	402.3,330.4	"/>
<polyline points="402.3,324.2
	402.3,305.6
	402.3,324.2	"/>
<!-- char 0x20 -->
<!-- char 0x31 -->
<polyline points="458.8,308.7
	466.8,305.6
	466.8,330.4
	466.8,305.6	"/>
<polyline points="458.8,330.4
	474.9,330.4	"/>
<!-- char 0x20 -->
<!-- char 0x41 -->
<polyline points="523.2,324.2
	539.4,324.2
	523.2,324.2	"/>
<polyline points="519.2,330.4
	531.3,305.6
	543.4,330.4
	531.3,305.6
	519.2,330.4	"/>
<!-- char 0x20 -->
<!-- char 0x51 -->
<polyline points="583.7,327.3
	583.7,308.7
	583.7,327.3
	595.8,330.4
	607.9,327.3
	607.9,308.7
	595.8,305.6
	583.7,308.7	"/>
<polyline points="607.9,327.3
	607.9,308.7	"/>
<polyline points="595.8,321.1
	607.9,333.5	"/>
<!-- char 0x20 -->
<!-- char 0x61 -->
<polyline points="668.3,327.3
	660.2,330.4
	652.2,330.4
	652.2,324.2
	668.3,321.1	"/>
<polyline points="668.3,330.4
	668.3,318.0
	660.2,314.9
	652.2,318.0	"/>
<!-- char 0x20 -->
<!-- char 0x71 -->
<polyline points="732.8,339.7
	732.8,314.9
	732.8,339.7	"/>
<polyline points="732.8,327.3
	724.7,330.4
	716.7,327.3
	716.7,318.0
	724.7,314.9
	732.8,318.0	"/>
<!-- char 0x20 -->
<!-- char 0x20 -->
<!-- char 0x20 -->
<!-- char 0x20 -->
<!-- char 0x20 -->
<!-- char 0x20 -->
</g><g stroke-width="3.0" stroke="blue">
<!-- char 0x81 -->
<polyline points="938.3,349.0
	950.4,314.9
	958.5,318.0	"/>
<!-- char 0x20 -->
</g><g stroke-width="3.0" stroke="black">
<!-- char 0x20 -->
<!-- char 0x20 -->
<!-- char 0xa1 -->
<polyline points="1071.3,302.5
	1079.4,308.7
	1087.4,302.5	"/>
<!-- char 0x20 -->
<!-- char 0xb1 -->
<polyline points="1139.8,339.7
	1139.8,327.3	"/>
<!-- char 0x20 -->
<!-- char 0xc1 -->
<polyline points="1196.2,339.7
	1204.3,327.3
	1212.4,339.7	"/>
<polyline points="1208.3,336.6
	1200.3,336.6	"/>
<!-- char 0x20 -->
<!-- char 0xd1 -->
<polyline points="1260.7,318.0
	1264.8,324.2
	1272.8,321.1
	1276.8,314.9
	1284.9,311.8
	1288.9,318.0
	1284.9,324.2
	1276.8,321.1
	1272.8,314.9
	1264.8,311.8
	1260.7,318.0	"/>
<!-- char 0x20 -->
<!-- char 0xe1 -->
<polyline points="1349.4,330.4
	1341.3,324.2
	1341.3,318.0
	1333.3,314.9
	1325.2,318.0
	1325.2,327.3
	1333.3,330.4
	1341.3,327.3
	1349.4,314.9	"/>
<!-- char 0x20 -->
<!-- char 0xf1 -->
<polyline points="1393.7,324.2
	1393.7,318.0
	1397.7,311.8
	1405.8,311.8
	1409.8,318.0
	1409.8,324.2
	1405.8,330.4
	1397.7,330.4
	1393.7,324.2	"/>
<polyline points="1393.7,321.1
	1409.8,321.1	"/>
<!-- char 0x20 -->
<!-- char 0x0a -->
<!-- char 0x0d -->
<!-- char 0x20 -->
<!-- char 0x20 -->
</g><g stroke-width="3.0" stroke="blue">
<!-- char 0x02 -->
<polyline points="261.3,398.6
	265.3,358.3
	277.4,358.3
	285.5,361.4	"/>
<polyline points="273.4,380.0
	273.4,355.2
	273.4,380.0	"/>
<!-- char 0x20 -->
</g><g stroke-width="3.0" stroke="black">
<!-- char 0x20 -->
<!-- char 0x20 -->
<!-- char 0x22 -->
<polyline points="398.3,358.3
	398.3,352.1	"/>
<polyline points="406.4,352.1
	406.4,358.3	"/>
<!-- char 0x20 -->
<!-- char 0x32 -->
<polyline points="454.7,380.0
	474.9,380.0
	454.7,380.0
	458.8,370.7
	470.8,367.6
	474.9,361.4
	470.8,355.2
	462.8,355.2
	454.7,358.3	"/>
<!-- char 0x20 -->
<!-- char 0x42 -->
<polyline points="535.3,380.0
	519.2,380.0
	519.2,355.2
	535.3,355.2
	543.4,361.4
	535.3,367.6
	519.2,367.6
	535.3,367.6
	543.4,373.8
	535.3,380.0
	519.2,380.0
	519.2,355.2
	535.3,355.2	"/>
<!-- char 0x20 -->
<!-- char 0x52 -->
<polyline points="603.8,355.2
	583.7,355.2
	583.7,380.0
	583.7,355.2
	603.8,355.2
	607.9,361.4
	603.8,367.6
	583.7,367.6
	599.8,367.6
	607.9,380.0	"/>
<!-- char 0x20 -->
<!-- char 0x62 -->
<polyline points="652.2,380.0
	652.2,355.2
	652.2,380.0	"/>
<polyline points="652.2,376.9
	660.2,380.0
	668.3,376.9
	668.3,367.6
	660.2,364.5
	652.2,367.6	"/>
<!-- char 0x20 -->
<!-- char 0x72 -->
<polyline points="716.7,380.0
	716.7,364.5	"/>
<polyline points="716.7,367.6
	724.7,364.5
	732.8,367.6	"/>
<!-- char 0x20 -->
<!-- char 0x20 -->
<!-- char 0x20 -->
<!-- char 0x20 -->
<!-- char 0x20 -->
<!-- char 0x20 -->
</g><g stroke-width="3.0" stroke="blue">
<!-- char 0x82 -->
<polyline points="938.3,398.6
	958.5,376.9	"/>
<!-- char 0x20 -->
</g><g stroke-width="3.0" stroke="black">
<!-- char 0x20 -->
<!-- char 0x20 -->
<!-- char 0xa2 -->
<polyline points="1071.2,352.0
	1071.3,352.1	"/>
<polyline points="1087.3,352.0
	1087.4,352.1	"/>
<!-- char 0x20 -->
<!-- char 0xb2 -->
<polyline points="1131.8,380.0
	1139.8,376.9
	1147.9,380.0
	1131.8,389.3
	1147.9,389.3	"/>
<!-- char 0x20 -->
<!-- char 0xc2 -->
<polyline points="1220.4,355.2
	1216.4,352.1
	1212.4,355.2	"/>
<polyline points="1200.3,383.1
	1204.3,386.2
	1208.3,383.1
	1212.4,355.2
	1208.3,383.1	"/>
<!-- char 0x20 -->
<!-- char 0xd2 -->
<polyline points="1260.7,376.9
	1260.7,389.3	"/>
<polyline points="1260.7,380.0
	1268.8,376.9
	1276.8,380.0	"/>
<!-- char 0x20 -->
<!-- char 0xe2 -->
<polyline points="1325.2,361.4
	1325.2,389.3
	1325.2,361.4
	1329.2,355.2
	1341.3,355.2
	1345.4,361.4
	1341.3,367.6
	1329.2,367.6	"/>
<polyline points="1341.3,367.6
	1345.4,373.8
	1341.3,380.0
	1329.2,380.0
	1325.2,373.8	"/>
<!-- char 0x20 -->
<!-- char 0xf2 -->
<polyline points="1397.7,389.3
	1393.7,383.1
	1393.7,367.6
	1401.8,364.5
	1409.8,367.6
	1409.8,376.9
	1401.8,380.0
	1393.7,376.9	"/>
<!-- char 0x20 -->
<!-- char 0x0a -->
<!-- char 0x0d -->
<!-- char 0x20 -->
<!-- char 0x20 -->
</g><g stroke-width="3.0" stroke="blue">
<!-- char 0x03 -->
<polyline points="261.3,448.2
	269.3,429.6
	277.4,426.5
	285.5,417.2	"/>
<polyline points="261.3,420.3
	277.4,407.9	"/>
<!-- char 0x20 -->
</g><g stroke-width="3.0" stroke="black">
<!-- char 0x20 -->
<!-- char 0x20 -->
<!-- char 0x23 -->
<polyline points="390.2,420.3
	414.4,420.3
	390.2,420.3	"/>
<polyline points="390.2,411.0
	414.4,411.0
	390.2,411.0	"/>
<polyline points="394.3,426.5
	398.3,404.8
	394.3,426.5	"/>
<polyline points="406.4,426.5
	410.4,404.8
	406.4,426.5	"/>
<!-- char 0x20 -->
<!-- char 0x33 -->
<polyline points="454.7,426.5
	462.8,429.6
	470.8,429.6
	474.9,423.4
	470.8,417.2
	462.8,417.2	"/>
<polyline points="470.8,417.2
	474.9,411.0
	470.8,404.8
	462.8,404.8
	454.7,407.9	"/>
<!-- char 0x20 -->
<!-- char 0x43 -->
<polyline points="519.2,426.5
	519.2,407.9
	519.2,426.5
	531.3,429.6
	543.4,426.5	"/>
<polyline points="543.4,407.9
	531.3,404.8
	519.2,407.9	"/>
<!-- char 0x20 -->
<!-- char 0x53 -->
<polyline points="607.9,407.9
	595.8,404.8
	583.7,407.9
	583.7,414.1
	599.8,417.2
	607.9,420.3
	607.9,426.5
	595.8,429.6
	583.7,426.5	"/>
<!-- char 0x20 -->
<!-- char 0x63 -->
<polyline points="668.3,417.2
	660.2,414.1
	652.2,417.2
	652.2,426.5
	660.2,429.6
	668.3,426.5	"/>
<!-- char 0x20 -->
<!-- char 0x73 -->
<polyline points="732.8,417.2
	724.7,414.1
	716.7,417.2
	732.8,426.5
	716.7,417.2	"/>
<polyline points="732.8,426.5
	724.7,429.6
	716.7,426.5	"/>
<!-- char 0x20 -->
<!-- char 0x20 -->
<!-- char 0x20 -->
<!-- char 0x20 -->
<!-- char 0x20 -->
<!-- char 0x20 -->
</g><g stroke-width="3.0" stroke="blue">
<!-- char 0x83 -->
<polyline points="938.3,448.2
	942.4,417.2
	942.4,426.5
	950.4,429.6
	958.5,426.5	"/>
<!-- char 0x20 -->
</g><g stroke-width="3.0" stroke="black">
<!-- char 0x20 -->
<!-- char 0x20 -->
<!-- char 0xa3 -->
<polyline points="1071.3,432.7
	1087.4,404.8
	1071.3,432.7	"/>
<polyline points="1067.3,414.1
	1091.5,414.1
	1067.3,414.1	"/>
<polyline points="1067.3,423.4
	1091.5,423.4
	1067.3,423.4	"/>
<!-- char 0x20 -->
<!-- char 0xb3 -->
<polyline points="1131.8,426.5
	1147.9,426.5
	1147.9,438.9
	1131.8,438.9	"/>
<polyline points="1139.8,432.7
	1147.9,432.7	"/>
<!-- char 0x20 -->
<!-- char 0xc3 -->
<polyline points="1216.4,423.4
	1208.3,426.5
	1200.3,423.4
	1200.3,414.1
	1208.3,411.0
	1216.4,414.1	"/>
<polyline points="1208.3,404.8
	1208.3,432.7	"/>
<!-- char 0x20 -->
<!-- char 0xd3 -->
<polyline points="1260.7,435.8
	1268.8,438.9
	1276.8,435.8
	1260.7,429.6
	1268.8,426.5
	1276.8,429.6	"/>
<!-- char 0x20 -->
<!-- char 0xe3 -->
<polyline points="1325.2,414.1
	1333.3,414.1
	1341.3,432.7
	1349.4,435.8	"/>
<polyline points="1329.2,435.8
	1345.4,414.1	"/>
<!-- char 0x20 -->
<!-- char 0xf3 -->
<polyline points="1413.9,411.0
	1401.8,414.1
	1393.7,417.2
	1393.7,426.5
	1401.8,429.6
	1409.8,426.5
	1409.8,417.2
	1401.8,414.1	"/>
<!-- char 0x20 -->
<!-- char 0x0a -->
<!-- char 0x0d -->
<!-- char 0x20 -->
<!-- char 0x20 -->
</g><g stroke-width="3.0" stroke="blue">
<!-- char 0x04 -->
<polyline points="261.3,497.8
	261.3,460.6
	265.3,454.4
	277.4,454.4
	281.4,460.6	"/>
<!-- char 0x20 -->
</g><g stroke-width="3.0" stroke="black">
</g><g stroke-width="3.0" stroke="blue">
<!-- char 0x14 -->
<polyline points="325.8,497.8
	337.9,463.7	"/>
<!-- char 0x20 -->
</g><g stroke-width="3.0" stroke="black">
<!-- char 0x24 -->
<polyline points="390.2,473.0
	398.3,476.1
	410.4,476.1
	414.4,469.9
	406.4,466.8
	398.3,466.8
	390.2,463.7
	394.3,457.5
	406.4,457.5
	414.4,460.6	"/>
<polyline points="402.3,479.2
	402.3,454.4
	402.3,479.2	"/>
<!-- char 0x20 -->
<!-- char 0x34 -->
<polyline points="470.8,479.2
	470.8,454.4
	454.7,473.0
	478.9,473.0
	454.7,473.0
	470.8,454.4
	470.8,479.2	"/>
<!-- char 0x20 -->
<!-- char 0x44 -->
<polyline points="519.2,454.4
	519.2,479.2
	535.3,479.2
	543.4,473.0
	543.4,460.6
	535.3,454.4
	519.2,454.4
	519.2,479.2	"/>
<!-- char 0x20 -->
<!-- char 0x54 -->
<polyline points="583.7,454.4
	607.9,454.4
	583.7,454.4	"/>
<polyline points="595.8,454.4
	595.8,479.2
	595.8,454.4	"/>
<!-- char 0x20 -->
<!-- char 0x64 -->
<polyline points="668.3,479.2
	668.3,454.4
	668.3,479.2	"/>
<polyline points="668.3,476.1
	660.2,479.2
	652.2,476.1
	652.2,466.8
	660.2,463.7
	668.3,466.8	"/>
<!-- char 0x20 -->
<!-- char 0x74 -->
<polyline points="724.7,479.2
	724.7,454.4
	724.7,479.2
	732.8,479.2	"/>
<polyline points="716.7,463.7
	732.8,463.7	"/>
<!-- char 0x20 -->
<!-- char 0x20 -->
<!-- char 0x20 -->
<!-- char 0x20 -->
<!-- char 0x20 -->
<!-- char 0x20 -->
</g><g stroke-width="3.0" stroke="blue">
<!-- char 0x84 -->
<polyline points="938.3,497.8
	958.5,463.7
	962.5,469.9
	962.5,479.2	"/>
<!-- char 0x20 -->
</g><g stroke-width="3.0" stroke="black">
<!-- char 0x20 -->
<!-- char 0x20 -->
<!-- char 0xa4 -->
<polyline points="1091.5,476.1
	1083.4,479.2
	1075.3,476.1
	1067.3,479.2
	1071.3,473.0
	1071.3,460.6
	1075.3,454.4
	1083.4,454.4
	1087.4,460.6	"/>
<polyline points="1067.3,466.8
	1079.4,466.8	"/>
<!-- char 0x20 -->
<!-- char 0xb4 -->
<polyline points="1131.8,457.5
	1139.8,457.5	"/>
<polyline points="1147.9,463.7
	1147.9,451.3	"/>
<!-- char 0x20 -->
<!-- char 0xc4 -->
<polyline points="1196.2,454.4
	1220.4,454.4
	1208.3,479.2
	1196.2,454.4
	1208.3,479.2
	1220.4,454.4
	1196.2,454.4	"/>
<!-- char 0x20 -->
<!-- char 0xd4 -->
<polyline points="1268.8,488.5
	1268.8,476.1	"/>
<polyline points="1260.7,476.1
	1276.8,476.1	"/>
<!-- char 0x20 -->
<!-- char 0xe4 -->
<polyline points="1337.3,463.7
	1329.2,466.8
	1329.2,476.1
	1337.3,479.2
	1345.4,476.1
	1345.4,466.8
	1337.3,463.7
	1329.2,460.6
	1333.3,454.4
	1341.3,457.5	"/>
<!-- char 0x20 -->
<!-- char 0xf4 -->
<polyline points="1389.7,466.8
	1397.7,463.7
	1413.9,463.7	"/>
<polyline points="1401.8,463.7
	1401.8,479.2
	1401.8,463.7	"/>
<!-- char 0x20 -->
<!-- char 0x0a -->
<!-- char 0x0d -->
<!-- char 0x20 -->
<!-- char 0x20 -->
</g><g stroke-width="3.0" stroke="blue">
<!-- char 0x05 -->
<polyline points="261.3,547.4
	269.3,504.0
	261.3,507.1	"/>
<!-- char 0x20 -->
</g><g stroke-width="3.0" stroke="black">
</g><g stroke-width="3.0" stroke="blue">
<!-- char 0x15 -->
<polyline points="337.9,516.4
	333.8,513.3	"/>
<!-- char 0x20 -->
</g><g stroke-width="3.0" stroke="black">
<!-- char 0x25 -->
<polyline points="394.3,528.8
	410.4,504.0
	394.3,528.8	"/>
<polyline points="394.2,507.0
	394.3,507.1	"/>
<polyline points="410.3,525.6
	410.4,525.7	"/>
<!-- char 0x20 -->
<!-- char 0x35 -->
<polyline points="454.7,504.0
	474.9,504.0
	454.7,504.0
	454.7,513.3
	466.8,513.3
	474.9,516.4
	474.9,522.6
	470.8,528.8
	462.8,528.8
	454.7,525.7	"/>
<!-- char 0x20 -->
<!-- char 0x45 -->
<polyline points="519.2,516.4
	539.4,516.4
	519.2,516.4	"/>
<polyline points="519.2,528.8
	519.2,504.0
	543.4,504.0
	519.2,504.0
	519.2,528.8
	543.4,528.8
	519.2,528.8	"/>
<!-- char 0x20 -->
<!-- char 0x55 -->
<polyline points="583.7,525.7
	583.7,504.0
	583.7,525.7
	595.8,528.8
	607.9,525.7
	607.9,504.0
	607.9,525.7	"/>
<!-- char 0x20 -->
<!-- char 0x65 -->
<polyline points="652.2,519.5
	668.3,519.5
	664.3,513.3
	656.2,513.3
	652.2,519.5
	652.2,525.7
	660.2,528.8
	668.3,525.7	"/>
<!-- char 0x20 -->
<!-- char 0x75 -->
<polyline points="716.7,513.3
	716.7,525.7
	724.7,528.8
	732.8,525.7	"/>
<polyline points="732.8,528.8
	732.8,513.3	"/>
<!-- char 0x20 -->
<!-- char 0x20 -->
<!-- char 0x20 -->
<!-- char 0x20 -->
<!-- char 0x20 -->
<!-- char 0x20 -->
</g><g stroke-width="3.0" stroke="blue">
<!-- char 0x85 -->
<polyline points="938.3,547.4
	942.4,525.7	"/>
<!-- char 0x20 -->
</g><g stroke-width="3.0" stroke="black">
</g><g stroke-width="3.0" stroke="blue">
<!-- char 0x95 -->
<polyline points="1002.8,547.4
	1023.0,528.8
	1023.0,504.0	"/>
<polyline points="1018.9,528.8
	1027.0,528.8	"/>
<polyline points="1002.8,528.8
	1010.9,528.8	"/>
<!-- char 0x20 -->
</g><g stroke-width="3.0" stroke="black">
<!-- char 0xa5 -->
<polyline points="1091.5,522.6
	1083.4,519.5
	1079.4,513.3
	1071.3,510.2
	1067.3,516.4
	1071.3,522.6
	1079.4,519.5
	1083.4,513.3
	1091.5,510.2	"/>
<!-- char 0x20 -->
<!-- char 0xb5 -->
<polyline points="1131.8,504.0
	1139.8,500.9
	1147.9,504.0
	1131.8,513.3
	1147.9,513.3	"/>
<!-- char 0x20 -->
</g><g stroke-width="3.0" stroke="blue">
<!-- char 0xc5 -->
<polyline points="1208.3,519.5
	1208.3,525.7	"/>
<!-- char 0x20 -->
</g><g stroke-width="3.0" stroke="black">
<!-- char 0xd5 -->
<polyline points="1276.8,513.3
	1268.8,516.4
	1264.8,522.6
	1268.8,528.8
	1276.8,528.8
	1280.9,522.6
	1280.9,516.4
	1276.8,507.1
	1264.8,504.0	"/>
<!-- char 0x20 -->
<!-- char 0xe5 -->
<polyline points="1329.2,519.5
	1341.3,519.5	"/>
<polyline points="1345.4,513.3
	1337.3,510.2
	1329.2,513.3
	1329.2,525.7
	1337.3,528.8
	1345.4,525.7	"/>
<!-- char 0x20 -->
<!-- char 0xf5 -->
<polyline points="1389.7,516.4
	1397.7,513.3
	1397.7,522.6
	1401.8,528.8
	1409.8,528.8
	1413.9,522.6
	1413.9,513.3	"/>
<!-- char 0x20 -->
<!-- char 0x0a -->
<!-- char 0x0d -->
<!-- char 0x20 -->
<!-- char 0x20 -->
</g><g stroke-width="3.0" stroke="blue">
<!-- char 0x06 -->
<polyline points="261.3,597.0
	281.4,559.8
	277.4,553.6
	269.3,553.6
	261.3,556.7	"/>
<!-- char 0x20 -->
</g><g stroke-width="3.0" stroke="black">
</g><g stroke-width="3.0" stroke="blue">
<!-- char 0x16 -->
<polyline points="325.8,597.0
	325.8,556.7	"/>
<!-- char 0x20 -->
</g><g stroke-width="3.0" stroke="black">
<!-- char 0x26 -->
<polyline points="390.2,556.7
	414.4,578.4
	390.2,556.7
	398.3,553.6
	406.4,556.7
	390.2,569.1
	390.2,575.3
	398.3,578.4
	406.4,575.3
	414.4,566.0	"/>
<polyline points="390.2,569.1
	406.4,556.7	"/>
<!-- char 0x20 -->
<!-- char 0x36 -->
<polyline points="454.7,566.0
	470.8,566.0
	474.9,572.2
	470.8,578.4
	458.8,578.4
	454.7,572.2
	454.7,559.8
	458.8,553.6
	466.8,553.6
	474.9,556.7	"/>
<!-- char 0x20 -->
<!-- char 0x46 -->
<polyline points="519.2,566.0
	539.4,566.0
	519.2,566.0	"/>
<polyline points="519.2,578.4
	519.2,553.6
	543.4,553.6
	519.2,553.6
	519.2,578.4	"/>
<!-- char 0x20 -->
<!-- char 0x56 -->
<polyline points="595.8,578.4
	583.7,553.6
	595.8,578.4
	607.9,553.6
	595.8,578.4	"/>
<!-- char 0x20 -->
<!-- char 0x66 -->
<polyline points="656.2,559.8
	656.2,578.4
	656.2,559.8
	660.2,553.6
	668.3,553.6	"/>
<polyline points="652.2,562.9
	664.3,562.9	"/>
<!-- char 0x20 -->
<!-- char 0x76 -->
<polyline points="716.7,562.9
	724.7,578.4
	732.8,562.9	"/>
<!-- char 0x20 -->
<!-- char 0x20 -->
<!-- char 0x20 -->
<!-- char 0x20 -->
<!-- char 0x20 -->
<!-- char 0x20 -->
</g><g stroke-width="3.0" stroke="blue">
<!-- char 0x86 -->
<polyline points="938.3,597.0
	962.5,572.2
	938.3,572.2	"/>
<!-- char 0x20 -->
</g><g stroke-width="3.0" stroke="black">
</g><g stroke-width="3.0" stroke="blue">
<!-- char 0x96 -->
<polyline points="1014.9,578.4
	1014.9,553.6
	1014.9,578.4	"/>
<polyline points="1010.9,553.6
	1018.9,553.6	"/>
<!-- char 0x20 -->
</g><g stroke-width="3.0" stroke="black">
<!-- char 0xa6 -->
<polyline points="1067.3,566.0
	1071.3,559.8
	1079.4,556.7
	1087.4,559.8
	1091.5,566.0
	1067.3,566.0
	1091.5,566.0
	1087.4,572.2
	1079.4,575.3
	1079.4,556.7
	1079.4,575.3
	1071.3,572.2
	1067.3,566.0	"/>
<!-- char 0x20 -->
<!-- char 0xb6 -->
<polyline points="1131.8,562.9
	1147.9,562.9
	1147.9,550.5
	1131.8,550.5	"/>
<polyline points="1139.8,556.7
	1147.9,556.7	"/>
<!-- char 0x20 -->
</g><g stroke-width="3.0" stroke="blue">
<!-- char 0xc6 -->
<polyline points="1204.3,578.4
	1196.2,578.4	"/>
<!-- char 0x20 -->
</g><g stroke-width="3.0" stroke="black">
<!-- char 0xd6 -->
<polyline points="1260.7,575.3
	1268.8,587.7
	1276.8,575.3	"/>
<!-- char 0x20 -->
<!-- char 0xe6 -->
<polyline points="1337.3,587.7
	1337.3,556.7	"/>
<polyline points="1345.4,566.0
	1345.4,575.3
	1337.3,578.4
	1329.2,575.3
	1329.2,566.0
	1337.3,562.9
	1345.4,566.0	"/>
<!-- char 0x20 -->
<!-- char 0xf6 -->
<polyline points="1397.7,584.6
	1405.8,584.6
	1405.8,578.4
	1397.7,578.4
	1393.7,572.2
	1393.7,566.0
	1397.7,559.8
	1405.8,559.8	"/>
<polyline points="1397.7,559.8
	1393.7,553.6	"/>
<polyline points="1393.7,569.1
	1405.8,569.1	"/>
<!-- char 0x20 -->
<!-- char 0x0a -->
<!-- char 0x0d -->
<!-- char 0x20 -->
<!-- char 0x20 -->
</g><g stroke-width="3.0" stroke="blue">
<!-- char 0x07 -->
<polyline points="261.3,646.6
	277.4,628.0
	269.3,628.0
	261.3,624.9	"/>
<!-- char 0x20 -->
</g><g stroke-width="3.0" stroke="black">
</g><g stroke-width="3.0" stroke="blue">
<!-- char 0x17 -->
<polyline points="325.8,646.6
	349.9,618.7
	345.9,624.9
	341.9,609.4
	333.8,612.5
	333.8,621.8
	341.9,621.8	"/>
<!-- char 0x20 -->
</g><g stroke-width="3.0" stroke="black">
<!-- char 0x27 -->
<polyline points="398.3,606.3
	402.3,600.1	"/>
<!-- char 0x20 -->
<!-- char 0x37 -->
<polyline points="458.8,628.0
	474.9,603.2
	454.7,603.2
	474.9,603.2
	458.8,628.0	"/>
<!-- char 0x20 -->
<!-- char 0x47 -->
<polyline points="535.3,615.6
	543.4,615.6
	543.4,624.9
	531.3,628.0
	519.2,624.9
	519.2,606.3
	519.2,624.9	"/>
<polyline points="519.2,606.3
	531.3,603.2
	543.4,606.3	"/>
<!-- char 0x20 -->
<!-- char 0x57 -->
<polyline points="583.7,603.2
	587.7,628.0
	595.8,609.4
	603.8,628.0
	607.9,603.2
	603.8,628.0
	595.8,609.4
	587.7,628.0
	583.7,603.2	"/>
<!-- char 0x20 -->
<!-- char 0x67 -->
<polyline points="668.3,634.2
	668.3,612.5
	668.3,634.2
	660.2,637.3
	652.2,634.2	"/>
<polyline points="668.3,615.6
	660.2,612.5
	652.2,615.6
	652.2,624.9
	660.2,628.0
	668.3,624.9	"/>
<!-- char 0x20 -->
<!-- char 0x77 -->
<polyline points="712.6,612.5
	716.7,628.0
	724.7,612.5
	732.8,628.0
	736.8,612.5	"/>
<!-- char 0x20 -->
<!-- char 0x20 -->
<!-- char 0x20 -->
<!-- char 0x20 -->
<!-- char 0x20 -->
<!-- char 0x20 -->
</g><g stroke-width="3.0" stroke="blue">
<!-- char 0x87 -->
<polyline points="938.3,646.6
	954.4,603.2
	958.5,609.4	"/>
<polyline points="938.3,615.6
	950.4,615.6	"/>
<!-- char 0x20 -->
</g><g stroke-width="3.0" stroke="black">
</g><g stroke-width="3.0" stroke="blue">
<!-- char 0x97 -->
<polyline points="1002.8,646.6
	1027.0,612.5
	1027.0,618.7
	1014.9,624.9
	1002.8,618.7
	1002.8,612.5
	1014.9,606.3	"/>
<!-- char 0x20 -->
</g><g stroke-width="3.0" stroke="black">
<!-- char 0xa7 -->
<polyline points="1079.3,600.0
	1079.4,600.1	"/>
<!-- char 0x20 -->
<!-- char 0xb7 -->
<polyline points="1131.8,615.6
	1139.8,615.6
	1143.9,631.1
	1155.9,600.1	"/>
<!-- char 0x20 -->
<!-- char 0xc7 -->
<polyline points="1200.3,640.4
	1208.3,643.5
	1216.4,640.4
	1216.4,621.8	"/>
<polyline points="1216.4,624.9
	1208.3,621.8
	1200.3,624.9
	1200.3,631.1
	1208.3,634.2
	1216.4,631.1	"/>
<!-- char 0x20 -->
</g><g stroke-width="3.0" stroke="blue">
<!-- char 0xd7 -->
<polyline points="1276.8,628.0
	1268.8,628.0	"/>
<polyline points="1272.8,628.0
	1272.8,612.5	"/>
<!-- char 0x20 -->
</g><g stroke-width="3.0" stroke="black">
<!-- char 0xe7 -->
<polyline points="1325.2,615.6
	1333.3,612.5
	1341.3,628.0
	1341.3,637.3	"/>
<polyline points="1341.3,628.0
	1349.4,612.5	"/>
<!-- char 0x20 -->
<!-- char 0xf7 -->
<polyline points="1393.7,612.5
	1389.7,621.8
	1393.7,628.0
	1401.8,624.9
	1409.8,628.0
	1413.9,621.8
	1409.8,612.5	"/>
<polyline points="1401.8,618.7
	1401.8,624.9	"/>
<!-- char 0x20 -->
<!-- char 0x0a -->
<!-- char 0x0d -->
<!-- char 0x20 -->
<!-- char 0x20 -->
<!-- char 0x20 -->
<!-- char 0x20 -->
</g><g stroke-width="3.0" stroke="blue">
<!-- char 0x18 -->
<polyline points="325.8,696.2
	325.8,677.6	"/>
<!-- char 0x20 -->
</g><g stroke-width="3.0" stroke="black">
<!-- char 0x28 -->
<polyline points="406.4,680.7
	398.3,671.4
	398.3,659.0
	406.4,649.7	"/>
<!-- char 0x20 -->
<!-- char 0x38 -->
<polyline points="458.8,665.2
	470.8,665.2
	474.9,671.4
	470.8,677.6
	458.8,677.6
	454.7,671.4
	458.8,665.2
	454.7,659.0
	458.8,652.8
	470.8,652.8
	474.9,659.0
	470.8,665.2	"/>
<!-- char 0x20 -->
<!-- char 0x48 -->
<polyline points="543.4,677.6
	543.4,652.8
	543.4,677.6	"/>
<polyline points="543.4,665.2
	519.2,665.2
	543.4,665.2	"/>
<polyline points="519.2,652.8
	519.2,677.6
	519.2,652.8	"/>
<!-- char 0x20 -->
<!-- char 0x58 -->
<polyline points="583.7,677.6
	607.9,652.8
	583.7,677.6	"/>
<polyline points="583.7,652.8
	607.9,677.6
	583.7,652.8	"/>
<!-- char 0x20 -->
<!-- char 0x68 -->
<polyline points="652.2,677.6
	652.2,652.8
	652.2,677.6	"/>
<polyline points="652.2,665.2
	660.2,662.1
	668.3,665.2
	668.3,677.6	"/>
<!-- char 0x20 -->
<!-- char 0x78 -->
<polyline points="716.7,677.6
	732.8,662.1
	716.7,677.6	"/>
<polyline points="716.7,662.1
	732.8,677.6
	716.7,662.1	"/>
<!-- char 0x20 -->
<!-- char 0x20 -->
<!-- char 0x20 -->
<!-- char 0x20 -->
<!-- char 0x20 -->
<!-- char 0x20 -->
</g><g stroke-width="3.0" stroke="blue">
<!-- char 0x88 -->
<polyline points="938.3,696.2
	954.4,662.1
	962.5,659.0	"/>
<!-- char 0x20 -->
</g><g stroke-width="3.0" stroke="black">
</g><g stroke-width="3.0" stroke="blue">
<!-- char 0x98 -->
<polyline points="1018.9,686.9
	1018.9,655.9	"/>
<!-- char 0x20 -->
</g><g stroke-width="3.0" stroke="black">
<!-- char 0xa8 -->
<polyline points="1067.3,665.2
	1091.5,665.2
	1067.3,665.2
	1079.4,659.0
	1067.3,665.2
	1079.4,671.4	"/>
<!-- char 0x20 -->
<!-- char 0xb8 -->
<polyline points="1131.8,668.3
	1139.8,662.1
	1147.9,668.3
	1155.9,662.1	"/>
<!-- char 0x20 -->
<!-- char 0xc8 -->
<polyline points="1208.3,680.7
	1216.4,652.8
	1208.3,680.7	"/>
<polyline points="1212.4,665.2
	1224.5,665.2
	1220.4,680.7
	1224.5,665.2	"/>
<!-- char 0x20 -->
<!-- char 0xd8 -->
<polyline points="1260.7,680.7
	1276.8,680.7
	1260.7,680.7	"/>
<polyline points="1260.7,649.7
	1276.8,649.7
	1260.7,649.7	"/>
<!-- char 0x20 -->
<!-- char 0xe8 -->
<polyline points="1329.2,677.6
	1329.2,662.1	"/>
<polyline points="1329.2,665.2
	1337.3,662.1
	1345.4,665.2
	1345.4,686.9	"/>
<!-- char 0x20 -->
<!-- char 0xf8 -->
<polyline points="1413.9,652.8
	1389.7,652.8
	1413.9,652.8
	1413.9,659.0	"/>
<polyline points="1393.7,652.8
	1393.7,677.6
	1393.7,652.8	"/>
<polyline points="1397.7,677.6
	1389.7,677.6	"/>
<!-- char 0x20 -->
<!-- char 0x0a -->
<!-- char 0x0d -->
<!-- char 0x20 -->
<!-- char 0x20 -->
</g><g stroke-width="3.0" stroke="blue">
<!-- char 0x09 -->
<polyline points="261.3,745.8
	265.3,702.4
	273.4,702.4
	281.4,705.5	"/>
<!-- char 0x20 -->
</g><g stroke-width="3.0" stroke="black">
</g><g stroke-width="3.0" stroke="blue">
<!-- char 0x19 -->
<polyline points="325.8,745.8
	341.9,714.8
	349.9,721.0
	341.9,727.2
	325.8,727.2
	325.8,702.4
	341.9,702.4	"/>
<!-- char 0x20 -->
</g><g stroke-width="3.0" stroke="black">
<!-- char 0x29 -->
<polyline points="398.3,730.3
	406.4,721.0
	406.4,708.6
	398.3,699.3	"/>
<!-- char 0x20 -->
<!-- char 0x39 -->
<polyline points="474.9,714.8
	458.8,714.8
	454.7,708.6
	458.8,702.4
	470.8,702.4
	474.9,708.6
	474.9,721.0
	470.8,727.2
	462.8,727.2
	454.7,724.1	"/>
<!-- char 0x20 -->
<!-- char 0x49 -->
<polyline points="523.2,727.2
	539.4,727.2	"/>
<polyline points="531.3,727.2
	531.3,702.4
	531.3,727.2	"/>
<polyline points="523.2,702.4
	539.4,702.4	"/>
<!-- char 0x20 -->
<!-- char 0x59 -->
<polyline points="583.7,702.4
	595.8,714.8
	607.9,702.4
	595.8,714.8
	595.8,727.2
	595.8,714.8
	583.7,702.4	"/>
<!-- char 0x20 -->
<!-- char 0x69 -->
<polyline points="660.2,711.7
	660.2,727.2
	660.2,711.7	"/>
<polyline points="660.1,702.3
	660.2,702.4	"/>
<!-- char 0x20 -->
<!-- char 0x79 -->
<polyline points="716.7,711.7
	724.7,727.2
	716.7,711.7	"/>
<polyline points="724.7,727.2
	732.8,711.7
	724.7,727.2
	720.7,736.5	"/>
<!-- char 0x20 -->
<!-- char 0x20 -->
<!-- char 0x20 -->
<!-- char 0x20 -->
<!-- char 0x20 -->
<!-- char 0x20 -->
</g><g stroke-width="3.0" stroke="blue">
<!-- char 0x89 -->
<polyline points="938.3,745.8
	958.5,721.0
	950.4,724.1
	950.4,705.5
	950.4,724.1
	942.4,721.0
	938.3,714.8	"/>
<!-- char 0x20 -->
</g><g stroke-width="3.0" stroke="black">
</g><g stroke-width="3.0" stroke="blue">
<!-- char 0x99 -->
<polyline points="1002.8,745.8
	1018.9,724.1
	1027.0,711.7	"/>
<!-- char 0x20 -->
</g><g stroke-width="3.0" stroke="black">
<!-- char 0xa9 -->
<polyline points="1091.5,714.8
	1067.3,714.8
	1091.5,714.8
	1079.4,721.0
	1091.5,714.8
	1079.4,708.6	"/>
<!-- char 0x20 -->
<!-- char 0xb9 -->
<polyline points="1131.8,721.0
	1155.9,721.0
	1131.8,721.0	"/>
<polyline points="1131.8,714.8
	1139.8,708.6
	1147.9,714.8
	1155.9,708.6	"/>
<!-- char 0x20 -->
<!-- char 0xc9 -->
<polyline points="1204.3,736.5
	1204.3,727.2	"/>
<polyline points="1204.2,724.0
	1204.3,724.1	"/>
<!-- char 0x20 -->
<!-- char 0xd9 -->
<polyline points="1260.7,742.7
	1260.7,730.3
	1260.7,742.7	"/>
<polyline points="1276.8,742.7
	1276.8,730.3
	1276.8,742.7	"/>
<!-- char 0x20 -->
<!-- char 0xe9 -->
<polyline points="1341.3,724.1
	1333.3,727.2
	1333.3,711.7
	1333.3,727.2	"/>
<!-- char 0x20 -->
<!-- char 0xf9 -->
<polyline points="1389.7,727.2
	1401.8,702.4
	1413.9,727.2
	1389.7,727.2
	1413.9,727.2
	1401.8,702.4
	1389.7,727.2	"/>
<!-- char 0x20 -->
<!-- char 0x0a -->
<!-- char 0x0d -->
<!-- char 0x20 -->
<!-- char 0x20 -->
<!-- char 0x20 -->
<!-- char 0x20 -->
</g><g stroke-width="3.0" stroke="blue">
<!-- char 0x1a -->
<polyline points="325.8,795.4
	325.8,776.8
	349.9,776.8
	325.8,776.8	"/>
<!-- char 0x20 -->
</g><g stroke-width="3.0" stroke="black">
<!-- char 0x2a -->
<polyline points="390.2,770.6
	414.4,758.2	"/>
<polyline points="390.2,758.2
	414.4,770.6	"/>
<polyline points="402.3,776.8
	402.3,752.0	"/>
<!-- char 0x20 -->
<!-- char 0x3a -->
<polyline points="462.8,776.8
	466.8,773.7	"/>
<polyline points="466.8,776.8
	462.8,773.7	"/>
<polyline points="466.8,764.4
	462.8,761.3	"/>
<polyline points="462.8,764.4
	466.8,761.3	"/>
<!-- char 0x20 -->
<!-- char 0x4a -->
<polyline points="519.2,770.6
	523.2,776.8
	535.3,776.8
	539.4,770.6
	539.4,752.0
	539.4,770.6	"/>
<!-- char 0x20 -->
<!-- char 0x5a -->
<polyline points="583.7,752.0
	607.9,752.0
	583.7,776.8
	607.9,776.8
	583.7,776.8
	607.9,752.0
	583.7,752.0	"/>
<!-- char 0x20 -->
<!-- char 0x6a -->
<polyline points="652.2,783.0
	660.2,783.0
	664.3,776.8
	664.3,761.3
	664.3,776.8	"/>
<polyline points="664.2,751.9
	664.3,752.0	"/>
<!-- char 0x20 -->
<!-- char 0x7a -->
<polyline points="716.7,761.3
	732.8,761.3
	716.7,776.8
	732.8,776.8
	716.7,776.8
	732.8,761.3
	716.7,761.3	"/>
<!-- char 0x20 -->
<!-- char 0x20 -->
<!-- char 0x20 -->
<!-- char 0x20 -->
<!-- char 0x20 -->
<!-- char 0x20 -->
</g><g stroke-width="3.0" stroke="blue">
<!-- char 0x8a -->
<polyline points="954.4,776.8
	958.5,770.6
	954.4,764.4
	942.4,755.1
	946.4,748.9
	954.4,748.9
	958.5,755.1	"/>
<!-- char 0x20 -->
</g><g stroke-width="3.0" stroke="black">
</g><g stroke-width="3.0" stroke="blue">
<!-- char 0x9a -->
<polyline points="1002.8,795.4
	1006.8,764.4	"/>
<polyline points="1018.9,764.4
	1023.0,770.6
	1018.9,776.8
	1006.8,776.8
	1002.8,770.6	"/>
<!-- char 0x20 -->
</g><g stroke-width="3.0" stroke="black">
<!-- char 0xaa -->
<polyline points="1071.3,779.9
	1075.3,786.1
	1083.4,786.1
	1087.4,779.9
	1075.3,770.6
	1071.3,764.4
	1075.3,758.2	"/>
<polyline points="1083.4,776.8
	1087.4,770.6
	1083.4,764.4
	1071.3,755.1
	1075.3,748.9
	1083.4,748.9
	1087.4,755.1	"/>
<!-- char 0x20 -->
<!-- char 0xba -->
<polyline points="1139.8,776.8
	1139.8,752.0
	1139.8,776.8	"/>
<polyline points="1147.9,776.8
	1147.9,752.0
	1147.9,776.8	"/>
<!-- char 0x20 -->
</g><g stroke-width="3.0" stroke="blue">
<!-- char 0xca -->
<polyline points="1196.2,795.4
	1220.4,764.4
	1212.4,776.8
	1220.4,776.8	"/>
<!-- char 0x20 -->
</g><g stroke-width="3.0" stroke="black">
</g><g stroke-width="3.0" stroke="blue">
<!-- char 0xda -->
<polyline points="1260.7,795.4
	1264.8,764.4	"/>
<polyline points="1280.9,767.5
	1280.9,761.3	"/>
<polyline points="1284.9,752.0
	1260.7,752.0
	1284.9,752.0	"/>
<!-- char 0x20 -->
</g><g stroke-width="3.0" stroke="black">
<!-- char 0xea -->
<polyline points="1329.2,783.0
	1337.3,786.1
	1345.4,783.0
	1337.3,776.8
	1333.3,770.6
	1333.3,764.4
	1337.3,758.2
	1333.3,752.0	"/>
<polyline points="1337.3,758.2
	1345.4,758.2	"/>
<!-- char 0x20 -->
<!-- char 0xfa -->
<polyline points="1389.7,776.8
	1397.7,776.8
	1389.7,764.4
	1389.7,758.2
	1397.7,752.0
	1405.8,752.0
	1413.9,758.2
	1413.9,764.4
	1405.8,776.8
	1413.9,776.8	"/>
<!-- char 0x20 -->
<!-- char 0x0a -->
<!-- char 0x0d -->
<!-- char 0x20 -->
<!-- char 0x20 -->
<!-- char 0x20 -->
<!-- char 0x20 -->
</g><g stroke-width="3.0" stroke="blue">
<!-- char 0x1b -->
<polyline points="325.8,804.7
	337.9,801.6
	349.9,804.7	"/>
<!-- char 0x20 -->
</g><g stroke-width="3.0" stroke="black">
<!-- char 0x2b -->
<polyline points="390.2,814.0
	414.4,814.0
	390.2,814.0	"/>
<polyline points="402.3,823.3
	402.3,804.7
	402.3,823.3	"/>
<!-- char 0x20 -->
<!-- char 0x3b -->
<polyline points="462.8,823.3
	466.8,826.4
	458.8,835.7	"/>
<polyline points="462.8,826.4
	466.8,823.3	"/>
<polyline points="466.8,810.9
	462.8,814.0	"/>
<polyline points="466.8,814.0
	462.8,810.9	"/>
<!-- char 0x20 -->
<!-- char 0x4b -->
<polyline points="543.4,826.4
	527.3,814.0
	543.4,826.4	"/>
<polyline points="539.4,801.6
	519.2,817.1
	539.4,801.6	"/>
<polyline points="519.2,801.6
	519.2,826.4
	519.2,801.6	"/>
<!-- char 0x20 -->
<!-- char 0x5b -->
<polyline points="599.8,829.5
	591.7,829.5
	591.7,798.5
	591.7,829.5	"/>
<polyline points="591.7,798.5
	599.8,798.5	"/>
<!-- char 0x20 -->
<!-- char 0x6b -->
<polyline points="652.2,826.4
	652.2,801.6
	652.2,826.4	"/>
<polyline points="652.2,820.2
	664.3,810.9	"/>
<polyline points="660.2,817.1
	668.3,826.4	"/>
<!-- char 0x20 -->
<!-- char 0x7b -->
<polyline points="732.8,829.5
	724.7,829.5
	724.7,817.1
	716.7,814.0
	724.7,810.9
	724.7,798.5
	732.8,798.5	"/>
<!-- char 0x20 -->
<!-- char 0x20 -->
<!-- char 0x20 -->
<!-- char 0x20 -->
<!-- char 0x20 -->
<!-- char 0x20 -->
</g><g stroke-width="3.0" stroke="blue">
<!-- char 0x8b -->
<polyline points="938.3,845.0
	962.5,814.0
	938.3,814.0	"/>
<!-- char 0x20 -->
</g><g stroke-width="3.0" stroke="black">
</g><g stroke-width="3.0" stroke="blue">
<!-- char 0x9b -->
<polyline points="1002.8,845.0
	1006.8,807.8
	1010.9,801.6
	1018.9,804.7	"/>
<!-- char 0x20 -->
</g><g stroke-width="3.0" stroke="black">
<!-- char 0xab -->
<polyline points="1067.3,826.4
	1091.5,826.4
	1067.3,826.4	"/>
<polyline points="1079.4,823.3
	1079.4,804.7
	1079.4,823.3	"/>
<polyline points="1067.3,814.0
	1091.5,814.0
	1067.3,814.0	"/>
<!-- char 0x20 -->
<!-- char 0xbb -->
<polyline points="1135.7,826.3
	1135.8,826.4	"/>
<polyline points="1143.8,810.8
	1143.9,810.9	"/>
<polyline points="1151.8,826.3
	1151.9,826.4	"/>
<!-- char 0x20 -->
</g><g stroke-width="3.0" stroke="blue">
<!-- char 0xcb -->
<polyline points="1220.4,801.6
	1196.2,801.6
	1212.4,814.0
	1196.2,826.4
	1220.4,826.4	"/>
<!-- char 0x20 -->
</g><g stroke-width="3.0" stroke="black">
<!-- char 0xdb -->
<polyline points="1264.8,826.4
	1264.8,801.6
	1264.8,826.4	"/>
<polyline points="1260.7,801.6
	1284.9,801.6
	1260.7,801.6	"/>
<polyline points="1280.9,801.6
	1280.9,826.4
	1280.9,801.6	"/>
<polyline points="1276.8,826.4
	1284.9,826.4	"/>
<polyline points="1260.7,826.4
	1268.8,826.4	"/>
<!-- char 0x20 -->
<!-- char 0xeb -->
<polyline points="1329.2,826.4
	1329.2,810.9	"/>
<polyline points="1329.2,817.1
	1341.3,810.9	"/>
<polyline points="1333.3,817.1
	1345.4,826.4	"/>
<!-- char 0x20 -->
<!-- char 0xfb -->
<polyline points="1413.9,820.2
	1413.9,826.4
	1389.7,826.4
	1405.8,814.0
	1389.7,801.6
	1413.9,801.6
	1413.9,807.8	"/>
<polyline points="1413.9,801.6
	1389.7,801.6
	1405.8,814.0
	1389.7,826.4
	1413.9,826.4	"/>
<!-- char 0x20 -->
<!-- char 0x0a -->
<!-- char 0x0d -->
<!-- char 0x20 -->
<!-- char 0x20 -->
<!-- char 0x20 -->
<!-- char 0x20 -->
</g><g stroke-width="3.0" stroke="blue">
<!-- char 0x1c -->
<polyline points="325.8,894.6
	325.8,876.0
	325.8,851.2	"/>
<!-- char 0x20 -->
</g><g stroke-width="3.0" stroke="black">
<!-- char 0x2c -->
<polyline points="398.3,872.9
	402.3,876.0
	394.3,885.3	"/>
<polyline points="398.3,876.0
	402.3,872.9	"/>
<!-- char 0x20 -->
<!-- char 0x3c -->
<polyline points="478.9,876.0
	454.7,863.6
	478.9,851.2
	454.7,863.6
	478.9,876.0	"/>
<!-- char 0x20 -->
<!-- char 0x4c -->
<polyline points="519.2,876.0
	519.2,851.2
	519.2,876.0
	539.4,876.0
	519.2,876.0	"/>
<!-- char 0x20 -->
<!-- char 0x5c -->
<polyline points="587.7,851.2
	603.8,876.0
	587.7,851.2	"/>
<!-- char 0x20 -->
<!-- char 0x6c -->
<polyline points="660.2,876.0
	660.2,851.2
	660.2,876.0	"/>
<!-- char 0x20 -->
<!-- char 0x7c -->
<polyline points="724.7,885.3
	724.7,848.1
	724.7,885.3	"/>
<!-- char 0x20 -->
<!-- char 0x20 -->
<!-- char 0x20 -->
<!-- char 0x20 -->
<!-- char 0x20 -->
<!-- char 0x20 -->
</g><g stroke-width="3.0" stroke="blue">
<!-- char 0x8c -->
<polyline points="938.3,894.6
	950.4,879.1	"/>
<!-- char 0x20 -->
</g><g stroke-width="3.0" stroke="black">
</g><g stroke-width="3.0" stroke="blue">
<!-- char 0x9c -->
<polyline points="1002.8,894.6
	1010.9,851.2	"/>
<polyline points="1014.9,857.4
	1023.0,857.4	"/>
<!-- char 0x20 -->
</g><g stroke-width="3.0" stroke="black">
<!-- char 0xac -->
<polyline points="1071.3,866.7
	1079.4,876.0
	1079.4,851.2
	1079.4,876.0
	1087.4,866.7	"/>
<!-- char 0x20 -->
<!-- char 0xbc -->
<polyline points="1131.8,860.5
	1155.9,851.2
	1131.8,860.5
	1155.9,869.8
	1131.8,860.5	"/>
<polyline points="1131.8,876.0
	1155.9,876.0
	1131.8,876.0	"/>
<!-- char 0x20 -->
<!-- char 0xcc -->
<polyline points="1196.2,872.9
	1196.2,885.3
	1208.3,885.3	"/>
<!-- char 0x20 -->
<!-- char 0xdc -->
<polyline points="1260.7,863.6
	1280.9,863.6	"/>
<polyline points="1280.9,857.4
	1280.9,869.8
	1276.8,876.0
	1264.8,876.0
	1260.7,869.8
	1260.7,857.4
	1264.8,851.2
	1276.8,851.2
	1280.9,857.4	"/>
<!-- char 0x20 -->
<!-- char 0xec -->
<polyline points="1329.2,876.0
	1337.3,860.5	"/>
<polyline points="1329.2,851.2
	1337.3,857.4
	1345.4,876.0
	1337.3,857.4	"/>
<!-- char 0x20 -->
<!-- char 0xfc -->
<polyline points="1405.8,876.0
	1413.9,876.0	"/>
<polyline points="1409.8,876.0
	1401.8,851.2
	1393.7,876.0
	1401.8,851.2
	1409.8,876.0	"/>
<polyline points="1397.7,876.0
	1389.7,876.0	"/>
<!-- char 0x20 -->
<!-- char 0x0a -->
<!-- char 0x0d -->
<!-- char 0x20 -->
<!-- char 0x20 -->
<!-- char 0x20 -->
<!-- char 0x20 -->
</g><g stroke-width="3.0" stroke="blue">
<!-- char 0x1d -->
<polyline points="325.8,944.2
	325.8,903.9	"/>
<polyline points="349.9,922.5
	349.9,903.9	"/>
<polyline points="337.9,916.3
	349.9,928.7	"/>
<!-- char 0x20 -->
</g><g stroke-width="3.0" stroke="black">
<!-- char 0x2d -->
<polyline points="390.2,913.2
	414.4,913.2
	390.2,913.2	"/>
<!-- char 0x20 -->
<!-- char 0x3d -->
<polyline points="454.7,919.4
	478.9,919.4
	454.7,919.4	"/>
<polyline points="454.7,910.1
	478.9,910.1
	454.7,910.1	"/>
<!-- char 0x20 -->
<!-- char 0x4d -->
<polyline points="519.2,900.8
	531.3,919.4
	543.4,900.8
	543.4,925.6
	543.4,900.8
	531.3,919.4
	519.2,900.8
	519.2,925.6
	519.2,900.8	"/>
<!-- char 0x20 -->
<!-- char 0x5d -->
<polyline points="591.7,928.7
	599.8,928.7
	599.8,897.7
	599.8,928.7	"/>
<polyline points="599.8,897.7
	591.7,897.7	"/>
<!-- char 0x20 -->
<!-- char 0x6d -->
<polyline points="648.2,925.6
	648.2,910.1	"/>
<polyline points="648.2,913.2
	656.2,910.1
	660.2,916.3	"/>
<polyline points="660.2,925.6
	660.2,913.2
	668.3,910.1
	672.3,916.3
	672.3,925.6	"/>
<!-- char 0x20 -->
<!-- char 0x7d -->
<polyline points="716.7,928.7
	724.7,928.7
	724.7,916.3
	732.8,913.2
	724.7,910.1
	724.7,897.7
	716.7,897.7	"/>
<!-- char 0x20 -->
<!-- char 0x20 -->
<!-- char 0x20 -->
<!-- char 0x20 -->
<!-- char 0x20 -->
<!-- char 0x20 -->
</g><g stroke-width="3.0" stroke="blue">
<!-- char 0x8d -->
<polyline points="938.3,944.2
	942.4,928.7
	950.4,931.8
	958.5,928.7	"/>
<!-- char 0x20 -->
</g><g stroke-width="3.0" stroke="black">
</g><g stroke-width="3.0" stroke="blue">
<!-- char 0x9d -->
<polyline points="1002.8,944.2
	1023.0,910.1	"/>
<polyline points="1023.0,919.4
	1027.0,925.6	"/>
<!-- char 0x20 -->
</g><g stroke-width="3.0" stroke="black">
<!-- char 0xad -->
<polyline points="1067.3,897.7
	1091.5,897.7
	1067.3,897.7	"/>
<!-- char 0x20 -->
<!-- char 0xbd -->
<polyline points="1131.8,907.0
	1155.9,907.0
	1131.8,907.0	"/>
<polyline points="1131.8,913.2
	1155.9,913.2
	1131.8,913.2	"/>
<polyline points="1131.8,919.4
	1155.9,919.4
	1131.8,919.4	"/>
<!-- char 0x20 -->
<!-- char 0xcd -->
<polyline points="1196.2,897.7
	1196.2,910.1	"/>
<polyline points="1196.2,900.8
	1204.3,897.7
	1212.4,900.8
	1212.4,910.1	"/>
<!-- char 0x20 -->
<!-- char 0xdd -->
<polyline points="1260.7,903.9
	1260.7,913.2
	1272.8,916.3
	1284.9,913.2
	1284.9,903.9	"/>
<polyline points="1268.8,925.6
	1276.8,925.6	"/>
<polyline points="1272.8,925.6
	1272.8,900.8
	1272.8,925.6	"/>
<polyline points="1268.8,900.8
	1276.8,900.8	"/>
<!-- char 0x20 -->
<!-- char 0xed -->
<polyline points="1329.2,934.9
	1329.2,910.1
	1329.2,934.9	"/>
<polyline points="1329.2,919.4
	1333.3,925.6
	1341.3,925.6
	1345.4,919.4
	1345.4,910.1	"/>
<polyline points="1345.4,919.4
	1349.4,925.6	"/>
<!-- char 0x20 -->
<!-- char 0xfd -->
<polyline points="1389.7,910.1
	1389.7,903.9
	1397.7,900.8
	1401.8,910.1
	1405.8,900.8
	1413.9,903.9
	1413.9,910.1	"/>
<polyline points="1405.8,925.6
	1397.7,925.6	"/>
<polyline points="1401.8,925.6
	1401.8,910.1	"/>
<!-- char 0x20 -->
<!-- char 0x0a -->
<!-- char 0x0d -->
<!-- char 0x20 -->
<!-- char 0x20 -->
<!-- char 0x20 -->
<!-- char 0x20 -->
</g><g stroke-width="3.0" stroke="blue">
<!-- char 0x1e -->
<polyline points="325.8,993.8
	325.8,962.8
	341.9,962.8
	349.9,975.2	"/>
<!-- char 0x20 -->
</g><g stroke-width="3.0" stroke="black">
<!-- char 0x2e -->
<polyline points="398.3,972.1
	402.3,975.2	"/>
<polyline points="402.3,972.1
	398.3,975.2	"/>
<!-- char 0x20 -->
<!-- char 0x3e -->
<polyline points="454.7,975.2
	478.9,962.8
	454.7,950.4
	478.9,962.8
	454.7,975.2	"/>
<!-- char 0x20 -->
<!-- char 0x4e -->
<polyline points="519.2,975.2
	519.2,950.4
	543.4,975.2
	543.4,950.4
	543.4,975.2
	519.2,950.4
	519.2,975.2	"/>
<!-- char 0x20 -->
<!-- char 0x5e -->
<polyline points="583.7,959.7
	591.7,950.4
	591.7,975.2
	591.7,950.4
	599.8,959.7	"/>
<!-- char 0x20 -->
<!-- char 0x6e -->
<polyline points="652.2,975.2
	652.2,959.7	"/>
<polyline points="652.2,962.8
	660.2,959.7
	668.3,962.8
	668.3,975.2	"/>
<!-- char 0x20 -->
<!-- char 0x7e -->
<polyline points="716.7,950.4
	720.7,947.3
	728.8,950.4
	732.8,947.3	"/>
<!-- char 0x20 -->
<!-- char 0x20 -->
<!-- char 0x20 -->
<!-- char 0x20 -->
<!-- char 0x20 -->
<!-- char 0x20 -->
</g><g stroke-width="3.0" stroke="blue">
<!-- char 0x8e -->
<polyline points="938.3,993.8
	958.5,962.8	"/>
<!-- char 0x20 -->
</g><g stroke-width="3.0" stroke="black">
</g><g stroke-width="3.0" stroke="blue">
<!-- char 0x9e -->
<polyline points="1002.8,993.8
	1010.9,975.2
	1006.8,969.0	"/>
<polyline points="1006.8,965.9
	1023.0,965.9	"/>
<!-- char 0x20 -->
</g><g stroke-width="3.0" stroke="black">
<!-- char 0xae -->
<polyline points="1075.3,962.8
	1079.4,959.7	"/>
<polyline points="1075.3,959.7
	1079.4,962.8	"/>
<!-- char 0x20 -->
<!-- char 0xbe -->
<polyline points="1155.9,959.7
	1131.8,969.0
	1155.9,959.7
	1131.8,950.4
	1155.9,959.7	"/>
<polyline points="1131.8,975.2
	1155.9,975.2
	1131.8,975.2	"/>
<!-- char 0x20 -->
<!-- char 0xce -->
<polyline points="1196.2,984.5
	1196.2,972.1	"/>
<polyline points="1196.2,975.2
	1204.3,972.1
	1212.4,975.2
	1212.4,984.5	"/>
<!-- char 0x20 -->
<!-- char 0xde -->
<polyline points="1268.8,975.2
	1276.8,975.2	"/>
<polyline points="1272.8,975.2
	1272.8,950.4	"/>
<polyline points="1268.8,950.4
	1276.8,950.4	"/>
<polyline points="1272.8,953.5
	1284.9,959.7
	1284.9,965.9
	1272.8,972.1
	1260.7,965.9
	1260.7,959.7
	1272.8,953.5	"/>
<!-- char 0x20 -->
<!-- char 0xee -->
<polyline points="1325.2,962.8
	1333.3,959.7
	1337.3,975.2
	1345.4,965.9
	1345.4,959.7	"/>
<!-- char 0x20 -->
<!-- char 0xfe -->
<polyline points="1389.7,975.2
	1413.9,975.2
	1389.7,975.2	"/>
<polyline points="1393.7,965.9
	1393.7,959.7	"/>
<polyline points="1393.7,962.8
	1409.8,962.8
	1393.7,962.8	"/>
<polyline points="1409.8,965.9
	1409.8,959.7	"/>
<polyline points="1413.9,950.4
	1389.7,950.4
	1413.9,950.4	"/>
<!-- char 0x20 -->
<!-- char 0x0a -->
<!-- char 0x0d -->
<!-- char 0x20 -->
<!-- char 0x20 -->
<!-- char 0x20 -->
<!-- char 0x20 -->
</g><g stroke-width="3.0" stroke="blue">
<!-- char 0x1f -->
<polyline points="325.8,1043.4
	337.9,1024.8
	325.8,1021.7	"/>
<!-- char 0x20 -->
</g><g stroke-width="3.0" stroke="black">
<!-- char 0x2f -->
<polyline points="390.2,1024.8
	410.4,1000.0
	390.2,1024.8	"/>
<!-- char 0x20 -->
<!-- char 0x3f -->
<polyline points="466.7,1024.7
	466.8,1024.8	"/>
<polyline points="466.8,1018.6
	466.8,1012.4
	478.9,1009.3
	478.9,1003.1
	466.8,1000.0
	454.7,1003.1	"/>
<!-- char 0x20 -->
<!-- char 0x4f -->
<polyline points="543.4,1021.7
	543.4,1003.1
	543.4,1021.7
	531.3,1024.8
	519.2,1021.7
	519.2,1003.1
	519.2,1021.7	"/>
<polyline points="519.2,1003.1
	531.3,1000.0
	543.4,1003.1	"/>
<!-- char 0x20 -->
<!-- char 0x5f -->
<polyline points="583.7,1037.2
	607.9,1037.2
	583.7,1037.2	"/>
<!-- char 0x20 -->
<!-- char 0x6f -->
<polyline points="652.2,1021.7
	652.2,1012.4
	660.2,1009.3
	668.3,1012.4
	668.3,1021.7
	660.2,1024.8
	652.2,1021.7	"/>
<!-- char 0x20 -->
</g><g stroke-width="3.0" stroke="blue">
<!-- char 0x7f -->
<polyline points="712.6,1043.4
	716.7,1024.8
	712.6,1000.0	"/>
<!-- char 0x20 -->
</g><g stroke-width="3.0" stroke="black">
<!-- char 0x20 -->
<!-- char 0x20 -->
<!-- char 0x20 -->
<!-- char 0x20 -->
<!-- char 0x20 -->
</g><g stroke-width="3.0" stroke="blue">
<!-- char 0x8f -->
<polyline points="938.3,1043.4
	954.4,1015.5
	950.4,1009.3
	942.4,1006.2
	938.3,1012.4	"/>
<!-- char 0x20 -->
</g><g stroke-width="3.0" stroke="black">
</g><g stroke-width="3.0" stroke="blue">
<!-- char 0x9f -->
<polyline points="1002.8,1043.4
	1018.9,1006.2	"/>
<polyline points="1010.9,1006.2
	1006.8,1000.0	"/>
<polyline points="1006.8,1015.5
	1018.9,1015.5	"/>
<!-- char 0x20 -->
</g><g stroke-width="3.0" stroke="black">
<!-- char 0xaf -->
<polyline points="1067.3,1012.4
	1091.5,1012.4
	1067.3,1012.4	"/>
<polyline points="1079.3,1021.6
	1079.4,1021.7	"/>
<polyline points="1079.3,1003.0
	1079.4,1003.1	"/>
<!-- char 0x20 -->
<!-- char 0xbf -->
<polyline points="1135.8,1003.1
	1143.9,996.9
	1151.9,1003.1	"/>
<!-- char 0x20 -->
<!-- char 0xcf -->
<polyline points="1204.3,1009.3
	1196.2,1006.2
	1196.2,1000.0
	1204.3,996.9
	1212.4,1000.0
	1212.4,1006.2
	1204.3,1009.3	"/>
<!-- char 0x20 -->
<!-- char 0x20 -->
<!-- char 0x20 -->
<!-- char 0xef -->
<polyline points="1329.2,1021.7
	1329.2,1012.4
	1337.3,1009.3
	1345.4,1012.4
	1345.4,1021.7
	1337.3,1024.8
	1329.2,1021.7	"/>
<!-- char 0x20 -->
<!-- char 0x20 -->
<!-- char 0x20 -->
<!-- char 0x0a -->
<!-- char 0x0d -->
<polyline points="196.8,1093.0
	198.1,293.0
	199.4,292.0
	200.7,291.0
	202.0,290.0
	203.3,289.0
	204.6,288.0
	205.9,287.0
	207.2,286.0
	208.5,285.0
	209.8,284.0
	211.1,283.0
	212.4,282.0
	213.7,281.0
	215.0,280.0
	216.3,279.0
	217.6,278.0
	218.9,277.0
	220.2,276.0
	221.5,275.0
	222.8,274.0
	224.1,273.0
	225.4,272.0
	226.7,271.0
	228.0,270.0
	229.3,269.0
	230.6,268.0
	231.9,267.0
	233.2,266.0
	234.5,265.0
	235.8,264.0
	237.1,263.0
	238.4,262.0
	239.7,261.0
	241.0,260.0
	242.3,259.0
	243.6,258.0
	244.9,257.0
	246.2,256.0
	247.5,255.0
	248.8,254.0
	250.1,253.0
	251.4,252.0
	252.7,251.0
	254.0,250.0
	255.3,249.0
	256.6,248.0
	257.9,247.0
	259.2,246.0
	260.5,245.0
	261.8,244.0
	263.1,243.0
	264.4,242.0
	265.7,241.0
	267.0,240.0
	268.3,239.0
	269.6,238.0
	270.9,237.0
	272.2,236.0
	273.5,235.0
	274.8,234.0
	276.1,233.0
	277.4,232.0
	278.7,231.0
	280.0,230.0
	281.3,229.0
	282.6,228.0
	283.9,227.0
	285.2,226.0
	286.5,225.0
	287.8,224.0
	289.1,223.0
	290.4,222.0
	291.7,221.0
	293.0,220.0
	294.3,219.0
	295.6,218.0
	296.9,217.0
	298.2,216.0
	299.5,215.0
	300.8,214.0
	302.1,213.0
	303.4,212.0
	304.7,211.0
	306.0,210.0
	307.3,209.0
	308.6,208.0
	309.9,207.0
	311.2,206.0
	312.5,205.0
	313.8,204.0
	315.1,203.0
	316.4,202.0
	317.7,201.0
	319.0,200.0
	320.3,199.0
	321.6,198.0
	322.9,197.0
	324.2,196.0
	325.5,195.0
	326.8,194.0
	328.1,193.0
	329.4,193.0
	330.7,193.0
	332.0,193.0
	333.3,193.0
	334.6,193.0
	335.9,193.0
	337.2,193.0
	338.5,193.0
	339.8,193.0
	341.1,193.0
	342.4,193.0
	343.7,193.0
	345.0,193.0
	346.3,193.0
	347.6,193.0
	348.9,193.0
	350.2,193.0
	351.5,193.0
	352.8,193.0
	354.1,193.0
	355.4,193.0
	356.7,193.0
	358.0,193.0
	359.3,193.0
	360.6,193.0
	361.9,193.0
	363.2,193.0
	364.5,193.0
	365.8,193.0
	367.1,193.0
	368.4,193.0
	369.7,193.0
	371.0,193.0
	372.3,193.0
	373.6,193.0
	374.9,193.0
	376.2,193.0
	377.5,193.0
	378.8,193.0
	380.1,193.0
	381.4,193.0
	382.7,193.0
	384.0,193.0
	385.3,193.0
	386.6,193.0
	387.9,193.0
	389.2,193.0
	390.5,193.0
	391.8,193.0
	393.1,193.0
	394.4,193.0
	395.7,193.0
	397.0,193.0
	398.3,193.0
	399.6,193.0
	400.9,193.0
	402.2,193.0
	403.5,193.0
	404.8,193.0
	406.1,193.0
	407.4,193.0
	408.7,193.0
	410.0,193.0
	411.3,193.0
	412.6,193.0
	413.9,193.0
	415.2,193.0
	416.5,193.0
	417.8,193.0
	419.1,193.0
	420.4,193.0
	421.7,193.0
	423.0,193.0
	424.3,193.0
	425.6,193.0
	426.9,193.0
	428.2,193.0
	429.5,193.0
	430.8,193.0
	432.1,193.0
	433.4,193.0
	434.7,193.0
	436.0,193.0
	437.3,193.0
	438.6,193.0
	439.9,193.0
	441.2,193.0
	442.5,193.0
	443.8,193.0
	445.1,193.0
	446.4,193.0
	447.7,193.0
	449.0,193.0
	450.3,193.0
	451.6,193.0
	452.9,193.0
	454.2,193.0
	455.5,193.0
	456.8,193.0
	458.1,193.0
	459.4,193.0
	460.7,193.0
	462.0,193.0
	463.3,193.0
	464.6,193.0
	465.9,193.0
	467.2,193.0
	468.5,193.0
	469.8,193.0
	471.1,193.0
	472.4,193.0
	473.7,193.0
	475.0,193.0
	476.3,193.0
	477.6,193.0
	478.9,193.0
	480.2,193.0
	481.5,193.0
	482.8,193.0
	484.1,193.0
	485.4,193.0
	486.7,193.0
	488.0,193.0
	489.3,193.0
	490.6,193.0
	491.9,193.0
	493.2,193.0
	494.5,193.0
	495.8,193.0
	497.1,193.0
	498.4,193.0
	499.7,193.0
	501.0,193.0
	502.3,193.0
	503.6,193.0
	504.9,193.0
	506.2,193.0
	507.5,193.0
	508.8,193.0
	510.1,193.0
	511.4,193.0
	512.7,193.0
	514.0,193.0
	515.3,193.0
	516.6,193.0
	517.9,193.0
	519.2,193.0
	520.5,193.0
	521.8,193.0
	523.1,193.0
	524.4,193.0
	525.7,193.0
	527.0,193.0
	528.3,193.0
	529.6,193.0
	530.9,193.0
	532.2,193.0
	533.5,193.0
	534.8,193.0
	536.1,193.0
	537.4,193.0
	538.7,193.0
	540.0,193.0
	541.3,193.0
	542.6,193.0
	543.9,193.0
	545.2,193.0
	546.5,193.0
	547.8,193.0
	549.1,193.0
	550.4,193.0
	551.7,193.0
	553.0,193.0
	554.3,193.0
	555.6,193.0
	556.9,193.0
	558.2,193.0
	559.5,193.0
	560.8,193.0
	562.1,193.0
	563.4,193.0
	564.7,193.0
	566.0,193.0
	567.3,193.0
	568.6,193.0
	569.9,193.0
	571.2,193.0
	572.5,193.0
	573.8,193.0
	575.1,193.0
	576.4,193.0
	577.7,193.0
	579.0,193.0
	580.3,193.0
	581.6,193.0
	582.9,193.0
	584.2,193.0
	585.5,193.0
	586.8,193.0
	588.1,193.0
	589.4,193.0
	590.7,193.0
	592.0,193.0
	593.3,193.0
	594.6,193.0
	595.9,193.0
	597.2,193.0
	598.5,193.0
	599.8,193.0
	601.1,193.0
	602.4,193.0
	603.7,193.0
	605.0,193.0
	606.3,193.0
	607.6,193.0
	608.9,193.0
	610.2,193.0
	611.5,193.0
	612.8,193.0
	614.1,193.0
	615.4,193.0
	616.7,193.0
	618.0,193.0
	619.3,193.0
	620.6,193.0
	621.9,193.0
	623.2,193.0
	624.5,193.0
	625.8,193.0
	627.1,193.0
	628.4,193.0
	629.7,193.0
	631.0,193.0
	632.3,193.0
	633.6,193.0
	634.9,193.0
	636.2,193.0
	637.5,193.0
	638.8,193.0
	640.1,193.0
	641.4,193.0
	642.7,193.0
	644.0,193.0
	645.3,193.0
	646.6,193.0
	647.9,193.0
	649.2,193.0
	650.5,193.0
	651.8,193.0
	653.1,193.0
	654.4,193.0
	655.7,193.0
	657.0,193.0
	658.3,193.0
	659.6,193.0
	660.9,193.0
	662.2,193.0
	663.5,193.0
	664.8,193.0
	666.1,193.0
	667.4,193.0
	668.7,193.0
	670.0,193.0
	671.3,193.0
	672.6,193.0
	673.9,193.0
	675.2,193.0
	676.5,193.0
	677.8,193.0
	679.1,193.0
	680.4,193.0
	681.7,193.0
	683.0,193.0
	684.3,193.0
	685.6,193.0
	686.9,193.0
	688.2,193.0
	689.5,193.0
	690.8,193.0
	692.1,193.0
	693.4,193.0
	694.7,193.0
	696.0,193.0
	697.3,193.0
	698.6,193.0
	699.9,193.0
	701.2,193.0
	702.5,193.0
	703.8,193.0
	705.1,193.0
	706.4,193.0
	707.7,193.0
	709.0,193.0
	710.3,193.0
	711.6,193.0
	712.9,193.0
	714.2,193.0
	715.5,193.0
	716.8,193.0
	718.1,193.0
	719.4,193.0
	720.7,193.0
	722.0,193.0
	723.3,193.0
	724.6,193.0
	725.9,193.0
	727.2,193.0
	728.5,193.0
	729.8,193.0
	731.1,193.0
	732.4,193.0
	733.7,193.0
	735.0,193.0
	736.3,193.0
	737.6,193.0
	738.9,193.0
	740.2,193.0
	741.5,193.0
	742.8,193.0
	744.1,193.0
	745.4,197.0
	746.7,201.0
	748.0,205.0
	749.3,209.0
	750.6,213.0
	751.9,217.0
	753.2,221.0
	754.5,225.0
	755.8,229.0
	757.1,233.0
	758.4,237.0
	759.7,241.0
	761.0,245.0
	762.3,249.0
	763.6,253.0
	764.9,257.0
	766.2,261.0
	767.5,265.0
	768.8,269.0
	770.1,273.0
	771.4,277.0
	772.7,281.0
	774.0,285.0
	775.3,289.0
	776.6,293.0
	777.9,297.0
	779.2,301.0
	780.5,305.0
	781.8,309.0
	783.1,313.0
	784.4,317.0
	785.7,321.0
	787.0,325.0
	788.3,329.0
	789.6,333.0
	790.9,337.0
	792.2,341.0
	793.5,345.0
	794.8,349.0
	796.1,353.0
	797.4,357.0
	798.7,361.0
	800.0,365.0
	801.3,369.0
	802.6,373.0
	803.9,377.0
	805.2,381.0
	806.5,385.0
	807.8,389.0
	809.1,393.0
	810.4,397.0
	811.7,401.0
	813.0,405.0
	814.3,409.0
	815.6,413.0
	816.9,417.0
	818.2,421.0
	819.5,425.0
	820.8,429.0
	822.1,433.0
	823.4,437.0
	824.7,441.0
	826.0,445.0
	827.3,449.0
	828.6,453.0
	829.9,457.0
	831.2,461.0
	832.5,465.0
	833.8,469.0
	835.1,473.0
	836.4,477.0
	837.7,481.0
	839.0,485.0
	840.3,489.0
	841.6,345.0
	842.9,345.0
	844.2,345.0
	845.5,345.0
	846.8,345.0
	848.1,345.0
	849.4,345.0
	850.7,345.0
	852.0,345.0
	853.3,345.0
	854.6,345.0
	855.9,345.0
	857.2,345.0
	858.5,345.0
	859.8,345.0
	861.1,345.0
	862.4,345.0
	863.7,345.0
	865.0,345.0
	866.3,345.0
	867.6,345.0
	868.9,345.0
	870.2,345.0
	871.5,345.0
	872.8,345.0
	874.1,345.0
	875.4,345.0
	876.7,345.0
	878.0,345.0
	879.3,345.0
	880.6,345.0
	881.9,345.0
	883.2,345.0
	884.5,345.0
	885.8,345.0
	887.1,345.0
	888.4,345.0
	889.7,345.0
	891.0,341.0
	892.3,337.0
	893.6,333.0
	894.9,329.0
	896.2,325.0
	897.5,321.0
	898.8,317.0
	900.1,313.0
	901.4,309.0
	902.7,305.0
	904.0,301.0
	905.3,297.0
	906.6,293.0
	907.9,289.0
	909.2,285.0
	910.5,281.0
	911.8,277.0
	913.1,273.0
	914.4,269.0
	915.7,265.0
	917.0,261.0
	918.3,257.0
	919.6,253.0
	920.9,249.0
	922.2,245.0
	923.5,241.0
	924.8,237.0
	926.1,233.0
	927.4,229.0
	928.7,225.0
	930.0,221.0
	931.3,217.0
	932.6,213.0
	933.9,209.0
	935.2,205.0
	936.5,201.0
	937.8,197.0
	939.1,213.0
	940.4,213.0
	941.7,213.0
	943.0,213.0
	944.3,213.0
	945.6,213.0
	946.9,213.0
	948.2,213.0
	949.5,213.0
	950.8,213.0
	952.1,213.0
	953.4,213.0
	954.7,213.0
	956.0,213.0
	957.3,213.0
	958.6,213.0
	959.9,213.0
	961.2,213.0
	962.5,213.0
	963.8,213.0
	965.1,213.0
	966.4,213.0
	967.7,213.0
	969.0,213.0
	970.3,213.0
	971.6,213.0
	972.9,213.0
	974.2,213.0
	975.5,213.0
	976.8,213.0
	978.1,213.0
	979.4,213.0
	980.7,213.0
	982.0,213.0
	983.3,213.0
	984.6,213.0
	985.9,213.0
	987.2,213.0
	988.5,213.0
	989.8,213.0	"/>
<polyline points="1054.8,1093.0
	1056.1,193.0
	1057.4,193.0
	1058.7,193.0
	1060.0,193.0
	1061.3,193.0
	1062.6,193.0
	1063.9,193.0
	1065.2,193.0
	1066.5,193.0
	1067.8,193.0
	1069.1,193.0
	1070.4,193.0
	1071.7,193.0
	1073.0,193.0
	1074.3,193.0
	1075.6,193.0
	1076.9,193.0
	1078.2,193.0
	1079.5,193.0
	1080.8,193.0
	1082.1,193.0
	1083.4,193.0
	1084.7,193.0
	1086.0,193.0
	1087.3,193.0
	1088.6,193.0
	1089.9,193.0
	1091.2,193.0
	1092.5,193.0
	1093.8,193.0
	1095.1,193.0
	1096.4,193.0
	1097.7,193.0
	1099.0,193.0
	1100.3,193.0
	1101.6,193.0
	1102.9,193.0
	1104.2,193.0
	1105.5,193.0
	1106.8,193.0
	1108.1,193.0
	1109.4,193.0
	1110.7,193.0
	1112.0,193.0
	1113.3,193.0
	1114.6,193.0
	1115.9,193.0
	1117.2,193.0
	1118.5,193.0
	1119.8,193.0	"/>
<polyline points="1249.8,1093.0
	1251.1,193.0
	1252.4,193.0
	1253.7,193.0
	1255.0,193.0
	1256.3,193.0
	1257.6,193.0
	1258.9,193.0
	1260.2,193.0
	1261.5,193.0
	1262.8,193.0
	1264.1,193.0
	1265.4,193.0
	1266.7,193.0
	1268.0,193.0
	1269.3,193.0
	1270.6,193.0
	1271.9,193.0
	1273.2,193.0
	1274.5,193.0
	1275.8,193.0
	1277.1,193.0
	1278.4,193.0
	1279.7,193.0
	1281.0,193.0
	1282.3,193.0
	1283.6,193.0
	1284.9,193.0
	1286.2,193.0
	1287.5,193.0
	1288.8,193.0
	1290.1,193.0
	1291.4,193.0
	1292.7,193.0
	1294.0,193.0
	1295.3,193.0
	1296.6,193.0
	1297.9,193.0
	1299.2,193.0
	1300.5,193.0
	1301.8,193.0
	1303.1,193.0
	1304.4,193.0
	1305.7,193.0
	1307.0,193.0
	1308.3,193.0
	1309.6,193.0
	1310.9,193.0
	1312.2,193.0
	1313.5,193.0
	1314.8,193.0	"/>
<!-- char 0x4a -->
<polyline points="238.4,117.0
	241.0,121.0
	248.8,121.0
	251.4,117.0
	251.4,105.0
	251.4,117.0	"/>
<!-- char 0x4d -->
<polyline points="259.2,105.0
	267.0,117.0
	274.8,105.0
	274.8,121.0
	274.8,105.0
	267.0,117.0
	259.2,105.0
	259.2,121.0
	259.2,105.0	"/>
<!-- char 0x50 -->
<polyline points="280.0,105.0
	280.0,121.0
	280.0,105.0
	293.0,105.0
	295.6,109.0
	293.0,113.0
	280.0,113.0	"/>
<!-- char 0x5f -->
<polyline points="300.8,129.0
	316.4,129.0
	300.8,129.0	"/>
<!-- char 0x54 -->
<polyline points="321.6,105.0
	337.2,105.0
	321.6,105.0	"/>
<polyline points="329.4,105.0
	329.4,121.0
	329.4,105.0	"/>
<!-- char 0x45 -->
<polyline points="342.4,113.0
	355.4,113.0
	342.4,113.0	"/>
<polyline points="342.4,121.0
	342.4,105.0
	358.0,105.0
	342.4,105.0
	342.4,121.0
	358.0,121.0
	342.4,121.0	"/>
<!-- char 0x53 -->
<polyline points="378.8,107.0
	371.0,105.0
	363.2,107.0
	363.2,111.0
	373.6,113.0
	378.8,115.0
	378.8,119.0
	371.0,121.0
	363.2,119.0	"/>
<!-- char 0x54 -->
<polyline points="384.0,105.0
	399.6,105.0
	384.0,105.0	"/>
<polyline points="391.8,105.0
	391.8,121.0
	391.8,105.0	"/>
<!-- char 0x20 -->
<polyline points="488.0,133.0
	508.8,150.0
	529.6,150.0
	550.4,134.0
	571.2,134.0	"/>
<!-- char 0x52 -->
<polyline points="584.2,137.0
	571.2,137.0
	571.2,153.0
	571.2,137.0
	584.2,137.0
	586.8,141.0
	584.2,145.0
	571.2,145.0
	581.6,145.0
	586.8,153.0	"/>
<!-- char 0x54 -->
<polyline points="592.0,137.0
	607.6,137.0
	592.0,137.0	"/>
<polyline points="599.8,137.0
	599.8,153.0
	599.8,137.0	"/>
<!-- char 0x4e -->
<polyline points="612.8,153.0
	612.8,137.0
	628.4,153.0
	628.4,137.0
	628.4,153.0
	612.8,137.0
	612.8,153.0	"/>
<!-- char 0x5f -->
<polyline points="633.6,161.0
	649.2,161.0
	633.6,161.0	"/>
<!-- char 0x54 -->
<polyline points="654.4,137.0
	670.0,137.0
	654.4,137.0	"/>
<polyline points="662.2,137.0
	662.2,153.0
	662.2,137.0	"/>
<!-- char 0x45 -->
<polyline points="675.2,145.0
	688.2,145.0
	675.2,145.0	"/>
<polyline points="675.2,153.0
	675.2,137.0
	690.8,137.0
	675.2,137.0
	675.2,153.0
	690.8,153.0
	675.2,153.0	"/>
<!-- char 0x53 -->
<polyline points="711.6,139.0
	703.8,137.0
	696.0,139.0
	696.0,143.0
	706.4,145.0
	711.6,147.0
	711.6,151.0
	703.8,153.0
	696.0,151.0	"/>
<!-- char 0x54 -->
<polyline points="716.8,137.0
	732.4,137.0
	716.8,137.0	"/>
<polyline points="724.6,137.0
	724.6,153.0
	724.6,137.0	"/>
<!-- char 0x20 -->
<!-- char 0x20 -->
<!-- char 0x2d -->
<polyline points="196.8,209.0
	212.4,209.0
	196.8,209.0	"/>
<!-- char 0x2d -->
<polyline points="217.6,209.0
	233.2,209.0
	217.6,209.0	"/>
<!-- char 0x2d -->
<polyline points="238.4,209.0
	254.0,209.0
	238.4,209.0	"/>
<!-- char 0x2d -->
<polyline points="259.2,209.0
	274.8,209.0
	259.2,209.0	"/>
<!-- char 0x7c -->
<polyline points="1452.6,223.0
	1452.6,199.0
	1452.6,223.0	"/>
<!-- char 0x7c -->
<polyline points="1473.4,223.0
	1473.4,199.0
	1473.4,223.0	"/>
<!-- char 0x7c -->
<polyline points="1494.2,223.0
	1494.2,199.0
	1494.2,223.0	"/>
<!-- char 0x7c -->
<polyline points="1515.0,223.0
	1515.0,199.0
	1515.0,223.0	"/>
<!-- char 0x7c -->
<polyline points="204.6,223.0
	204.6,199.0
	204.6,223.0	"/>
<!-- char 0x7c -->
<polyline points="225.4,223.0
	225.4,199.0
	225.4,223.0	"/>
</g><g stroke-width="3.0" stroke="blue">
<!-- char 0x44 -->
<polyline points="779.2,873.0
	779.2,889.0
	789.6,889.0
	794.8,885.0
	794.8,877.0
	789.6,873.0
	779.2,873.0
	779.2,889.0	"/>
<!-- char 0x49 -->
<polyline points="802.6,889.0
	813.0,889.0	"/>
<polyline points="807.8,889.0
	807.8,873.0
	807.8,889.0	"/>
<polyline points="802.6,873.0
	813.0,873.0	"/>
<!-- char 0x4d -->
<polyline points="820.8,873.0
	828.6,885.0
	836.4,873.0
	836.4,889.0
	836.4,873.0
	828.6,885.0
	820.8,873.0
	820.8,889.0
	820.8,873.0	"/>
</g><g stroke-width="3.0" stroke="black">
<!-- char 0x4e -->
<polyline points="779.2,921.0
	779.2,905.0
	794.8,921.0
	794.8,905.0
	794.8,921.0
	779.2,905.0
	779.2,921.0	"/>
<!-- char 0x4f -->
<polyline points="815.6,919.0
	815.6,907.0
	815.6,919.0
	807.8,921.0
	800.0,919.0
	800.0,907.0
	800.0,919.0	"/>
<polyline points="800.0,907.0
	807.8,905.0
	815.6,907.0	"/>
<!-- char 0x52 -->
<polyline points="833.8,905.0
	820.8,905.0
	820.8,921.0
	820.8,905.0
	833.8,905.0
	836.4,909.0
	833.8,913.0
	820.8,913.0
	831.2,913.0
	836.4,921.0	"/>
<!-- char 0x4d -->
<polyline points="841.6,905.0
	849.4,917.0
	857.2,905.0
	857.2,921.0
	857.2,905.0
	849.4,917.0
	841.6,905.0
	841.6,921.0
	841.6,905.0	"/>
<!-- char 0x41 -->
<polyline points="865.0,917.0
	875.4,917.0
	865.0,917.0	"/>
<polyline points="862.4,921.0
	870.2,905.0
	878.0,921.0
	870.2,905.0
	862.4,921.0	"/>
<!-- char 0x4c -->
<polyline points="883.2,921.0
	883.2,905.0
	883.2,921.0
	896.2,921.0
	883.2,921.0	"/>
</g><g stroke-width="3.0" stroke="red">
<!-- char 0x42 -->
<polyline points="789.6,953.0
	779.2,953.0
	779.2,937.0
	789.6,937.0
	794.8,941.0
	789.6,945.0
	779.2,945.0
	789.6,945.0
	794.8,949.0
	789.6,953.0
	779.2,953.0
	779.2,937.0
	789.6,937.0	"/>
<!-- char 0x52 -->
<polyline points="813.0,937.0
	800.0,937.0
	800.0,953.0
	800.0,937.0
	813.0,937.0
	815.6,941.0
	813.0,945.0
	800.0,945.0
	810.4,945.0
	815.6,953.0	"/>
<!-- char 0x49 -->
<polyline points="823.4,953.0
	833.8,953.0	"/>
<polyline points="828.6,953.0
	828.6,937.0
	828.6,953.0	"/>
<polyline points="823.4,937.0
	833.8,937.0	"/>
<!-- char 0x47 -->
<polyline points="852.0,945.0
	857.2,945.0
	857.2,951.0
	849.4,953.0
	841.6,951.0
	841.6,939.0
	841.6,951.0	"/>
<polyline points="841.6,939.0
	849.4,937.0
	857.2,939.0	"/>
<!-- char 0x48 -->
<polyline points="878.0,953.0
	878.0,937.0
	878.0,953.0	"/>
<polyline points="878.0,945.0
	862.4,945.0
	878.0,945.0	"/>
<polyline points="862.4,937.0
	862.4,953.0
	862.4,937.0	"/>
<!-- char 0x54 -->
<polyline points="883.2,937.0
	898.8,937.0
	883.2,937.0	"/>
<polyline points="891.0,937.0
	891.0,953.0
	891.0,937.0	"/>
</g><g stroke-width="3.0" stroke="black">
</g>
</g>
</svg>
